<svg xmlns="http://www.w3.org/2000/svg" viewBox="0 0 378.89 318.43"><defs><style>.cls-1{fill:#5f636c;}</style></defs><title>devPlan de travail 4</title><g id="Traits_de_coupe" data-name="Traits de coupe"><path class="cls-1" d="M12.43,247.94V70.49h354V247.94ZM360,241.57c.33-2.61.2-163.58-.12-164.67H18.9c-.31,2.53-.19,163.57.11,164.67Z"/><path class="cls-1" d="M232.55,227.68H202.94c0-4.91,0-9.8,0-14.69v-29.7c-.5.37-.86.6-1.19.86a30,30,0,0,1-13.6,6.33,25.71,25.71,0,0,1-4.12.3c-4.45,0-8.9,0-13.35,0h-1.81v36.7c-1.25.34-27.82.41-29.83.1V190.8h-6.29c.4-.71.63-1.15.89-1.56,1.49-2.33,3-4.67,4.5-7a5.1,5.1,0,0,0,.88-3q0-43.51,0-87V89h29.81V178h33.9l.08-.09a.94.94,0,0,0,.09-.12.39.39,0,0,0,0-.15c0-.15,0-.31,0-.46q0-44,0-87.92a.83.83,0,0,1,0-.15c1-.34,27.3-.45,29.5-.13C232.82,90.17,232.86,226.1,232.55,227.68Z"/><path class="cls-1" d="M248.94,215.9H251c15.34,0,30.69,0,46,0a19.11,19.11,0,0,0,12.94-4.7c7.67-6.56,8.63-17,2.32-24.83a30.79,30.79,0,0,0-9.08-7.45,66.58,66.58,0,0,0-16-6.07c-8.44-2.26-16.76-4.85-24.51-9a39.29,39.29,0,0,1-10.06-7.45,30.29,30.29,0,0,1-8-17.53c-.26-2-.51-4-.6-5.95-.46-10,2.94-18.55,9.53-25.92s14.67-12.15,23.82-15.41a47.89,47.89,0,0,1,16.37-2.77c16.82.07,33.65,0,50.48,0h2.08l-5.46,11.86h-1.81c-13.66,0-27.31-.06-41,0a24.84,24.84,0,0,0-19.27,8.93,20.1,20.1,0,0,0-5.18,12.82A18.22,18.22,0,0,0,278,134.93a31.74,31.74,0,0,0,12.39,8.77,67.61,67.61,0,0,0,13.94,4,96.28,96.28,0,0,1,21,6.1,39.67,39.67,0,0,1,10.23,6.39c5.39,4.77,8.37,10.86,9.74,17.83a47.68,47.68,0,0,1,1,9.6,38,38,0,0,1-11.12,26.79,46.34,46.34,0,0,1-24,13,55.71,55.71,0,0,1-12,1.2q-21.56,0-43.12,0a2.13,2.13,0,0,1-2.35-1.57c-1.3-3.22-2.72-6.39-4.08-9.59C249.38,217.09,249.22,216.62,248.94,215.9Z"/><path class="cls-1" d="M67.78,228.6Q50.23,158.82,32.65,89H66.09c8.17,32.47,16.35,65,24.62,97.84a14.24,14.24,0,0,0,.47-1.37q8.52-37.18,17-74.37a44,44,0,0,0,1.1-12.49A14.92,14.92,0,0,0,108,92.94a4.47,4.47,0,0,1-.33-1.78c0-1.94.36-2.3,2.29-2.3h16.43c-.44,2.06-.84,3.94-1.26,5.82Q116.6,132.63,108,170.59q-4.95,21.89-9.87,43.79a5,5,0,0,0,0,2.08c.84,3.53,1.74,7,2.61,10.56.12.48.2,1,.32,1.58Z"/></g></svg>