<svg xmlns="http://www.w3.org/2000/svg" viewBox="0 0 1317.45 965.11"><defs><style>.cls-1{fill:#3c5999;}</style></defs><title>Plan de travail 7</title><g id="Traits_de_coupe" data-name="Traits de coupe"><path class="cls-1" d="M1132.35,448.57l99.42,52.08a20.14,20.14,0,0,0,18.64-35.7L1151,412.88a20.13,20.13,0,0,0-18.63,35.69"/><path class="cls-1" d="M53.1,406.07l.09,0,0-.15Z"/><path class="cls-1" d="M57,357.47c.54,1,1.14,2.09,1.8,3.13A31.44,31.44,0,0,0,62,364.85a19.12,19.12,0,0,0,8.22,5.52c.33.11.66.21,1,.29a15.16,15.16,0,0,0,3.92.44,21.25,21.25,0,0,0,4-.31,5.49,5.49,0,0,0,2.05-.77,12.06,12.06,0,0,0,3-4.78,26.9,26.9,0,0,0,1.15-15.3,27.72,27.72,0,0,0-2.15-6.49,31,31,0,0,0-1.63-2.94,38.55,38.55,0,0,0-4.83-6.24c-.75-.8-1.61-1.59-2.47-2.38-.32-.3-.59-.59-.93-.89-.08-.06-.16-.09-.23-.15a17.16,17.16,0,0,0-6.37-3C56.28,325.55,53,340.52,52.83,344.29a18.14,18.14,0,0,0,.77,4.43,45.54,45.54,0,0,0,3.4,8.75"/><path class="cls-1" d="M82.08,323.06c1.08,1,2.16,2,3.19,3.08.72.76,1.39,1.53,2,2.31a49.27,49.27,0,0,1,5,7l46.88-97.68,111,53.44-45,93.85a25.46,25.46,0,0,1,4.53,1.61,19.82,19.82,0,0,1,8.7,8l51.93-108.2c7.31-15.24,3.29-32.39-9-38.3l-94.09-45.31c-12.3-5.92-28.18,1.64-35.5,16.88L106.49,272.2l-3.57,7.42-2.46,5.13L82.32,322.56Zm88.05-100.33,73.77,35.52-2.35,4.9-73.77-35.52Z"/><path class="cls-1" d="M92.65,273.73c-7-7.89-16.4-13.37-24.34-3.38-8.3,10.44-1,28,6.45,40.66Z"/><path class="cls-1" d="M1235,871a252.34,252.34,0,0,0,22.89-28.53,257.23,257.23,0,0,0,18.32-32.07,233.25,233.25,0,0,0,13.26-34.72l2.46-9c.84-2.93,1.46-6.33,2.18-9.49l1-4.82c.37-1.67.5-2.79.75-4.21l.68-4.05.77-4.81c6.61-49.23-2.3-100.66-25.12-143.51-22.49-43.05-57.64-77.58-97.37-98.79-2.44-1.39-4.93-2.69-7.47-3.88s-5-2.48-7.54-3.62c-5.15-2.13-10.17-4.42-15.37-6.19a237.46,237.46,0,0,0-31.12-9.1c-5.25-1-10.31-2.17-15.77-2.87-2.64-.38-5.44-.85-7.91-1.11l-7.24-.65-4-.37-3.85-.18-7.62-.34c-5.09.05-10.11-.07-15.09.22A238.8,238.8,0,0,0,946.3,499.07a243.23,243.23,0,0,0-39.44,27.64,249.36,249.36,0,0,0-30,30.89,233.07,233.07,0,0,0-21.3,31,215.21,215.21,0,0,0-14,28.61,225.2,225.2,0,0,0-12.91,42.57c-1.11,4.88-1.52,8.71-2,11.32l.06,0c.48-2.6,1-6.4,2.11-11.24a202.37,202.37,0,0,1,13.65-42.21,207.22,207.22,0,0,1,37.77-57.07,209.18,209.18,0,0,1,71.58-50.1,203.45,203.45,0,0,1,99.39-15c4.42.36,8.82,1.1,13.25,1.67l6.61,1.24,3.32.61c.47.08-.19,0,0,0l.44.1.88.21,1.77.41,7.08,1.66c2.3.57,4.24,1.25,6.38,1.86,4.13,1.11,8.49,2.77,12.78,4.24a206.46,206.46,0,0,1,48.59,26,209.64,209.64,0,0,1,85.21,141l.85,7.05c.25,2.35.34,4.72.52,7.08s.37,4.72.41,7.08.23,4.73.19,7.1a216,216,0,0,1-2,28.38,207.5,207.5,0,0,1-44.48,102.9,211.1,211.1,0,0,1-90.37,64.77A207.59,207.59,0,0,1,1049.05,911c-4.54.28-9.09.72-13.62.68-2.26,0-4.53.12-6.79.08l-6.76-.24-1.7-.06-.84,0h-.42c-.22,0,.42.09-.06,0l-3.59-.32-7.16-.65c-4.35-.64-8.5-1-12.87-1.86-2.76-.49-5.5-1.06-8.23-1.64-55.79-19.16-101.21-52.42-133.79-102.82-32.26-49.88-45.43-106-52.81-163.88-5.54-43.48-6.16-87.19-4.17-131,3.2-70.57,10.67-140.7,19.45-210.73,5.71-45.62,14-91,13.27-137.18-.23-13.94-3.82-28.15-7.91-41.61-3.26-10.75-10.43-19.5-22.3-23.25-14.49-4.57-27.16-.9-39,7.41-16,11.27-26.63,27.19-35,44.32-30.38,62.47-61.92,124.46-89.7,188.08-44.25,101.39-85.84,204-128.6,306-3.61,8.63-7.44,17.18-11.17,25.77a124.14,124.14,0,0,1-1.54-26.74c2.33-45,4-90,7.65-134.9,3.95-48.45,9.61-96.77,15-145.11,4.6-41.44,10.07-82.8,14.72-124.24,5.74-51.16,11.6-102.32,16.15-153.59,1-11.64-1.37-24.36-5.25-35.52-9.84-28.29-44-36.65-67.06-17.42a96.72,96.72,0,0,0-27,36.29q-10.75,24.77-21,49.76C361.24,276.35,218.39,628.23,214.82,632.2c-1.64,1.83-4.33-5.64-6-18.54-.31-2.52-.59-5.24-.81-8.14,0-.49-.07-1-.1-1.47a212.89,212.89,0,0,1,2.92-51.86,19.38,19.38,0,0,0,.15-6.05c.73-3,1.49-5.72,2.23-8.17,1.75-5.83,3.38-10.21,4.23-12.71,4.86-14.39,6.84-49,4.19-54.19-1.51-2.91-4.87-19.17-7.91-34.57-.79-4-1.56-7.94-2.27-11.57-.55-2.82-1.07-5.45-1.53-7.79-.7-3.55-1.28-6.42-1.68-8.16a7.6,7.6,0,0,0-4.44-5.32,16,16,0,0,0-4.63-1.31,38.34,38.34,0,0,0-13.5.86,18.42,18.42,0,0,0-2.23.66c-2.24.91-13.13,3-23.1,4.89-6.95,1.3-13.46,2.46-16.29,3-6.86,1.29-11.43,12-.57,22.14a13.69,13.69,0,0,0,3.11,2.12c11.83,6.25,32.53-2.28,34.16.92-.53,2.11-1,4.39-1.39,6.7a119.8,119.8,0,0,0-1.66,14.4,53.63,53.63,0,0,0,.4,11.34,32.43,32.43,0,0,0-9.32,10.17,55.44,55.44,0,0,0-3.21,5.84l-.14.29-.19.43a20.16,20.16,0,0,0-.85,2c-3,7.85-1.62,17.69-.08,24.11.61,2.55,1.55,5.48,1.92,6.62a41.33,41.33,0,0,1-2.25,3.75c-7.23,10.41-18.45,16.53-29.53,15.63a25.08,25.08,0,0,1-8.86-2.39l-8.86-4.27-4.32-2.08L44.74,496.83c.57,2.82,1.19,5.77,1.82,8.73.17.82.32,1.59.5,2.42,4.46,20.7,45.8,56.74,56.05,66.82,5.26,5.16,15,28.49,23.3,50,7.84,20.36,14.34,39.09,14.38,39.2.51,2.16,1,4.3,1.52,6.42,6.29,26.55,11.3,50.11,11.63,63.6.3,12.79,4.31,24.84,13.34,34.51,8.5,9.08,20.63,10.15,28.92,1q1.16-1.27,2.28-2.61a77.73,77.73,0,0,0,12.69-21.18c9.28-23.86,17.09-48.27,25.82-72.34,54.64-150.59,118.57-297.2,188.39-441.28,9.36-19.33,19.25-38.4,28.9-57.59l1.6.59c-.09,1.17-.2,2.36-.28,3.53-7.76,106.54-16.12,213-23,319.62-3.7,57-5.45,114.23-7,171.39-.69,26.06.7,52.23,2.37,78.27.9,13.92,4.06,27.83,12.42,39.67,7.55,10.71,19.62,12.63,29.67,4.27,4.67-3.9,9.24-8.56,12.14-13.83,6.71-12.23,12.82-24.83,18.39-37.64,44.86-103,89.15-206.24,134.37-309.08,29.12-66.24,60.24-131.55,95.53-194.78,3.94-7.08,8.53-13.78,13.15-21.18-5,38.18-10.73,75.14-14.56,112.3-7.77,75.19-8.93,150.51-2.14,225.91,4.49,50,13.33,99.06,28.64,146.84,19.47,60.72,47.21,116.79,93.77,161.73,60.13,58.05,133.36,83.6,215.64,85.52a109.68,109.68,0,0,0,32.59-4l.72-.09c2.75-.45,5.48-1,8.24-1.5s5.51-1.06,8.24-1.74a236.68,236.68,0,0,0,64.18-25A239.28,239.28,0,0,0,1235,871"/><path class="cls-1" d="M28.1,424.54a25,25,0,0,0,4,2.54,26.63,26.63,0,0,0,3.66,1.48,12.09,12.09,0,0,0,6.85-.73c2.88-1.31,4.54-4,5.42-7.17a26.45,26.45,0,0,0,.82-5.83A55.8,55.8,0,0,0,48,403.77a64.61,64.61,0,0,0-1.48-6.67h0a30.93,30.93,0,0,0,8.62,4.67A30.28,30.28,0,0,0,59.84,403c.27.05.53.14.8.17,12-4.26,12.42-13.11,10.35-20.58-.16-.59-.33-1.17-.52-1.73A53.05,53.05,0,0,0,68,375c-.06-.14-.13-.26-.19-.39-1.06-2.22-3.9-6.8-6.38-8.55-1.32-.93-2.73-1.86-4-2.66C55.33,362,53.63,361,53.63,361l-.26-.12a9.74,9.74,0,0,0-7.73.23c-2.39,1-5.14,3.06-8,6.92-2.69,3.67-3.2,8.37-2,13.13a24.75,24.75,0,0,0,1.8,4.94A28.94,28.94,0,0,0,39.1,389a21.1,21.1,0,0,0-7.31-4.22c-4.85-1.43-10,.15-14,9-1.95,4.3-1.42,16.33,5.12,25.33a26.22,26.22,0,0,0,5.24,5.4"/><path class="cls-1" d="M142.55,393.77l5.29-1,5.27-1q5.88-11.65,11.76-23.32a2.22,2.22,0,0,1,2.07-1.46,37.1,37.1,0,0,0,19.53-7.12c12.4-9.11,17.82-21.42,16.4-36.74-.16-1.72-.48-3.43-.73-5.14q-.87-2.67-1.76-5.34c-1.18-2.21-2.36-4.41-3.68-6.86-2.85,5.66-5.52,11-8.22,16.36-1.87,3.72-3.74,7.44-5.7,11.13a2,2,0,0,1-1.37.88q-10.36.67-20.72,1.21a2,2,0,0,1-1.45-.72c-3.73-5.66-7.4-11.38-11.12-17a2.18,2.18,0,0,1-.19-2.55c2.84-5.55,5.62-11.13,8.44-16.69,1.69-3.34,3.41-6.66,5.3-10.34l-7.78,1.11L148.56,291a4.46,4.46,0,0,1-.71.45,39.66,39.66,0,0,0-23.06,43.35,38.27,38.27,0,0,0,6.31,15.36,1.72,1.72,0,0,1,.25,2q-8.84,17.43-17.6,34.91-18.42,36.57-36.83,73.12L36.48,440.72l.13-.29c-.81,0-1.61,0-2.45-.16l-.95-.14-.91-.28A37.21,37.21,0,0,1,27,437.73l-1.81,3.8A37.12,37.12,0,0,0,22,451.74c-1.14,11.12,3.94,15.92,7.06,17.79v0l102.31,49.27a13.49,13.49,0,0,0,4.71,1.27c.45,0,.91.05,1.37,0,5.87-.06,12.11-3.63,16.58-9.39-.19-.7-.37-1.41-.54-2.1a74.16,74.16,0,0,1-1.87-12.43l-34.56-16.64-6.52-3.14q11-22,22.09-43.94c-6-7.32-8.19-16-5.89-23.91a20.54,20.54,0,0,1,15.8-14.76"/><path class="cls-1" d="M1060.74,707c6.66-10.57,75-166.53,75-166.53s-111.16,128.87-117.81,139.43-2.46,25.19,9.39,32.67,26.83,5,33.47-5.57m-26.29-25a12,12,0,1,1-4.41,16.42,12,12,0,0,1,4.41-16.42"/></g></svg>