<svg xmlns="http://www.w3.org/2000/svg" xmlns:xlink="http://www.w3.org/1999/xlink" viewBox="0 0 75.32 75.57"><defs><style>.cls-1{fill:url(#Dégradé_sans_nom_17);}.cls-2{fill:#fff;}</style><linearGradient id="Dégradé_sans_nom_17" x1="3.69" y1="31.99" x2="72.91" y2="42.18" gradientUnits="userSpaceOnUse"><stop offset="0" stop-color="#3b5999"/><stop offset="1" stop-color="#223458"/></linearGradient></defs><title>3Plan de travail 4</title><g id="Traits_de_coupe" data-name="Traits de coupe"><ellipse class="cls-1" cx="38.3" cy="37.09" rx="34.98" ry="34.91"/><path class="cls-2" d="M27.36,51.2a19.18,19.18,0,0,0,9.41,2.68c7.4,0,9.68-4.71,9.62-8.24-.07-6-5.43-8.5-11-8.5H32.2V32.82h3.2c4.19,0,9.48-2.16,9.48-7.19,0-3.4-2.15-6.41-7.45-6.41A15.59,15.59,0,0,0,28.93,22l-1.51-4.19a20.27,20.27,0,0,1,11.12-3.27c8.37,0,12.17,5,12.17,10.14,0,4.38-2.62,8.11-7.85,10v.13c5.23,1,9.48,5,9.48,10.92,0,6.8-5.3,12.76-15.5,12.76a21.63,21.63,0,0,1-11.05-2.88Z"/></g></svg>