<svg xmlns="http://www.w3.org/2000/svg" viewBox="0 0 155.91 141.62"><defs><style>.cls-1{fill:#fff;}</style></defs><title>Plan de travail 2</title><g id="Traits_de_coupe" data-name="Traits de coupe"><path class="cls-1" d="M70.92,133.05a49.5,49.5,0,1,1,.25-99c27.14,0,49.36,22.48,49.31,49.8A49.39,49.39,0,0,1,70.92,133.05ZM71,125.5A41.93,41.93,0,1,0,29.11,83.28,41.83,41.83,0,0,0,71,125.5Z"/><path class="cls-1" d="M102.65,37.94c.3-.35.76-.94,1.28-1.46q10.59-10.62,21.2-21.21a9.83,9.83,0,0,1,10.58-2.58,9.56,9.56,0,0,1,6.77,8A9.24,9.24,0,0,1,140,29c-7.42,7.56-14.94,15-22.43,22.52a3.93,3.93,0,0,1-.81.56Z"/><path class="cls-1" d="M25.24,52.94c-4.69-1.14-4.77-1.14-4.95-5.83-.09-2.24.18-4.49.26-6.74.06-1.6.77-2.59,2.46-2.58,1.48,0,2.1-.85,2.5-2.13a16.11,16.11,0,0,1,1.34-3.33c.93-1.61,1.08-2.94-.24-4.49a2.64,2.64,0,0,1,.11-2.55,90.53,90.53,0,0,1,7.48-7.44c.54-.48,2,0,3,.12a13.93,13.93,0,0,0,3.27.18c1-.16,1.89-.92,2.89-1.2,1.94-.54,3.46-1.27,3.52-3.68a2.24,2.24,0,0,1,1.63-1.44c3.66-.14,7.34-.18,11,0,.66,0,1.64,1.26,1.77,2.05a2.86,2.86,0,0,0,2.3,2.65,13.23,13.23,0,0,1,3.33,1.35c1.6.94,3,1.14,4.51-.2a2.42,2.42,0,0,1,2.36.06c2.64,2.43,5.2,5,7.6,7.63a2.66,2.66,0,0,1,0,2.54,3.77,3.77,0,0,1-2.46,1.24,17.11,17.11,0,0,1-3.67-.42,8.7,8.7,0,0,1,.8-2.09c1-1.27.81-2.24-.31-3.35s-2-1.21-3.14-.27-2,.57-3.27,0c-3.44-1.61-7-3.06-10.54-4.32-1.33-.47-2.14-1.05-2.23-2.4-.12-1.62-1.13-1.92-2.48-1.91s-2.43.2-2.54,1.85-1.21,2-2.63,2.51A85.85,85.85,0,0,0,39,22.87c-1.36.67-2.4,1.16-3.66.1s-2.13-.54-3.12.44-1.27,2-.26,3.12.52,2.19-.1,3.46a73.75,73.75,0,0,0-4.15,9.9c-.52,1.66-1,2.7-2.8,2.88-1.47.15-1.7,1.22-1.69,2.47s.36,2.08,1.8,2.38c2.88.62,3.11,1.37,1.39,3.75Z"/><path class="cls-1" d="M33.39,42.4c1.41-8,5.73-13.77,13.41-16.68,6.79-2.57,13.25-1.56,19.17,2.5l0,.86c-1.83-.11-3.8.18-5.46-.4A17.86,17.86,0,0,0,37.52,38.76c-.71,1.63-2.27,2.89-3.44,4.32Z"/><path class="cls-1" d="M96.89,56.23c.76.81,1.6,1.57,2.3,2.45,1.34,1.69.51,4.09-1.59,4.21-2.42.15-3.61,1.25-4.18,3.54A19.83,19.83,0,0,1,91.49,71a2.73,2.73,0,0,0,.42,3.66c1.57,1.54,1.37,3.07,0,4.52q-4.26,4.32-8.62,8.56c-1.19,1.16-2.52,1.34-3.78.08-1.48-1.48-2.92-1.34-4.65-.34a25.4,25.4,0,0,1-5,2.08,2.82,2.82,0,0,0-2.3,2.91c0,2-1,3-3.06,3-4,0-8.09,0-12.13,0-1.88,0-3-.81-3-2.8a3,3,0,0,0-2.55-3.19,14.07,14.07,0,0,1-3.56-1.41c-2.3-1.37-4.42-2.12-6.66.2-.36.37-2.27,0-2.32-.2-.35-1.84-1-3.89-.44-5.55.57-1.82,3.91-2.33,5.43-1.27a31.86,31.86,0,0,0,13.2,5.53c1.91.31,2.84,1.26,2.94,3.06.12,2.11,1.51,2.33,3.13,2.32s2.85-.27,3-2.25,1.12-2.84,3.11-3.16A29.76,29.76,0,0,0,77.33,81.4c1.46-1.05,2.7-1.16,4.06,0,1.56,1.3,2.77.79,4.09-.52s1.36-2.54.18-3.91-1-2.47,0-3.84a31,31,0,0,0,5.49-13.44,2.66,2.66,0,0,1,2.4-2.53C94.6,57,95.58,56.59,96.89,56.23Z"/><path class="cls-1" d="M51.11,115.46c-.86-.58-1.75-1.12-2.57-1.75-1.3-1-2.55-2.07-4-3.24a37.08,37.08,0,0,1,9.85-9.63,3.3,3.3,0,0,1,2.94.48,3.57,3.57,0,0,0,4.51.3,25.28,25.28,0,0,1,5-2.07c1.68-.51,2.58-1.45,2.56-3.2s1-2.75,2.78-2.75c4.19,0,8.38,0,12.57,0,1.81,0,2.8.84,2.78,2.75a3,3,0,0,0,2.54,3.21,26.16,26.16,0,0,1,5.18,2.17c1.55.85,2.81.84,4.08-.36,1.63-1.54,3.06-1.23,4.56.71l-4.69,6.56c-.74-.42-1.26-.68-1.73-1a32,32,0,0,0-13-5.42c-1.75-.28-2.78-1-2.89-2.83-.13-2.08-1.39-2.58-3.22-2.55s-2.94.49-3,2.48c-.09,1.77-1,2.61-2.82,2.89a30.09,30.09,0,0,0-13,5.43c-1.45,1-2.69,1.24-4,.08-1.54-1.32-2.74-.89-4.07.45s-1.31,2.44-.25,3.93a10.26,10.26,0,0,1,.94,3Z"/><path class="cls-1" d="M79.35,47.26c3.67.05,4.19.5,4.58,3.82a25.68,25.68,0,0,1-45,19.68c-2.45-2.86-2.46-3.09,0-6.41C46.47,75.18,56.3,79.17,68.64,73.2,77.9,68.72,81.3,59.82,79.35,47.26Z"/><path class="cls-1" d="M58.64,118.89c7.23-10.2,24.16-12.64,34.08-5.08-2.07,2.41-2.55,2.47-5.42,1.27-8.32-3.45-16.12-2.41-23,3.43C62.28,120.28,60.76,120.05,58.64,118.89Z"/></g></svg>