<svg xmlns="http://www.w3.org/2000/svg" viewBox="0 0 155.91 141.62"><defs><style>.cls-1{fill:#fff;}</style></defs><title>Plan de travail 2</title><g id="Traits_de_coupe" data-name="Traits de coupe"><path class="cls-1" d="M63.69,70.55c-1.82-1.66-3.69-3.26-5.45-5q-4.79-4.66-9.45-9.45A3.73,3.73,0,0,0,45.06,55,20.54,20.54,0,0,1,20.33,34.44a3.75,3.75,0,0,1,2.32-3.88,3.83,3.83,0,0,1,4.56,1c2.16,2.25,4.42,4.41,6.61,6.64.74.76,1.45,1.25,2.42.37a1.38,1.38,0,0,1,.62-.3c4.38-1,6.55-4,7.71-8.08a2.07,2.07,0,0,0-.44-2.44c-2.15-2.11-4.21-4.31-6.37-6.39-1.39-1.34-2-2.81-1.26-4.67s2.3-2.4,4-2.4c11.7,0,19.6,8.62,20.62,17.57.3,2.59-.21,5.26-.22,7.9a3.83,3.83,0,0,0,.69,2.47C67.78,48.54,74,54.74,80.22,61a5.35,5.35,0,0,0,.69.49c.49-.45,1-.89,1.48-1.37Q102.76,39.7,123.1,19.29a22.64,22.64,0,0,1,7.23-4.64c1.93-.84,3.39,0,4.66,1.34s2.08,2.82,1.09,4.53c-1.37,2.38-2.63,5-4.53,6.87-13.58,13.75-27.3,27.35-41,41-.45.44-.83.93-1.42,1.61,1.91,1.85,3.79,3.62,5.62,5.45Q101.37,82,107.9,88.6a3.49,3.49,0,0,0,3.67,1.15,20.39,20.39,0,0,1,24.62,18,13.53,13.53,0,0,1,0,3.76,3.57,3.57,0,0,1-5.87,2.18c-2.26-1.88-4.29-4-6.36-6.13s-1.87-1.74-4.57-.94c-3.87,1.16-5.74,3.75-6.95,7.34-.54,1.59-.55,2.55.77,3.71,2.16,1.91,4.12,4,6.17,6.09a3.72,3.72,0,0,1-2.74,6.46,20.44,20.44,0,0,1-21.34-22,8.59,8.59,0,0,1,.37-2.39c.67-1.76-.06-2.92-1.28-4.12-4.32-4.27-8.58-8.6-12.87-12.91-.51-.51-1.07-1-1.91-1.75,0,3.6-2.13,5.54-4.19,7.59Q60,110,44.59,125.44a15.53,15.53,0,0,1-8.94,4.87A13.8,13.8,0,0,1,22.29,124a13.56,13.56,0,0,1,.22-14.58A12.71,12.71,0,0,1,24,107.56C35.61,96,47.17,84.39,58.84,72.91,59.93,71.84,61.71,71.48,63.69,70.55Zm6.72-3c-.19,1-.4,2.08-.59,3.15-.42,2.37-1.44,3.63-3.76,3.9a11.79,11.79,0,0,0-7.38,3.91C48.23,89.12,37.59,99.58,27.09,110.2c-5.17,5.23-3.17,13.24,3.8,15.57a9,9,0,0,0,9.71-2.41q17.15-17,34.24-34A2.86,2.86,0,0,0,75.46,88c.24-1.22.42-2.46.58-3.7a3.72,3.72,0,0,1,3.17-3.4c1.36-.23,2.76-.29,3.84-.4ZM24.5,34.58c.26,5.13-.21,4,2.56,9.05,2,3.65,5.26,5.7,9,7.08A14.52,14.52,0,0,0,44.9,51a6.27,6.27,0,0,1,6.44,2c3.13,3.16,6.25,6.33,9.4,9.48,1.7,1.7,3.44,3.35,5.33,5.18.16-.67.26-1.1.36-1.53a3.84,3.84,0,0,1,5.27-2.92A10.36,10.36,0,0,1,74.39,65c.81.67,1.46,1.65,2.57.5s.39-1.75-.44-2.57C70.62,57,64.77,51.09,58.9,45.19A6.36,6.36,0,0,1,57,38.91c1.36-6.36-.23-11.92-5.1-16.36a15.9,15.9,0,0,0-11-4.11,3,3,0,0,0,.31.65c1.62,1.64,3.2,3.32,4.88,4.91,3.36,3.17,3.5,4.28,1.89,8.47s-3.69,7.41-8.38,9c-5.87,2-5.73,2.39-10.17-2Zm91.33,91.35c-2.41-2.44-4.65-4.76-7-7a3.68,3.68,0,0,1-1-4c.9-2.67,2-5.29,3-7.89a3,3,0,0,1,1.32-1.5c2.73-1.25,5.51-2.38,8.27-3.55a3.49,3.49,0,0,1,3.91.51c2.25,2,4.38,4.23,6.57,6.36l1.28,1.28c-.31-4.39-1.29-8-3.78-11-4.25-5-9.76-6.82-16.18-5.5a7.08,7.08,0,0,1-7-2.19c-5.63-5.74-11.37-11.37-17.07-17-.56-.56-1.14-1.09-1.69-1.61-2.1,1.65-2.1,1.64-.63,3.55.46.6.89,1.21,1.31,1.83a3.8,3.8,0,0,1-1.8,5.85c-.56.22-1.14.4-1.86.65,2,2.15,3.82,4.21,5.73,6.18,3,3.06,6,6,9,9.1a5.71,5.71,0,0,1,1.58,5.57A16.91,16.91,0,0,0,101.39,118C104.36,123.37,110.18,126.66,115.83,125.93ZM132.1,19.21l-.59-.44a2.18,2.18,0,0,0-.79.19,40.74,40.74,0,0,0-5.54,4q-22.7,22.56-45.25,45.26c-.4.4-.76.83-1.12,1.22C80.66,72,81,72,83,70.07c2.73-2.65,5.56-5.21,8.25-7.9q19-19.11,37.93-38.3C130.45,22.59,131.15,20.77,132.1,19.21Z"/></g></svg>