<svg xmlns="http://www.w3.org/2000/svg" viewBox="0 0 155.91 141.62"><defs><style>.cls-1{fill:#fff;}.cls-2,.cls-3{fill:none;stroke:#fff;stroke-miterlimit:10;}.cls-2{stroke-width:2.5px;}.cls-3{stroke-width:2px;}</style></defs><title>Plan de travail 2</title><g id="Traits_de_coupe" data-name="Traits de coupe"><path class="cls-1" d="M61.77,131.65a3,3,0,0,1-1.58-3c.05-8.43,0-16.86,0-25.3,0-2.29.73-3,3.16-3q13.29,0,26.57,0a17.84,17.84,0,0,1,1.88.19L78.55,113.2c-1.32-1.33-2.75-3-4.37-4.39a7.15,7.15,0,0,0-10.59,1.35,6.25,6.25,0,0,0,.73,8c3.26,3.22,6.58,6.4,10,9.5a7.14,7.14,0,0,0,9.75-.31c2.93-2.74,5.8-5.55,8.89-8.51,0,.55.11.88.11,1.21,0,2.87-.05,5.75,0,8.63a3,3,0,0,1-1.57,3Z"/><path class="cls-2" d="M53.63,73.45c.43-2.36.82-4.55,1.22-6.74.89-4.94,1.76-9.9,2.7-14.84a4.6,4.6,0,0,0-1.63-4.52q-6-5.49-12-11c-.3-.27-.61-.54-.9-.83A2.17,2.17,0,0,1,42.33,33a2.43,2.43,0,0,1,2.17-1.58L62.28,29a5,5,0,0,0,4.08-2.8c2.55-4.94,5.16-9.85,7.71-14.79.55-1,1.13-2,2.51-2s2,.93,2.56,2c2.33,4.51,4.85,8.94,7,13.53,1.33,2.84,3.36,4.06,6.51,4.39,5.41.57,10.78,1.41,16.17,2.15A2.44,2.44,0,0,1,111,33.07a2.26,2.26,0,0,1-.87,2.56C106,39.38,102,43.18,97.83,46.85a5.76,5.76,0,0,0-2,6c1.32,6.62,2.46,13.26,3.67,19.9,0,.15,0,.31,0,.63-.43-.19-.79-.33-1.13-.5-6.24-3.1-12.49-6.16-18.7-9.32a6.13,6.13,0,0,0-6,0c-6.16,3.15-12.39,6.18-18.59,9.26C54.65,73,54.24,73.18,53.63,73.45Z"/><path class="cls-2" d="M107.12,59.72c3,.19,5.82.33,8.61.56a4.94,4.94,0,0,0,4.53-1.79c1.69-2,3.39-4.06,5.07-6.1a2.68,2.68,0,0,1,2.75-1.28,2.61,2.61,0,0,1,2,2.24c.63,2.51,1.34,5,2,7.52a4.56,4.56,0,0,0,3.22,3.37c2.44.83,4.87,1.69,7.31,2.51,1.19.4,2.31.84,2.44,2.25s-.81,2-1.85,2.59c-2.21,1.3-4.38,2.66-6.6,3.94a4.62,4.62,0,0,0-2.51,4.25c0,2.51-.19,5-.31,7.54a2.44,2.44,0,0,1-1.53,2.52,2.73,2.73,0,0,1-2.86-.7c-2-1.61-4-3.15-6-4.77a5.26,5.26,0,0,0-5.23-1.1c-2.62.79-5.31,1.41-8,2.15a2.44,2.44,0,0,1-2.62-.66,2,2,0,0,1-.36-2.44,15.05,15.05,0,0,1,1.61-2.48A4.36,4.36,0,0,0,110,76.19c-.89-5.06-1.81-10.12-2.71-15.19C107.23,60.62,107.19,60.24,107.12,59.72Z"/><path class="cls-2" d="M48.75,58.08c-.33,1.89-.64,3.64-1,5.39q-1,5.49-2,11a4.7,4.7,0,0,0,1.42,4,7.25,7.25,0,0,1,1.56,3.15c.29,1.47-1.43,2.6-3.07,2.18-2.67-.68-5.35-1.31-8-2.12a5.34,5.34,0,0,0-5.44,1.15c-1.92,1.61-3.94,3.11-5.88,4.7a2.7,2.7,0,0,1-2.87.66,2.4,2.4,0,0,1-1.49-2.42c-.12-2.56-.28-5.11-.32-7.67a4.62,4.62,0,0,0-2.53-4.24c-2.22-1.29-4.39-2.65-6.61-3.94-1.06-.62-1.91-1.32-1.72-2.65s1.14-1.67,2.21-2c2.48-.85,4.94-1.75,7.41-2.61a4.67,4.67,0,0,0,3.29-3.47c.62-2.52,1.32-5,2-7.53a2.5,2.5,0,0,1,4.62-1c1.71,2.07,3.45,4.12,5.15,6.2a4.92,4.92,0,0,0,4.51,1.82C42.87,58.41,45.68,58.28,48.75,58.08Z"/><path class="cls-3" d="M85.59,127.11l20.1-19c2.93-2.78,4.18-6,2.15-9.7C105,93,98.63,92.72,93.33,97.72l-12.68,12"/></g></svg>