<svg xmlns="http://www.w3.org/2000/svg" viewBox="0 0 535 459"><defs><style>.cls-1{fill:#346bb3;}</style></defs><title>Plan de travail 4</title><g id="Traits_de_coupe" data-name="Traits de coupe"><path class="cls-1" d="M461.46,151.65c-1.59-2.87-11.71-11.94-14.25-14-15.25-12.34-30.64-24.52-46-36.73-2.32-2.16-18.62-15-21.11-16.92-10.55-8.22-19.83-7.29-28.2,3.11-16.82,20.9-36.57,46.35-53.48,67.18-.37.45-2.56.34-7.23-.71-12.12-2.72-24.3-6-36.61-6.81a512.57,512.57,0,0,0-53.32-.23A116.28,116.28,0,0,0,155.65,158c-7.29,3.46-14.11,7.91-21.52,12.17a.47.47,0,0,1-.67-.21c-.7-1.51-1.46-3.1-2.12-4.72q-5.86-14.33-11.67-28.66c-2.42-6-2.44-6,3.59-8.47q68.18-28,136.37-56c5.18-2.13,10.4-4.12,15.88-6.28a.47.47,0,0,1,.61.26l25.52,61.71a.48.48,0,0,0,.82.11c4.43-5.67,8.15-10.69,12.2-15.43,2.28-2.68,2.35-5,1-8.15C308.36,86.88,301.24,69.28,294,51.72c-6.07-14.79-9.12-16.06-23.71-10.07Q186.69,76,103,110.29c-11.44,4.7-13.25,9-8.55,20.53q12,29.35,24,58.71c2.82,6.91,2.81,6.89-3.56,10.38A79.36,79.36,0,0,0,88.77,222.3c-2.23,3-.87,1-5.82,8.63a.41.41,0,0,1-.08.1c-9.79,11.2-13.24,51.17-4.41,68.92.05-.12.16-.25.16-.37,0-2.67,0-5.33,0-8a64.42,64.42,0,0,1,18.08-45.76C112.57,229,133,220.89,155.23,217.14a152.4,152.4,0,0,1,59.07,1.56c3.51.78,7,1.74,9.93,2.48h.09c3.37,0,32.15,12.4,44.24,16.77,18.47,8.24,10.44,2.16,9.3,2s-2.11-1-1.74,1.12c20.93,11.24,42.71,27.09,57.62,45.34s25.6,38.27,27.13,62.06c1.75,27.19-9.66,48.33-31.88,63.77-3.48,2.42-7.23,4.45-11.08,6.74a.49.49,0,0,0,.08.87c15.7,6.29,59.57-26.15,67.06-49.62l0-.08c4.88-8.39,6.54-22.06,6.65-26.45.39-15.07-1.75-29.5-7.65-43.35a8.17,8.17,0,0,1-.65-2.07.55.55,0,0,0-.06-.18c-2-2.92-11.88-21.8-13.5-23.61-2.64-2.94-2.23-5.28.3-8.16,4.18-4.75,8-9.84,11.91-14.8s13.93-17.4,18.67-23.37c14.71-18.39,41.89-52.05,56.43-70.21a.46.46,0,0,0,.1-.35.32.32,0,0,0,.23-.06C460.82,154,462.1,152.8,461.46,151.65ZM90.11,223a8.21,8.21,0,0,1,.78.55C90.54,223.78,90.32,223.43,90.11,223Zm346.68-69.47s0-.05,0-.07S436.78,153.51,436.79,153.53ZM390,121.8c.38-.74,2.73-1.4,3.34-.94,5.67,4.26,11.08,8.87,16.67,13.25,1.09.85,1.62,2.84.76,3.58-1.66,2.38-4.31.79-5.37,0a186.55,186.55,0,0,1-15.15-12C389.47,125,389.43,122.83,390,121.8Zm42.44,53.08c-1.14,1.59-2,2.85-2.93,4-10,12.51-19.53,25.37-30.1,37.36a17.65,17.65,0,0,0-1.21,1.54c-10,12.53-27.29,34.38-36.15,45.42a.47.47,0,0,1-.72,0c-24.26-28-53.93-47-87.72-61.12a.48.48,0,0,1-.19-.73c3.37-4.4,9.3-12,12.18-15.77.17-.23-4-2.76-4.28-2.88-5.26-2.39-4-4-7.37,1.66-.77,1.29-7.21,9-7.91,10.28-1.77,3.32-4,3.34-7.39,2.23-36.81-12-74.21-17-112.59-8.53-3.4.75-5.69.35-6.73-3.54a62.87,62.87,0,0,0-3.38-8.12.49.49,0,0,0-.64-.24l-10.11,4.76a.47.47,0,0,1-.62-.66,11.64,11.64,0,0,1,4.78-5c8.65-4.15,17.54-7.79,26.24-11.82,2-.92,13.17-4.17,17.07-3.83a1.34,1.34,0,0,0,.59,0h.09a188.73,188.73,0,0,1,51.17,1.79c33.07,5.61,63.62,17.84,92.5,34.5a10,10,0,0,1,4.13,6.62c1.68,14.67,12.28,26.9,26.95,28.72,10.39,1.29,13.33,1.19,15.53-7.38a.5.5,0,0,0-.24-.55c-4.75-2.57-9.65-5.1-14.39-7.89a10.34,10.34,0,0,1-4.13-4c-2.45-5.36-3.51-10.54-.56-16.07,4.5-8.43,15.23-11.25,23.59-6.62,3.67,2,7.37,4,11,6a.49.49,0,0,0,.62-.16c4.16-6.14,4.15-6.88.5-12.57-7.71-12-20.29-17.07-32.24-14-8.47,2.19-14.69.37-21.59-2.82-1-.48-12-5.3-17.43-7.62a.47.47,0,0,1-.18-.73l39.6-49.5a.48.48,0,0,1,.67-.08l83.5,66.69A.49.49,0,0,1,432.39,174.88Z"/><path class="cls-1" d="M340.61,342.51c1.76,30.36-17.31,52.31-44.9,62.22-18.8,6.75-38.19,8.1-58,6.35a177.48,177.48,0,0,1-92.43-35.19C126.46,361.81,110.78,345,103.17,322c-6.54-19.7-5-38.38,8-55.3,5-6.58,11.76-11,18.79-14.21-4,6.36-9,12.49-12.06,19.45-8.17,18.41-4.19,36.18,4.86,53.14,13,24.3,33.32,40.91,57.4,53.12,26.53,13.45,54.71,20.66,84.63,19.14,18.33-.93,35.86-5.15,51.26-15.8,12.44-8.6,20.72-20.05,23.37-35.2a14.33,14.33,0,0,1,.55-1.91C340.11,343.89,340.32,343.34,340.61,342.51Z"/><path class="cls-1" d="M334.89,297.46c-5.33,6.63-13.59,16.66-18.69,23.41-2.35,3.11-4.06,3.32-7.15.83-25.18-20.28-50.5-40.39-75.76-60.56-1.51-1.21-2.88-2.59-4.35-3.92,3.88-4.83,13.07-16.53,17.22-21.62-4.65-1.78-10.46-5.36-11-4.46-6,8-20.25,27.23-24.81,33-9.06,11.43-8.2,20.58,3.12,29.65q33.15,26.6,66.42,53c10.52,8.36,20.2,7.22,28.63-3.25,8.26-10.25,23.08-27.74,30.93-38.31C341.14,303,340.54,303.19,334.89,297.46Zm-75.64,20.87a12,12,0,1,1,11.91-12.13A12.09,12.09,0,0,1,259.25,318.33Z"/><path class="cls-1" d="M136.31,232.76c5.75-1.74,10.73-3,15.53-4.77,3.68-1.34,5.22-.21,6.65,3.29,12.31,30.22,24.81,60.37,37.25,90.54l9.17,22.29c4.11-1.63,7.92-3.13,11.71-4.65,2-.81,4-1.7,6-2.47,5.26-2,10.84-6.11,15.72-5.4s9.11,6.21,13.59,9.65c2.21,1.71,4.34,3.53,7,5.69-1.81.94-3,1.7-4.35,2.24C239,355.59,223.5,362,207.93,368.36c-10.4,4.23-14.87,2.35-19.14-8-7.93-19.23-22.28-54.31-30.24-73.72,4.89-2.84,7.93,3.52,8.19,5.26.16,1.08-3.47-1.44-6.9-2.16Z"/></g></svg>