<svg xmlns="http://www.w3.org/2000/svg" viewBox="0 0 351.57 343.91"><defs><style>.cls-1{fill:#346bb3;}</style></defs><title>Plan de travail 4</title><g id="Traits_de_coupe" data-name="Traits de coupe"><path class="cls-1" d="M320.72,190.1q-48.87-49.29-97.61-98.7c-9.06-9.16-17.74-18.86-30.26-23.55A238.9,238.9,0,0,0,115,53.43c-3.64-.83-6,0-2.81-.13-.79.75-6.41-3.61-7.53-4.39-2.72-1.88,6.11,7.51,7.15,4.58C109.71,52,96.51,40.4,94.34,38.87c-.8,1-2.67.34-4.34.34-4.34,0,2.84,2.62,4.34-.34-3.52-2.7-15.52-12.7-18.68-15.79-4.94-4.84-10.39-8.22-17.57-8.2-14-.11-22.58,8.45-28.83,19.3-5.64,9.8-3.38,20.24,6.16,29.38S50.77,75.89,58.64,86c1.07,1.38-.57,12.4-.8,14-2.18,14.78-.39,29.39,1.79,44,4.78,31.85,16.41,60.11,41.21,82.12,22.21,19.72,42.63,41.31,63.22,62.72,12,12.45,24.1,24.73,36.53,36.71,8.06,7.77,13.85,7.44,22.27-.07,1.38-1.22,2.7-2.51,4-3.81q47-47.25,94-94.52C337.4,210.46,337.24,206.77,320.72,190.1ZM98.11,95.88c4.42,4.8,7.91,4.88,10.68-1.63,1.65-3.9,4.15-2.8,6.36-.44a10.37,10.37,0,0,1,2.47,7.66c.09,6.94-3.07,11-8.69,13.33-5.35,2.27-9.9.56-13.92-2.93-4.56-4-4.8-9.13-3.25-14.5C92.92,93.33,95.21,92.72,98.11,95.88ZM57,65.64C52,60.91,47.15,56,42.38,51c-3.42-3.57-3.33-7.35.08-11A15.54,15.54,0,0,1,44.4,38.1c5.18-3.83,8.37-13.25,15.37-11,9.1,2.94,14.7,11.93,20.79,19.35a4.59,4.59,0,0,1,.57,1.76A6.41,6.41,0,0,1,79,53.34q-6,6.15-12.19,12.18C63.66,68.61,60.16,68.6,57,65.64Zm259.31,151.3q-48.06,48.66-96.27,97.18c-6.7,6.75-10.23,6.84-16.83.11q-57.09-58.17-114-116.56a22.51,22.51,0,0,1-4.64-6.8c-11-26.38-18.5-53.53-16.82-82.51a102.63,102.63,0,0,1,3-21.14A27.91,27.91,0,0,1,82,71.12c3.77-2.59,7.23-2.77,10.19,1.28s2,6.94-1.58,10.12c-11.44,10.18-13.45,21.72-6.1,33.06,5.58,8.62,14.52,12.14,25.27,9.93,10.09-2.08,16-8.77,18-20.2,1.67-9.72-2.28-18.55-10.73-23.52-4.14-2.43-8.93-3.93-11.64-8.32-1.29-2.1-3.31-4.17-2-6.92s4-2.71,6.59-2.76c3,0,6,0,9,0,24.88.43,48.92,5,71.89,14.82a42.65,42.65,0,0,1,13.66,9.17q55.94,56.42,111.88,112.82C322.74,207,322.74,210.46,316.33,216.94Z"/><path class="cls-1" d="M220.55,164c3.11-4.46,3.42-7.95-1-12s-7.77-7.29-14-2.62c-11.8,8.77-24.11,16.85-36.21,25.21q-11.07,7.65-22.15,15.27c-2.93,2-3.77,4.54-1.56,7.62,2,2.84,4.52,2.78,7.2,1,2.11-1.4,4.16-2.88,6.25-4.29,2.46-1.65,4.94-3.27,7.42-4.91a31.25,31.25,0,0,1,12.18,10.31c2.49,3.34.45,6-1.35,8.75-2.16,3.26-4.34,6.5-6.32,9.87-1.38,2.35-.6,4.47,1.54,6a4.57,4.57,0,0,0,6.28-.29,22.77,22.77,0,0,0,3-3.76C194.73,201.51,207.56,182.71,220.55,164ZM180.44,179.6c7.64-5.36,15.61-10.26,23.43-15.36l1.85,1.72c-5.2,8-10,16.25-15.73,23.83-3.22,4.27-6.06-.16-8.36-2.29S176.37,182.46,180.44,179.6Z"/><path class="cls-1" d="M159.38,152.38c-.59-2.7-1.51-5.32-2.16-8-1.14-4.69-2.54-9.36-3.21-14.12-1.31-9.32,6.12-15.55,15.13-13a13.73,13.73,0,0,1,9.41,17.84c-1.29,3.85-1.38,6.91,2.77,8.52,4.37,1.68,5.75-1.86,6.88-4.83,3.42-9,1.67-17.17-4.8-24.29-7.06-7.77-15.84-10.21-25.71-7.13-9.29,2.9-13,10.37-13.86,19.53a37.63,37.63,0,0,0,2.3,16.27c1.59,4.55,3.29,9.08,3.4,14,.21,9.58-3.78,14.52-11.74,14.29-8.28-.25-13.7-6.6-13-15.37.15-1.81.76-3.59,1.08-5.4.57-3.26-1-5.38-3.93-6.4-3.18-1.1-4.6,1.08-5.73,3.54a19.61,19.61,0,0,0-1.57,8.75c-.08,10.32,4.87,19.12,13.39,23.2,8.13,3.89,16.29,3.63,23.47-2C159.88,171.37,161.58,162.35,159.38,152.38Z"/><path class="cls-1" d="M271.07,202.09c-3.63-3.49-7.79-2.59-11.11.68q-25.78,25.42-51.4,51c-1.79,1.78-2.95,3.56-.9,5.92,5.58,6.41,11.07,12.9,16.74,19.23,2,2.28,4.52,2.08,6.7.05s2.72-4.22.73-6.69q-1.29-1.62-2.61-3.21c-8.86-10.69-8.82-11.8.78-21.52,7.62-7.73,9.12-7.81,16.45-.08,2.62,2.75,5.22,3.83,8.35,1.24,3.46-2.88,1.78-5.43-.54-8.19-7.88-9.4-7.83-9.47.76-18.22,1.93-2,3.93-3.88,6-5.66,4.06-3.43,7.77-3.28,11.22,1.1a42.88,42.88,0,0,0,7,7.55c3.09,2.41,7.85-.18,8.09-4.61a11.42,11.42,0,0,0-1.59-3.1C281,212.34,276.2,207,271.07,202.09Z"/><path class="cls-1" d="M200.21,239.92c-7.1-6.72-7.18-8.76-.31-15.68q19.93-20.06,39.93-40.05c1.61-1.62,3.53-3.05,3.46-5.69-.1-2.33-1.46-3.79-3.36-4.86a3.91,3.91,0,0,0-5,.73c-2.12,2.1-4.08,4.37-6.19,6.48Q207,202.59,185.31,224.3c-3.24,3.26-7.33,6.75-3.37,11.76,4.45,5.64,10.58,9.49,16.49,13.46a3.77,3.77,0,0,0,5.07-.52c1.66-1.77,1.47-3.82.08-5.64A30.38,30.38,0,0,0,200.21,239.92Z"/></g></svg>