<svg xmlns="http://www.w3.org/2000/svg" viewBox="0 0 222.38 207.32"><defs><style>.cls-1{fill:#fff;}</style></defs><title>Plan de travail 7</title><g id="Traits_de_coupe" data-name="Traits de coupe"><path class="cls-1" d="M208.48,103.73q0,32,0,63.91c0,12.86-9.67,25-21.89,27.06-9.87,1.64-19.8,3-29.75,4.11a386,386,0,0,1-45.74,2.25,417.38,417.38,0,0,1-58.24-4.46c-4.11-.61-8.29-1-12.31-2-10.68-2.58-17.35-9.54-20.47-19.93a26.25,26.25,0,0,1-1-7.44Q19,103.67,19,40.07c0-12.57,8.5-24,20.49-27A146.59,146.59,0,0,1,55,10.47a412.64,412.64,0,0,1,46.44-4,342.52,342.52,0,0,1,43.81,1.1c13.5,1.33,27,3.12,40.4,4.94,10.62,1.43,20.06,10.8,22.11,21.6a37.3,37.3,0,0,1,.66,6.84Q208.53,72.34,208.48,103.73ZM106.75,107.5v-2.22c0-9.2,0-18.4,0-27.6,0-10.34,7.56-14.47,15.74-13.45.52.06,1,.07,1.75.12,0-5.11,0-10,0-14.95a1.32,1.32,0,0,0-.87-.88c-6.77-.87-13.36-.19-19.43,3-9.42,5-13.52,13.42-14,23.71-.29,6.94,0,13.9-.11,20.85a2.22,2.22,0,0,0,1.32,2.19c4.44,2.58,8.85,5.23,13.27,7.85C105.06,106.55,105.71,106.91,106.75,107.5Zm48.52,62.72c-.27-.9-.45-1.57-.68-2.23-1-2.79-1.94-5.56-2.91-8.35-2.12-6.09-4.22-12.18-6.35-18.26-1.33-3.78-2.75-4.77-6.66-4.74-3.15,0-4.61,1.08-5.83,4.5q-4.91,13.85-9.73,27.7a10.39,10.39,0,0,0-.26,1.38c2.51,0,4.85.06,7.19,0a1.85,1.85,0,0,0,1.19-1,43,43,0,0,0,1.42-4.19,1.34,1.34,0,0,1,1.53-1.08c3.23,0,6.46,0,9.69.07a2.06,2.06,0,0,1,1.45,1.09c.61,1.34,1,2.79,1.52,4.15.17.42.67,1,1,1C150.27,170.27,152.66,170.22,155.27,170.22Zm-77.45-12.9a1.62,1.62,0,0,1,.41-.15c2.52,0,5,0,7.56,0,1.56,0,3.63.38,4.54-.43s.31-2.88.33-4.4c0-2.52,0-2.52-2.47-2.52H77.93c-.74-4.35.12-5.41,4.22-5.42,3.12,0,6.25,0,9.37,0,1.12,0,1.59-.35,1.54-1.5-.06-1.54-.06-3.07,0-4.6,0-1.1-.3-1.59-1.48-1.57-3.78,0-7.56-.08-11.34,0-6,.19-9.83,3.74-10.13,9.83-.24,4.8-.18,9.63,0,14.44s3.22,8.32,7.94,8.86,9.4.28,14.1.29c.28,0,.79-.7.81-1.09.09-1.64,0-3.28.06-4.92,0-1.13-.35-1.56-1.51-1.53-3,.06-6,0-9,0C78.06,162.64,77.39,161.89,77.82,157.32Zm74-20.56c2.75,5.07,5.07,9.86,7.86,14.35a20.47,20.47,0,0,1,3.39,13.48,51.62,51.62,0,0,0,0,5.57h7.68c0-.61.09-1.14.09-1.67,0-3.12-.06-6.24,0-9.36a6.74,6.74,0,0,1,.72-2.93c2.51-4.74,5.12-9.42,7.68-14.13.9-1.65,1.77-3.32,2.85-5.35-2.38,0-4.39.12-6.38,0a3.06,3.06,0,0,0-3.5,2.11c-1.56,3.47-3.41,6.82-5.25,10.44-.36-.68-.62-1.14-.86-1.61-1.63-3.22-3.23-6.46-4.9-9.66-.25-.48-.77-1.14-1.19-1.16C157.41,136.71,154.81,136.76,151.81,136.76Zm-31.44,25.89h-2.11c-2.69,0-5.37,0-8.05,0s-3.37-.76-3.45-3.46c0-.93,0-1.86,0-2.79,0-6,0-12,0-18,0-.53-.44-1.48-.72-1.5-2.27-.12-4.56-.07-6.73-.07-.15.33-.23.43-.23.53,0,7.82-.17,15.65.06,23.47.15,5,3.16,8.43,8,9.15a72.08,72.08,0,0,0,10,.28,1.29,1.29,0,0,0,.92-.71C118.8,167.34,119.51,165.18,120.37,162.65Zm-65.53,7.52c0-.73.09-1.37.09-2,0-5.58,0-11.17,0-16.76,0-4.73,2.79-7.31,7.49-7,1,.06,2,.15,3.32.25,0-2.4,0-4.69,0-7,0-.26-.53-.68-.85-.73-5.05-.76-9.85-.42-13.74,3.46-3.13,3.12-4,7.08-4,11.28-.06,5.64,0,11.28,0,16.92,0,.53.07,1,.11,1.62ZM109,42.13A9.56,9.56,0,1,0,109,23a9.59,9.59,0,0,0-9.52,9.51A9.49,9.49,0,0,0,109,42.13Zm34.51,6.51H127.87c0,5.12,0,10.14.06,15.15,0,.3.77.8,1.21.83,1.64.1,3.28,0,4.92,0h9.44ZM50,130.07c0-.1.13-.2.13-.29,0-2.41.06-4.82,0-7.22,0-1.14.29-2,1.59-2s1.59.94,1.59,2c0,2.14.06,4.27,0,6.4,0,1.16.52,1.38,1.5,1.36s1.74,0,1.7-1.33c-.07-2.13,0-4.27,0-6.4,0-1,.11-2.08,1.51-2s1.53,1,1.54,2.07c0,2.14,0,4.27,0,6.41,0,1.2.69,1.27,1.59,1.29s1.54-.16,1.5-1.34c-.08-2.3,0-4.6,0-6.9,0-3.66-3.53-5.69-6.86-4.07a2.27,2.27,0,0,1-1.7,0c-3.42-1.65-6.88.39-6.95,4.17,0,1.92,0,3.83,0,5.75C47.09,130.52,47.38,130.73,50,130.07Zm35.38-6c0-3.83-2.46-6.53-6-6.55a6.11,6.11,0,0,0-6.22,6.38,6.29,6.29,0,0,0,6.07,6.62C82.71,130.55,85.34,127.79,85.36,124.06Zm31.42-6.19V126c0,4.46,0,4.46,4.54,4.37,2.84-.06,4.75-1.35,5.56-3.77,1-2.86.26-6.1-1.78-7.65a4.57,4.57,0,0,0-2.2-1C121,117.78,119,117.87,116.78,117.87ZM163,130c-1.35-3.74-2.63-7.5-4.13-11.17-.23-.55-1.57-1-2.35-.87a2.76,2.76,0,0,0-1.9,1.38,52,52,0,0,0-1.83,5.08L150.86,130l.34.5a10.78,10.78,0,0,0,3-.93c.59-.38.34-1.75,1.63-1.66.93.07,1.86,0,2.78.09.24,0,.5.38.64.64C160.2,130.52,160.55,130.67,163,130Zm-64.09.15a1.73,1.73,0,0,0,.13-.39c0-2.41,0-4.81,0-7.22,0-1.12.31-2,1.63-2s1.59.9,1.58,2c0,2.14,0,4.27,0,6.4,0,1.13.45,1.42,1.46,1.4s1.72-.06,1.67-1.37c-.07-2.29,0-4.59,0-6.89a4.69,4.69,0,0,0-9.37,0c0,1.91,0,3.82,0,5.74C96,130.54,96.13,130.63,98.93,130.11Zm73.37-12.17v6.34c0,5.3.85,6.09,6.23,6.07,1.24,0,1.88-.21,1.88-1.69s-.81-1.54-1.88-1.5c-.54,0-1.09,0-1.64,0-1.14.11-1.56-.4-1.54-1.52.05-2-.1-3.94,0-5.9.12-1.65-.52-2.17-2-1.92C173.08,117.87,172.81,117.88,172.3,117.94Zm-32,0h-3.1v12.48a11.84,11.84,0,0,0,2.16,0c.35-.07.9-.52.9-.8C140.35,125.72,140.33,121.86,140.33,117.93Z"/><path class="cls-1" d="M82.26,124a3.31,3.31,0,0,0-3-3.56,3.35,3.35,0,0,0-2.92,3.54c0,2,1.34,3.59,3,3.54A3.24,3.24,0,0,0,82.26,124Z"/><path class="cls-1" d="M142.44,156.39h-6.89c1.14-3.4,2.23-6.63,3.45-10.28C140.22,149.76,141.3,153,142.44,156.39Z"/><path class="cls-1" d="M82.26,124a3.24,3.24,0,0,1-2.9,3.52c-1.71,0-3.06-1.52-3-3.54a3.35,3.35,0,0,1,2.92-3.54A3.31,3.31,0,0,1,82.26,124Z"/><path class="cls-1" d="M119.92,127.13v-6.38c1.36-.2,2.65-.38,3.61.83a5.27,5.27,0,0,1,.07,4.71C123,127.26,121.9,127.52,119.92,127.13Z"/><path class="cls-1" d="M157.06,122.28l.87,2.58-2,.23c.28-1.08.51-1.94.73-2.8Z"/></g></svg>