<svg xmlns="http://www.w3.org/2000/svg" viewBox="0 0 155.91 141.62"><defs><style>.cls-1,.cls-2{fill:#346bb3;}.cls-2{font-size:97.49px;font-family:MyriadPro-Regular, Myriad Pro;}</style></defs><title>Plan de travail 2</title><g id="Traits_de_coupe" data-name="Traits de coupe"><path class="cls-1" d="M34.8,85.29l2.27-10.47,3.64,5.59s0,.12.08.16c1.93,2,1.92,4.2,1.25,6.76-1.12,4.25-1.92,8.6-2.85,12.9,0,.17-.1.34-.18.6-.83-.16-1.65-.31-2.45-.48q-7.08-1.51-14.15-3.06a1.43,1.43,0,0,1-.83-.44c-1.82-2.75-3.6-5.52-5.52-8.51L29,91.11c-6.27-16.21-5.67-31.91,2.74-47A52,52,0,0,1,56.36,21.56c19.92-9,41.77-4.22,54.87,6.67l-4.4,5.62C95.69,25.53,83.31,22.45,69.69,25A44.85,44.85,0,0,0,44.27,39.11C30.64,53.93,30.11,73.19,34.8,85.29Z"/><path class="cls-1" d="M121.89,55.17c-.78,3.61-1.51,7-2.28,10.52L115.94,60a2.8,2.8,0,0,0-.3-.46c-1.66-1.71-1.66-3.64-1.11-5.86,1.08-4.33,1.94-8.71,2.89-13.07.07-.29.15-.58.24-1,1.36.27,2.67.53,4,.81,4.13.89,8.25,1.8,12.39,2.67a2,2,0,0,1,1.41,1c1.67,2.64,3.37,5.25,5.18,8.06L127.7,49.39c6.34,16.45,5.62,32.3-3,47.54a51.94,51.94,0,0,1-23.23,21.5c-20,9.59-42.11,5.17-56-6.13l4.43-5.66a45.74,45.74,0,0,0,32.19,9.59,45.07,45.07,0,0,0,28.44-12.88A45.65,45.65,0,0,0,121.89,55.17Z"/><text class="cls-2" transform="translate(47.13 100.83) scale(1.09 1)">€</text></g></svg>