<svg xmlns="http://www.w3.org/2000/svg" viewBox="0 0 3456 787.4"><defs><style>.cls-1{fill:#fff;}</style></defs><title>Plan de travail 8</title><g id="Traits_de_coupe" data-name="Traits de coupe"><path class="cls-1" d="M1410.81,471.15c30.08-5.62,38.48-6.55,69.89-10.76l2.21-3.27,1.32-63.66-2.65-2.8-72.1,9.35-2.65,3.28c.89,16.84,1.33,26.67,1.33,37.91,0,8.89,0,18.26-.44,27.14Z"/><path class="cls-1" d="M1274.1,484.75c-28.53,0-43.66,10.74-55.76,19.52l2.59-141.56-3.46-2.93-71.76,12.7-2.59,3.41c3.46,41,4.76,57.6,4.76,155.72,0,42-.43,125-.87,215.76l3,3.42,28.53-.49h8.65c69.17,0,113.69-3.91,146.54-43.44,30.69-37.1,33.72-81,33.72-101.54,0-67.85-34.58-120.57-93.37-120.57m-6.49,199.16c-14.26,11.23-32.85,11.72-47.55,12.21V552.6c8.66-4.88,16.86-9.76,28.1-9.76,28.52,0,44.95,28.81,44.95,73.7,0,35.16-13.83,58.1-25.5,67.37"/><path class="cls-1" d="M1484.16,487.19l-3-3.9-74.34,14.64-2.6,2.93c3.46,37.1,4.76,54.18,4.76,123.5,0,53.21-1.3,83-2.6,123l2.6,3.41c31.12-1.47,39.77-1.95,74.78-1.47l3-3.4c-2.17-37.6-3.89-66.4-3.89-133.76,0-41.5.86-83.47,1.29-125"/><path class="cls-1" d="M1608.65,363.2l-3-3.42L1531.71,373l-1.73,2.93c4.32,59.56,4.75,75.67,5.62,154.74.43,28.8.43,57.6.43,86.4,0,52.73-.87,82-2.59,130.34l2.59,3.42c29-1.47,40.63-1.95,72.19-1.47l2.59-3.41c-2.16-56.14-4.33-107.39-4.33-261.65,0-46.37.44-68.34,2.17-121.06"/><path class="cls-1" d="M1794.08,489.14a98.93,98.93,0,0,0-30.69-4.39c-67.86,0-112.82,50.28-112.82,134.72,0,22.95,3.46,46.86,10.38,63.95,25.06,65.9,83.85,71.76,115,71.76,35.89,0,51.44-7.32,74.35-17.57l2.6-3.91,3-55.15-3-1.47c-16.43,9.76-35.87,21-67.43,21-25.94,0-43.66-9.27-54-26.85-6.48-10.25-7.78-20-9.5-29.77l139.62-2.93,2.58-3.43c-.42-23.91-.85-48.32-6.91-72.73-15.13-57.6-48.41-69.31-63.11-73.22M1721.9,589.7c1.3-15.14,4.32-35.64,20.74-47.35a28.14,28.14,0,0,1,17.3-5.37c14.26,0,22.91,8.31,27.66,17.08,6.05,10.75,6.48,22.46,6.48,33.68Z"/><path class="cls-1" d="M2365.08,596.05c.43-32.71.87-63-11.67-83.48-16.86-27.82-46.68-27.82-53.61-27.82-35.43,0-59.21,18.06-76.5,31.73-6.05-11.23-16.86-31.73-51.43-31.73-28.54,0-47.13,14.64-67,30.26V487.68l-3.89-4.39c-33.72,7.32-43.23,9.27-73.48,14.15l-2.6,3.42c3.46,39,6,65.9,6,162.55,0,27.82-.43,56.14-.43,84l2.16,2.93c27.67-1,37.18-1.46,73.06-1.46l2.59-2.93c-3-75.17-3.46-97.63-3.89-182.57,9.08-7.32,19-13.67,29.83-13.67,26.8,0,27.66,34.67,27.66,76.64,0,70.78-.43,81.52-1.3,121.06l2.6,3.42c32.84-1.95,41.92-1.95,71.75-1.95l2.6-2.93c-2.6-46.38-3-60-3.46-119.12V608.73l-.44-49.3c7.35-5.36,16.86-12.2,29.83-12.2,24.64,0,28.53,26.36,28.53,68.34,0,9.27-.43,18.56-.43,27.82-.44,16.61-.87,89.34-1.3,104l2.59,2.93c32.42-1.46,41.93-1.46,72.19-1.46l2.6-2.93c-2.17-45.4-2.6-58.09-2.6-113.25Z"/><path class="cls-1" d="M2493,487.19l-3-3.9-74.35,14.64-2.59,2.93c3.45,37.1,4.75,54.18,4.75,123.5,0,53.21-1.3,83-2.59,123l2.59,3.41c31.12-1.47,39.77-1.95,74.78-1.47l3-3.4c-2.17-37.6-3.89-66.4-3.89-133.76,0-41.5.86-83.47,1.3-125"/><path class="cls-1" d="M2752.37,603.37c-.43-46.87-.87-69.32-11.68-89.33-13.39-25.39-38-29.29-53.6-29.29-26.36,0-49.27,15.62-69.15,28.8l.86-26.85-4.33-3.41c-33.28,7.81-40.63,9.27-73,14.15l-2.59,3.42c3.46,42.46,6.05,73.23,6.05,152.78,0,31.25-.43,62.49-.87,93.73l2.6,2.93c31.12-1.46,37.61-1.46,72.19-1.46l2.59-2.93c-2.59-75.18-3-94.21-3.45-181.6,9.07-6.82,19.44-15.13,33.28-15.13,23.77,0,25.94,28.8,27.23,46.37.86,16.11,1.29,83,1.29,101.54,0,16.6-.43,33.68-.43,50.28l2.6,2.93c28.53-1,35.87-1.46,70.46-1.46l3-2.93c-2.15-43-2.15-56.63-3-104.46Z"/><path class="cls-1" d="M3015.17,492.07l-3-3.9-70.45,3.9-3,2.93c3,55.16,3,133.27,3,141.07,0,14.16,0,22-.44,41.5-11.67,8.79-20.75,16.11-32.42,16.11-31.12,0-31.12-37.1-31.12-65.9,0-12.2,0-24.9.43-37.11l.86-98.6-3-3.9-71.32,3.9-3,2.93c2.59,41,3,54.67,3,104v34.17c-.44,53.21,1.73,75.66,17.28,96.16,14.27,18.06,35,25.87,56.63,25.87,30.7,0,48.42-15.62,64-29.29l-.43,22,3,2.93c31.56-1.47,41.07-1.47,69.16-1.47l2.6-2.93c-2.17-34.65-3-53.2-3-116.66q0-68.82,1.3-137.66"/><path class="cls-1" d="M3166.88,697.58c-22.05,0-23.77-15.62-24.64-23-1.3-12.69-1.3-39.54-.86-59.06l.86-68.83,38.9,2,2.6-2.93,4.32-52.23-2.59-2.94h-43.23l1.3-82-3-2.92c-29.4,9.76-37.18,12.21-67.86,21l-1.74,3.43.44,61-23.34-1-2.6,2.44-3.89,52.23,2.6,2.93,27.23-1-1.3,77.62c-.43,12.21-.86,24.41-.86,37.1,0,44.91.86,93.23,68.29,93.23,16.86,0,30.26-2.93,45.39-5.85l3-3.42,4.32-50.28-3.46-1.95c-7.35,2.44-12.53,4.39-19.88,4.39"/><path class="cls-1" d="M3413.26,635.09c-.43-23.91-.86-48.32-6.91-72.73-15.13-57.6-48.42-69.31-63.11-73.22a99,99,0,0,0-30.69-4.39c-67.86,0-112.83,50.28-112.83,134.72,0,22.95,3.47,46.86,10.38,63.95,25.07,65.9,83.86,71.76,115,71.76,35.88,0,51.44-7.32,74.35-17.57l2.59-3.91,3-55.15-3-1.47c-16.42,9.76-35.87,21-67.42,21-25.95,0-43.67-9.27-54-26.85-6.48-10.25-7.78-20-9.51-29.77l139.63-2.93ZM3271.05,589.7c1.3-15.14,4.32-35.64,20.75-47.35a28.13,28.13,0,0,1,17.29-5.37c14.26,0,22.91,8.31,27.67,17.08,6,10.75,6.48,22.46,6.48,33.68Z"/><path class="cls-1" d="M2418,472.34c31.85-5.73,40.75-6.68,74-11l2.34-3.33,1.4-64.91-2.81-2.87-76.35,9.54-2.81,3.35c.94,17.17,1.41,27.2,1.41,38.66,0,9.06,0,18.61-.47,27.67Z"/><path class="cls-1" d="M965.84,329l86.16,35.1a16.59,16.59,0,0,0,21.66-9.33,16.91,16.91,0,0,0-9.23-21.9l-86.17-35.09a16.57,16.57,0,0,0-21.64,9.33A16.89,16.89,0,0,0,965.84,329"/><path class="cls-1" d="M73.29,382.83h.07l0-.12Z"/><path class="cls-1" d="M72.52,342.09c.53.83,1.12,1.65,1.74,2.45a26.56,26.56,0,0,0,3,3.27,15.82,15.82,0,0,0,7.23,3.91c.28.06.56.12.85.16a12.64,12.64,0,0,0,3.26.05,17.08,17.08,0,0,0,3.24-.59,4.54,4.54,0,0,0,1.63-.81,10.07,10.07,0,0,0,2.07-4.22,22.78,22.78,0,0,0-.31-12.83,23,23,0,0,0-2.3-5.21A24.49,24.49,0,0,0,91.34,326a31.34,31.34,0,0,0-4.49-4.79c-.67-.6-1.45-1.19-2.22-1.77-.29-.23-.54-.45-.84-.67l-.2-.1a14.14,14.14,0,0,0-5.5-2c-8.77-1-10.28,11.71-10.08,14.86a15.28,15.28,0,0,0,1,3.61,37.72,37.72,0,0,0,3.51,7"/><path class="cls-1" d="M90.37,311.4c1,.74,1.94,1.47,2.88,2.3.66.57,1.27,1.16,1.88,1.75a40.92,40.92,0,0,1,4.65,5.41l30.62-85.11L226.2,271l-29.42,81.76a21.48,21.48,0,0,1,3.87,1,16.45,16.45,0,0,1,7.82,5.93l33.93-94.28c4.78-13.27,0-27.2-10.55-31.11l-81.22-29.91c-10.61-3.9-23.08,3.7-27.86,17l-16.46,45.73L104,273.56,102.38,278,90.52,311Zm64.33-90.71,63.68,23.45-1.54,4.27L153.16,225Z"/><path class="cls-1" d="M95.05,269.5c-6.45-6-14.61-9.76-20.34-.8-6,9.37,1.51,23.38,8.65,33.28Z"/><path class="cls-1" d="M1085,671.89a209.38,209.38,0,0,0,16.53-25.62A217.85,217.85,0,0,0,1114,618.09a196.23,196.23,0,0,0,8.08-30l1.29-7.68c.45-2.51.69-5.39,1-8.07l.46-4.1c.17-1.42.18-2.36.28-3.56l.23-3.43.23-4.06c1.43-41.48-10.12-83.52-32.43-117.27-22-33.95-53.83-59.76-88.29-74.11q-3.2-1.44-6.48-2.61c-2.17-.81-4.32-1.65-6.5-2.39-4.42-1.35-8.74-2.84-13.17-3.88a197.37,197.37,0,0,0-26.38-5c-4.41-.42-8.67-1-13.23-1.08-2.2-.1-4.55-.26-6.6-.27l-6,.05-3.33,0-3.18.17-6.31.35c-4.18.46-8.33.77-12.41,1.42a196.64,196.64,0,0,0-84.5,33.76,202.12,202.12,0,0,0-30.23,26.24,207.38,207.38,0,0,0-22.18,28.17,194.87,194.87,0,0,0-15,27.58,181.57,181.57,0,0,0-9.19,24.94A190.19,190.19,0,0,0,733,529.8c-.51,4.15-.54,7.37-.69,9.57l0,0c.17-2.2.25-5.41.81-9.52a170.34,170.34,0,0,1,7.8-36.23A173.53,173.53,0,0,1,767.36,443a173.61,173.61,0,0,1,54.87-47.58,167.08,167.08,0,0,1,80.65-20.69c3.66-.07,7.35.19,11,.3l5.55.48,2.78.23c.4,0-.16,0,0,0l.38.05.74.1,1.49.2,6,.79c1.95.29,3.61.69,5.41,1,3.5.59,7.22,1.61,10.88,2.48A169.8,169.8,0,0,1,989.31,398,175.34,175.34,0,0,1,1054,464.3a178.41,178.41,0,0,1,17.09,44l1.27,5.79c.41,1.93.67,3.9,1,5.84s.7,3.89.92,5.86.57,3.91.74,5.88a184.76,184.76,0,0,1,.71,23.77A174.71,174.71,0,0,1,978.31,706a170.64,170.64,0,0,1-43.26,14.51c-3.72.6-7.43,1.34-11.16,1.69-1.87.21-3.73.48-5.59.62l-5.59.36-1.4.1-.7,0-.34,0c-.19,0,.35,0-.06,0l-3,0-6,.05c-3.64-.17-7.08-.15-10.75-.48-2.32-.19-4.62-.43-6.92-.69C836.08,710.94,796,687,765,647.81c-30.65-38.81-46.09-84.42-56.9-131.92-8.13-35.7-12.21-72-14.16-108.61-3.14-58.95-2.72-117.89-1.21-176.85,1-38.41,4.09-76.87-.3-115.18-1.33-11.58-5.45-23.09-9.91-33.95-3.57-8.67-10.2-15.35-20.28-17.49-12.31-2.61-22.45,1.49-31.48,9.37C618.48,83.88,611,98,605.57,112.93c-19.92,54.46-40.83,108.61-58.51,163.82-28.16,88-54,176.69-80.9,265.09-2.27,7.48-4.73,14.9-7.1,22.36a104.85,104.85,0,0,1-3.46-22.12c-1.75-37.59-4.07-75.19-4.73-112.81-.71-40.62,0-81.28.46-121.91.4-34.85,1.52-69.69,2-104.54.55-43,1.19-86,.74-129.06-.1-9.77-3.12-20.15-7.23-29.1-10.42-22.72-39.23-26.86-56.67-8.95a80.89,80.89,0,0,0-19.3,32.41Q364,89.6,357.61,111.23c-41.09,138.27-130,442.7-132.6,446.29-1.2,1.66-4-4.33-6.42-14.93-.47-2.06-.92-4.3-1.34-6.69l-.21-1.22a180.4,180.4,0,0,1-1.83-43.37,16.19,16.19,0,0,0-.37-5c.36-2.54.76-4.88,1.17-7,1-5,2-8.77,2.44-10.92,2.83-12.37,1.63-41.35-1-45.41-1.48-2.29-5.57-15.54-9.34-28.09-1-3.26-1.94-6.48-2.82-9.44-.68-2.3-1.32-4.45-1.9-6.35-.87-2.9-1.58-5.24-2-6.65a6.33,6.33,0,0,0-4.09-4.05,13.24,13.24,0,0,0-3.92-.72,31.76,31.76,0,0,0-11.06,1.84,14.67,14.67,0,0,0-1.77.73c-1.78.94-10.57,3.61-18.64,6-5.61,1.65-10.89,3.15-13.17,3.82-5.55,1.64-8.43,10.94,1.34,18.47a11.73,11.73,0,0,0,2.73,1.5c10.27,4.22,26.62-4.58,28.22-2.06-.26,1.81-.45,3.74-.6,5.7a100.65,100.65,0,0,0-.18,12.11,45,45,0,0,0,1.25,9.39,27.15,27.15,0,0,0-6.84,9.23,44.88,44.88,0,0,0-2.17,5.12l-.09.26c-.05.12-.07.24-.12.36a17.14,17.14,0,0,0-.54,1.72c-1.84,6.77.11,14.84,1.9,20.05.71,2.07,1.73,4.43,2.13,5.35a33.2,33.2,0,0,1-1.55,3.3c-5.1,9.25-13.85,15.28-23,15.44a20.5,20.5,0,0,1-7.5-1.26L136,481.89l-3.73-1.37L73.82,459c.7,2.29,1.46,4.7,2.22,7.1.21.67.4,1.3.61,2C82,484.92,119,511.47,128.29,519c4.75,3.86,14.71,22.45,23.29,39.65,8.12,16.29,15,31.32,15,31.41.59,1.76,1.19,3.5,1.78,5.22,7.34,21.55,13.4,40.73,14.77,51.93,1.3,10.61,5.59,20.3,13.82,27.59,7.74,6.86,17.83,6.74,23.91-1.53.57-.77,1.12-1.56,1.66-2.36a65.14,65.14,0,0,0,8.73-18.66c5.69-20.6,10.12-41.55,15.35-62.29C279.34,460.23,320,333,365.74,207.44c6.13-16.85,12.71-33.53,19.09-50.28l1.37.36c0,1,0,2,.06,3,2.32,89.24,4.15,178.49,7.19,267.7,1.62,47.74,4.85,95.44,8.27,143.1,1.57,21.73,4.85,43.38,8.36,64.9,1.88,11.5,5.62,22.8,13.47,32,7.1,8.29,17.2,8.89,24.79,1.1a42.29,42.29,0,0,0,8.87-12.5c4.53-10.72,8.54-21.71,12.08-32.82,28.52-89.36,56.56-178.88,85.4-268.13,18.57-57.49,38.87-114.38,62.76-169.87,2.67-6.21,5.9-12.16,9.11-18.7-1,32.16-2.7,63.37-2.81,94.59-.25,63.17,5,125.9,16.71,188,7.79,41.19,19.09,81.28,35.62,119.75,21,48.89,48.44,93.23,90.47,126.75,54.29,43.32,116.7,58.52,184.64,53.32a90.12,90.12,0,0,0,26.52-6l.59-.13c2.22-.6,4.43-1.28,6.66-1.93s4.46-1.33,6.65-2.13a195.55,195.55,0,0,0,50.83-26.1,198.88,198.88,0,0,0,42.51-41.5"/><path class="cls-1" d="M54.21,400.25A20.56,20.56,0,0,0,57.75,402a21.26,21.26,0,0,0,3.14.93,9.92,9.92,0,0,0,5.58-1.18c2.26-1.32,3.41-3.66,3.87-6.4a22.14,22.14,0,0,0,.21-4.92,47.4,47.4,0,0,0-1.63-9.12,57,57,0,0,0-1.77-5.43h0a26,26,0,0,0,5,2.42,23.09,23.09,0,0,0,2.49.75,24.67,24.67,0,0,0,4,.66c.23,0,.45.07.67.07,9.57-4.54,9.17-11.93,6.85-18-.18-.48-.37-.95-.58-1.41a45.28,45.28,0,0,0-2.48-4.72l-.19-.31c-1-1.75-3.76-5.33-6-6.58-1.15-.66-2.39-1.32-3.5-1.88C71.52,346,70,345.29,70,345.29l-.23-.07a7.92,7.92,0,0,0-6.34.83,16.45,16.45,0,0,0-6,6.41c-1.91,3.27-1.95,7.22-.59,11.08a21.35,21.35,0,0,0,1.89,4,24.57,24.57,0,0,0,1.59,2.28A17.48,17.48,0,0,0,54,366.87c-4.11-.78-8.25.95-10.83,8.68-1.26,3.74.16,13.7,6.29,20.64a21.56,21.56,0,0,0,4.76,4.06"/><path class="cls-1" d="M146,365.21l4.28-1.25,4.26-1.23q3.9-10.19,7.78-20.37a1.85,1.85,0,0,1,1.59-1.38,30.69,30.69,0,0,0,15.51-7.54c9.46-8.6,12.92-19.28,10.5-31.91-.28-1.41-.68-2.8-1-4.21L187,293c-1.16-1.73-2.31-3.47-3.59-5.4-1.89,4.94-3.65,9.62-5.44,14.29-1.24,3.25-2.47,6.5-3.78,9.73a1.63,1.63,0,0,1-1.06.84q-8.48,1.41-17,2.72a1.58,1.58,0,0,1-1.25-.48c-3.54-4.4-7-8.85-10.56-13.26a1.86,1.86,0,0,1-.37-2.1c1.9-4.85,3.73-9.72,5.6-14.57,1.12-2.92,2.26-5.82,3.51-9.05l-6.31,1.57-4.25,1.91a4.43,4.43,0,0,1-.54.43,33.23,33.23,0,0,0-15.46,38A32,32,0,0,0,133,329.86a1.45,1.45,0,0,1,.37,1.67Q127.49,346.77,121.7,362,109.51,394,97.34,425.87L62.43,413l.09-.24c-.68,0-1.34.09-2,.06l-.79,0-.77-.16a30.84,30.84,0,0,1-4.51-1.33l-1.19,3.31a31.37,31.37,0,0,0-1.8,8.75c0,9.34,4.55,12.91,7.27,14.21v0L147,470.08a11,11,0,0,0,5.12.59c4.83-.54,9.68-4,12.89-9.18-.21-.56-.42-1.13-.62-1.7a62.19,62.19,0,0,1-2.55-10.18l-29.84-11-5.63-2.08q7.29-19.17,14.61-38.36c-5.51-5.6-8.05-12.61-6.81-19.4A17.12,17.12,0,0,1,146,365.21"/><path class="cls-1" d="M928,549.89c4.61-9.34,48.11-144.68,48.11-144.68s-81,116.36-85.64,125.69,0,21.14,10.4,26.39,22.51,1.93,27.13-7.4m-23.71-18.61a9.85,9.85,0,0,1,13.86,2.32,10.12,10.12,0,0,1-2.3,14A9.85,9.85,0,0,1,902,545.29a10.11,10.11,0,0,1,2.29-14"/></g></svg>