<svg xmlns="http://www.w3.org/2000/svg" viewBox="0 0 378.89 318.43"><defs><style>.cls-1{fill:#5f636c;}</style></defs><title>Plan de travail 4</title><g id="Traits_de_coupe" data-name="Traits de coupe"><path class="cls-1" d="M372.49,130.28a8.54,8.54,0,0,0-3.25-1,64.13,64.13,0,0,0-10.18-.41c-12.09,0-24.18,0-35.95,3.28-7.34,2-14.16,5-19.52,10.59-.52.54-.74,1.56-1.85,1.6a8,8,0,0,0-2-6.58,15.85,15.85,0,0,0-6.23-3.87c-6-2.33-12.35-3-18.71-3.39a167.79,167.79,0,0,0-32.47.93c-10.08,1.38-19.81,3.9-28.69,9a45.83,45.83,0,0,0-12.48,10.44,39.62,39.62,0,0,0-5.53,8.82,32.75,32.75,0,0,0-3.15,9.64c0,.46.19.95-.46,1.14a56.59,56.59,0,0,0,.1,6.11c.57.08.54.47.49.87l.66,2.63c.34.06.61.21.47.59s-.5.24-.79.22c-1.1.06-2.21.1-3.31.18-9,.62-18.07,1.28-27.13,1.26-5.56,0-11.12-.2-16.49-1.84-3.14-.95-5.89-2.43-6.45-6.06-.79-.18-.5-.82-.53-1.28-.06-.74,0-1.48,0-2.21h0c0-.39,0-.78.51-.82.19-1,.38-2,.56-3-.07-.41-.08-.79.48-.87a22.17,22.17,0,0,1,2.19-5.93,23.3,23.3,0,0,1,7.09-8.62,35.64,35.64,0,0,1,13.34-6.18c8.12-2.06,16.41-2.3,24.73-2.14,5,.09,9.91.34,14.86.47,1.86,0,2.48-.65,2.35-2.42,0-.36-.06-.72-.08-1.07-.68-.3-.51-.88-.51-1.41a14.71,14.71,0,0,1-.29-1.72c-.12-2.4-1.58-3.76-3.7-4.62a16.4,16.4,0,0,0-5.63-1.11,191.85,191.85,0,0,0-24.8.42,91.71,91.71,0,0,0-25.9,5.72,49.45,49.45,0,0,0-16.85,10.54c-1,1-1.79,2.25-3.21,2.91a8.08,8.08,0,0,0,.31-2.66,9.48,9.48,0,0,0-1.8-6.81,17.18,17.18,0,0,0-7.77-5.33c-6.91-2.61-14.17-3.28-21.46-3.49-11.09-.32-22.16.15-33.23.67a86.82,86.82,0,0,0-13.85,1.31c-2.87.6-5.48,1.74-6.84,4.5-.93,1.89-1.67,3.87-2.45,5.82-.17.41.06.72.52.93a3.62,3.62,0,0,0,1.89.22c5-.37,10-.81,15-1.14,11-.73,21.91-1.8,32.91-1.19,3.57.2,7.14.59,10.41,2.2A4.65,4.65,0,0,1,100.6,149a4.38,4.38,0,0,1-3.91,5.82c-6.59.95-13.18,1.82-19.78,2.67-8.52,1.1-17.08,1.81-25.57,3.08s-16.57,3-24.24,6.6a25.08,25.08,0,0,0-8.59,6.14,16.64,16.64,0,0,0-3.46,7c-.83,3.26.21,5.76,2.32,8.05a16.64,16.64,0,0,0,7.71,4.31c8.14,2.52,16.57,3,25,3.14,11.82.13,23.63-.27,35.41-1.27a135.88,135.88,0,0,0,17.07-2.15c2.48-.54,4.93-1.36,6.15-3.74s2.12-4.94,3.17-7.42a62.16,62.16,0,0,0,2.36-5.88c.07-.24.19-.43.44-.42.44,0,.28.38.31.6.15,1.25.28,2.49.42,3.74.53.08.58.43.51.85a8.31,8.31,0,0,0,1.85,3.8,20.91,20.91,0,0,0,9,6.52c6.83,2.84,14.07,3.72,21.36,3.92a306.87,306.87,0,0,0,34.57-1,28.3,28.3,0,0,0,8.59-1.73c1.48-.62,2.8-1.49,3.18-3.2-.07-.41,0-.76.49-.85.17-.88.34-1.76.53-2.64.06-.28-.11-.66.3-.81s.54.19.77.4a25.12,25.12,0,0,0,7.93,4.78c7.82,3,16,3.79,24.3,3.91,11.3.17,22.61-.15,33.9-.78,3.65-.2,7.36-.22,10.88-1.42,1.71-.58,3.4-1.23,4.07-3.18s1.47-4.05,2.3-6c.77-1.82.6-2.21-1.4-2.14q-6.33.23-12.67.56c-10.78.59-21.57,1.21-32.37.85-3.58-.12-7.19-.2-10.63-1.27-3-.93-5.73-2.32-6.59-5.69-.71-.15-.53-.67-.49-1.13-.34-1.36.1-1.9,1.64-2.05,7.54-.72,15.07-1.56,22.6-2.39,7.93-.87,15.87-1.74,23.8-2.7a93.59,93.59,0,0,0,18.86-4.23,39.7,39.7,0,0,0,13.63-7.57c.16-.3.38-.74.73-.4s0,.61-.4.71a28.62,28.62,0,0,1-1.53,4.37c-.93,2.38-1.85,4.75-2.72,7.14s-1.66,4.56-2.53,6.83q-2,5.16-3.91,10.34c-.73,1.93-1.36,3.91-2.22,5.79-1.18,2.56-.71,3.6,2.07,3.59,6.39,0,12.78-.13,19.17-.27a4,4,0,0,0,3.75-2,19.54,19.54,0,0,0,1.19-3.09,63.56,63.56,0,0,1,2.39-6.29c1.26-3.27,2.47-6.57,3.73-9.84.9-2.35,1.7-4.75,2.62-7.09,1.65-4.17,3.15-8.4,4.77-12.58a11.93,11.93,0,0,1,7.08-7.33,36.43,36.43,0,0,1,12.41-2.08c8.23-.19,16.46-.29,24.69-.14a4.08,4.08,0,0,0,4-2.19c.81-1.71,1.73-3.39,2.43-5.14C374.92,132.31,374.35,131.45,372.49,130.28Zm-278,35.9c-1.26,3.14-2.5,6.28-3.89,9.37-1,2.14-1.8,4.33-2.56,6.54a1.94,1.94,0,0,1-1.91,1.51,229.75,229.75,0,0,1-33.59.86,28.41,28.41,0,0,1-10.41-2.18c-3.75-1.71-3.39-4.69-1.3-7.06,2.86-3.25,6.78-4.28,10.81-4.86,5.31-.78,10.66-1.28,16-1.89L86,166.38c2.46-.27,4.93-.5,7.39-.75.29-.29.67-.24,1-.27s.59-.07.63.31S94.79,166.1,94.52,166.18Zm181.94-16.36c-2.3,2.47-5.36,3.59-8.5,4.53a86.18,86.18,0,0,1-14.44,2.75l-22.13,2.63-11.62,1.37a3.42,3.42,0,0,1-.59,0,30.62,30.62,0,0,1,7.12-12,22.5,22.5,0,0,1,10.9-5.74c8.42-2,17-2.3,25.59-2A35.57,35.57,0,0,1,274,142.93a5.24,5.24,0,0,1,3.12,2.21A3.85,3.85,0,0,1,276.46,149.82Z"/></g></svg>