<svg xmlns="http://www.w3.org/2000/svg" viewBox="0 0 378.89 318.43"><defs><style>.cls-1{fill:#5f636c;}</style></defs><title>Plan de travail 4</title><g id="Traits_de_coupe" data-name="Traits de coupe"><path class="cls-1" d="M146,90.09c9.38-.36,17.9,2.55,26.34,5.66,21.14,7.77,19.45,7.59,40.3.44,9.61-3.29,19.23-6.41,29.71-6.22,20.87.38,38.67,7,52.45,22,.5.54.91,1.17,1.39,1.73,2.25,2.65,1.79,4.35-1.34,6.45-12.43,8.32-21.67,19-25.18,33.11a60.45,60.45,0,0,0,2.39,37.2c5.33,13.8,15.78,23.19,29.14,30.15,3,1.56,3.81,2.72,2.53,6a153.9,153.9,0,0,1-27.49,45.25c-3.81,4.36-7.08,9.08-11.77,12.82-11,8.82-23.32,10.86-37,6.65a102.28,102.28,0,0,1-10.06-3.79c-14.84-6.28-29.73-6.39-44.87-.93-6.24,2.25-12.35,4.85-19.06,5.95-10,1.64-18.4-1.35-25.93-7.09C116.56,277,109.08,266,101.6,255c-12.42-18.17-20.07-38.17-24.21-59.24-3.84-19.49-4.36-39.14,2.71-58.08,8.76-23.46,24.83-40.48,52.08-46.37A49.72,49.72,0,0,1,146,90.09Z"/><path class="cls-1" d="M248.21,32c-.84,14.23-7.16,27.1-18.1,38.5-8.69,9.06-19.15,14.25-31.8,16.16-7.62,1.16-8.38.76-8-6.12C191.5,61.69,201.1,47.15,217.15,36a62.86,62.86,0,0,1,27-10.77c3.85-.59,4.49.73,4.12,3.65C248.16,29.55,248.22,30.27,248.21,32Z"/></g></svg>