<svg xmlns="http://www.w3.org/2000/svg" viewBox="0 0 378.89 318.43"><defs><style>.cls-1{fill:#5f636c;}</style></defs><title>Plan de travail 4</title><g id="Traits_de_coupe" data-name="Traits de coupe"><path class="cls-1" d="M322,114a123.7,123.7,0,0,0-6.47-12.19c-2.08-3.25-4-6.56-6.43-9.64-2-2.59-4-5.24-6.12-7.75a139.72,139.72,0,0,0-25.24-23A145,145,0,0,0,259,50.11a150,150,0,0,0-19.2-8.06,154.61,154.61,0,0,0-51.42-8.18c-4.53.05-9.05.24-13.57.66A153.16,153.16,0,0,0,153.37,38a151.35,151.35,0,0,0-37,14,145.44,145.44,0,0,0-18.65,12A142.8,142.8,0,0,0,85.41,74.56,138.12,138.12,0,0,0,73.26,87.81c-2.11,2.6-4.06,5.31-6,8-2.3,3.24-4.22,6.69-6.23,10.08a120.89,120.89,0,0,0-6,12.27,117.34,117.34,0,0,0-6,17.77,108.6,108.6,0,0,0-3.45,23.41,120.83,120.83,0,0,0,.57,19.3,110,110,0,0,0,4.07,20.49,120.54,120.54,0,0,0,6.4,17.19,124.38,124.38,0,0,0,6.37,12.08c2.09,3.3,4,6.66,6.46,9.77,2,2.63,4,5.33,6.2,7.88a142.08,142.08,0,0,0,12.65,13,143.54,143.54,0,0,0,31.3,21.38,147.69,147.69,0,0,0,15,6.57A153,153,0,0,0,169,295.52a162.45,162.45,0,0,0,17.76,1.3,158.18,158.18,0,0,0,23.42-1.39,153.69,153.69,0,0,0,28-6.38,148.65,148.65,0,0,0,24.27-10.43,145.08,145.08,0,0,0,18.87-12.14,138.72,138.72,0,0,0,24.29-23.58c2.05-2.53,4-5.17,5.83-7.81,2.39-3.39,4.44-7,6.51-10.54a124.45,124.45,0,0,0,5.71-11.66,121.16,121.16,0,0,0,9.7-44.19,112.36,112.36,0,0,0-.69-16.91,108.51,108.51,0,0,0-4.19-20.74A122.63,122.63,0,0,0,322,114Zm-5.73,33.52a102.64,102.64,0,0,1,1.48,21.21A73.68,73.68,0,0,1,317,179c-1.23,7.59-2.69,15.14-5.4,22.41a108.36,108.36,0,0,1-6.56,14.9c-1.71,3.1-3.39,6.21-5.41,9.15-2.15,3.11-4.27,6.25-6.68,9.19a130.73,130.73,0,0,1-12.11,12.93,126.88,126.88,0,0,1-18.46,14.19,131.68,131.68,0,0,1-18.6,9.78,136.22,136.22,0,0,1-31.37,9.16,129.54,129.54,0,0,1-20.56,1.86,142.69,142.69,0,0,1-35.13-3.81,133.1,133.1,0,0,1-18.32-5.8,131.77,131.77,0,0,1-30.82-17.28,123.58,123.58,0,0,1-13.12-11.44,122.31,122.31,0,0,1-12.78-15.12c-2.29-3.19-4.25-6.55-6.27-9.88a104.58,104.58,0,0,1-6.19-12.74c-3.38-7.81-5.29-15.95-6.77-24.23A101.3,101.3,0,0,1,61,164.23a79.07,79.07,0,0,1,.75-11.61,117.38,117.38,0,0,1,5.55-23.46,107.39,107.39,0,0,1,6.27-14.31,106.25,106.25,0,0,1,6-10.06c2-2.91,4-5.88,6.3-8.64,1.91-2.3,3.85-4.58,5.9-6.77a125.86,125.86,0,0,1,24.74-20.47,133.61,133.61,0,0,1,28.81-13.68,140.4,140.4,0,0,1,70.65-4.73,136.53,136.53,0,0,1,24.53,7.12,132.49,132.49,0,0,1,18.76,9.19,129.33,129.33,0,0,1,12.38,8.33,127.24,127.24,0,0,1,12.6,11,122.39,122.39,0,0,1,12.75,15c2.26,3.11,4.19,6.38,6.18,9.63a105.83,105.83,0,0,1,6.5,13.33A108.19,108.19,0,0,1,316.28,147.52Z"/><path class="cls-1" d="M248.87,175.61l-18.41.14c-1.84,0-1.72.16-1.74-1.66q-.14-18.33-.28-36.66c0-.35,0-.71,0-1.06,0-.5-.22-.74-.76-.71-.28,0-.57,0-.85,0l-18.27.14c-1.79,0-1.65,0-1.64,1.63,0,5.6.07,11.2.15,16.8a2.2,2.2,0,0,1-1.09,2.11c-1.2.77-2.34,1.63-3.49,2.47l-18.42,13.44c-2,1.44-4,2.85-5.9,4.32a1,1,0,0,1-1.45,0c-1.29-1-2.65-1.84-4-2.77-.33-.23-.75-.4-.88-.87.82-.72,1.77-1.29,2.66-1.94,4.91-3.57,9.8-7.18,14.71-10.77l3.23-2.36q4-2.92,8-5.87c.75-.56.75-.62,0-1.16-1-.73-2.06-1.41-3.07-2.12-2.49-1.75-5-3.49-7.44-5.27a1.09,1.09,0,0,0-1.57,0c-1,.78-2,1.45-3,2.18l-12.5,9.12q-6.19,4.53-12.39,9c-1,.76-.74.85-2,0s-2.5-1.89-3.86-2.69c-.27-.16-.58-.31-.65-.75l9.77-7.12c3.28-2.39,6.48-4.87,9.83-7.16s8.95-6.44,9.58-7.32c-1.4-1.12-2.91-2.09-4.38-3.11-2.23-1.56-4.45-3.12-6.64-4.73a1.2,1.2,0,0,0-1.71,0c-1.14.92-2.38,1.73-3.57,2.6l-19.19,14-7.9,5.8a1.18,1.18,0,0,1-.81.36,29.88,29.88,0,0,0-13.16-13.33,34.55,34.55,0,0,0-16.58-3.75l-25.34.2c-1.94,0-1.77-.16-1.76,1.63l.42,53.34c0,.31,0,.62,0,.93,0,.5.22.72.76.69.28,0,.57,0,.85,0l25.34-.19a42.64,42.64,0,0,0,4.8-.28,32.64,32.64,0,0,0,17.13-7.27,27.88,27.88,0,0,0,7.33-9.15c.14-.28.2-.6.63-.8l5.93,4.18L164,193c2.37,1.68,4.74,3.35,7.09,5.05a1.09,1.09,0,0,0,1.57,0c.81-.67,1.73-1.22,2.58-1.85q6-4.35,11.94-8.71,8.51-6.25,17-12.53c.9-.66,1.86-1.27,2.84-1.94a3,3,0,0,1,.19,1.54c.06,5.56.09,11.12.14,16.68,0,1.18,0,1.19,1.23,1.19l40.77-.32c1.2,0,1.21,0,1.2-1.2q0-7-.1-13.9C250.42,175.54,250.55,175.6,248.87,175.61ZM121.25,163.52a16.2,16.2,0,0,1-.2,4.34c-1,4.76-4.23,7.42-9.06,8.6a35.89,35.89,0,0,1-8,.54c-.92,0-.79-.55-.8-1.07q0-5.51-.08-11c0-3.62-.07-7.23-.09-10.85,0-1.13,0-1.16,1.25-1.15a44.43,44.43,0,0,1,6.92.21C116.7,154.08,120.87,157.75,121.25,163.52Z"/><path class="cls-1" d="M297.43,175.24l-18,.14c-1.95,0-1.77.21-1.79-1.59q-.15-18.39-.29-36.79c0-.31,0-.62,0-.93,0-.55-.19-.8-.81-.79l-20,.16c-.52,0-.81.17-.77.69,0,.31,0,.62,0,.93q.09,13.37.2,26.73l.21,26.74c0,1.68-.18,1.54,1.71,1.52l39.78-.3,1,0c.49,0,.67-.23.65-.66,0-.26,0-.53,0-.79q-.06-6.83-.11-13.64c0-.26,0-.52,0-.79,0-.46-.24-.63-.7-.61Z"/></g></svg>