<svg xmlns="http://www.w3.org/2000/svg" viewBox="0 0 378.89 318.43"><defs><style>.cls-1{fill:#5f636c;}</style></defs><title>devPlan de travail 4</title><g id="Traits_de_coupe" data-name="Traits de coupe"><path class="cls-1" d="M233.46,228.41V92.51H368.18v135.9Zm88.67-72.19c.12-.2.15-.36.25-.42,10.43-6.53,13.49-17.5,11.14-28.84a33.18,33.18,0,0,0-28.23-26c-14.21-1.8-28,5.12-34.21,17.78-5.07,10.25-5.66,20.7,1.22,30.51,1.9,2.71,4.7,4.78,7.16,7.21a7.72,7.72,0,0,0-1.11.75c-3,2.74-6.46,5.16-8.91,8.33-5.4,7-5.78,15.41-4.7,23.72,2.1,16.18,13.83,27.81,30.59,30.28,22.77,3.35,43.43-13.15,42.14-37.72-.45-8.55-3-16.08-9.94-21.63C325.79,158.81,323.93,157.55,322.13,156.22Z"/><path class="cls-1" d="M10.72,92.46H49.37v46.38H91.09v38.34H49.52V228.4H10.72Z"/><path class="cls-1" d="M142,228.44H103.31V92.54H142Z"/><path class="cls-1" d="M197.8,139.3v89.13H159.3V139.3Z"/><path class="cls-1" d="M198.89,110.74c-.28,11.74-9.55,20.92-20.85,20.62A20.69,20.69,0,0,1,179,90C189.92,90.26,199.16,99.89,198.89,110.74Z"/><path class="cls-1" d="M281.49,184.29a19.44,19.44,0,1,1,38.88.26,19.74,19.74,0,0,1-19.59,19.59C290.16,204.11,281.46,195.16,281.49,184.29Z"/><path class="cls-1" d="M300.91,151.09A17.32,17.32,0,1,1,318,133.85,17.29,17.29,0,0,1,300.91,151.09Z"/></g></svg>