<svg xmlns="http://www.w3.org/2000/svg" viewBox="0 0 378.89 318.43"><defs><style>.cls-1{fill:#5f636c;}</style></defs><title>Plan de travail 4</title><g id="Traits_de_coupe" data-name="Traits de coupe"><path class="cls-1" d="M179.68,294.63c.63-1.56,1.18-3.1,1.88-4.57.48-1,.92-2.06,1.36-3.1,1.72-4,3.41-8,5.18-12,1.46-3.32,2.88-6.65,4.32-10l4.45-10.3,4.32-10c1.46-3.36,2.9-6.72,4.37-10.08s2.82-6.5,4.23-9.76c.67-1.53,1.4-3,2-4.62a.89.89,0,0,1,1.07-.65c.31,0,.62,0,.93,0L252,221a20.16,20.16,0,0,0,13.31-4.51,18.17,18.17,0,0,0,5.7-7.7c1.74-4.21,3.55-8.39,5.37-12.57,1.36-3.15,2.74-6.28,4.08-9.44,1.62-3.84,3.35-7.63,5-11.45,1.06-2.43,2.08-4.87,3.13-7.31q2.82-6.48,5.65-13c1.05-2.43,2.07-4.87,3.12-7.31,1.88-4.32,3.84-8.62,5.62-13,1.3-3.17,3-6.19,3.79-9.55a17.82,17.82,0,0,0,.8-5.06,17.18,17.18,0,0,0-1.64-7.11,16.67,16.67,0,0,0-9.65-8.11,22.05,22.05,0,0,0-6.48-1.32l-1.86-.09-54.09-2a5.31,5.31,0,0,1-.7,0c-.72-.13-1,.23-1.29.86-1.6,3.81-3.22,7.6-4.89,11.38-1.45,3.28-2.85,6.58-4.28,9.87s-2.95,6.87-4.45,10.29-2.87,6.65-4.31,10-3,6.86-4.45,10.29c-1.41,3.25-2.81,6.51-4.23,9.76s-2.92,6.8-4.41,10.19-2.92,6.8-4.41,10.2-2.9,6.72-4.36,10.08-2.93,6.8-4.41,10.2-2.93,6.71-4.35,10.08-2.89,6.65-4.37,10-2.85,6.58-4.28,9.87c-1.51,3.46-3,6.93-4.5,10.41q-2.16,5-4.31,10t-4.46,10.3q-2.16,5-4.31,10c-1.45,3.32-2.87,6.66-4.33,10-.6,1.36-1.18,2.72-1.77,4.08-.32.74-.44.81-1.24.58-2.77-.77-5.52-1.57-8.25-2.47a147.27,147.27,0,0,1-16.72-6.71q-6.52-3.09-12.71-6.82-5.43-3.29-10.56-7c-2.86-2.07-5.62-4.26-8.31-6.55-2.42-2.07-4.79-4.19-7.06-6.41-1.67-1.62-3.31-3.27-4.87-5-1.33-1.46-2.65-2.93-4-4.43-1.78-2-3.47-4.17-5.12-6.32-2.36-3.09-4.53-6.31-6.62-9.57-1-1.56-1.91-3.2-2.85-4.81A128.76,128.76,0,0,1,56.4,211.3c-.86-1.91-1.62-3.87-2.37-5.82-1.35-3.52-2.56-7.09-3.58-10.72-.92-3.25-1.68-6.54-2.39-9.85-.68-3.16-1-6.36-1.52-9.54a113.39,113.39,0,0,1-1-16c0-3,.05-6.08.28-9.11a122.65,122.65,0,0,1,2-15.52c.69-3.36,1.41-6.72,2.36-10,.66-2.32,1.29-4.65,2.11-6.93,1.41-3.92,2.87-7.83,4.6-11.63,1.28-2.79,2.63-5.57,4.09-8.27a131.26,131.26,0,0,1,7.09-11.69c1.7-2.48,3.44-4.92,5.28-7.29s3.85-4.81,5.92-7.09C81,69.94,82.8,68,84.65,66.19c1.52-1.52,3-3,4.64-4.46,3.16-2.83,6.38-5.6,9.77-8.17q4.43-3.35,9.07-6.39c3.49-2.28,7.1-4.38,10.77-6.34a148.74,148.74,0,0,1,14.95-6.91,143.59,143.59,0,0,1,17.07-5.58c1.35-.36,2.71-.69,4.07-1,.26-.06.51-.23.83,0a3.37,3.37,0,0,1-.55,1.59c-.34.62-.6,1.27-.88,1.91-1.12,2.61-2.2,5.24-3.35,7.85-1.5,3.42-3,6.86-4.45,10.29s-2.91,6.72-4.36,10.08l-4.41,10.19c-1.4,3.21-2.78,6.44-4.18,9.65-1.5,3.43-3,6.87-4.46,10.3s-2.87,6.66-4.32,10-3,6.87-4.45,10.3-2.89,6.65-4.33,10-3,6.86-4.45,10.3q-2.09,4.81-4.2,9.64c-1.49,3.43-3,6.87-4.44,10.3s-2.9,6.73-4.37,10.08-2.87,6.65-4.32,10-2.91,6.72-4.36,10.08-3,6.79-4.42,10.19-2.87,6.66-4.31,10-2.95,6.8-4.42,10.19c-.62,1.43-1.26,2.84-1.82,4.25.25.31.54.23.79.24,9.52.35,19,.68,28.57,1,.66,0,1.08-.09,1.32-.79s.67-1.49,1-2.24c1.08-2.55,2.12-5.11,3.25-7.64,1.52-3.38,2.94-6.79,4.43-10.19s2.9-6.72,4.36-10.08,3-6.79,4.41-10.19,2.92-6.72,4.37-10.08l4.41-10.2c1.42-3.25,2.82-6.5,4.24-9.75s2.92-6.72,4.37-10.08,2.84-6.58,4.28-9.86c1.11-2.54,2.15-5.1,3.3-7.62.3-.66.75-.66,1.32-.64,4.39.17,8.78.32,13.17.48l7.46.28a2.85,2.85,0,0,1,1.17.14c-1.5,3.64-3,7.22-4.65,10.75-.3.64-.52,1.31-.79,2-1.71,4-3.39,8-5.13,11.92-1.46,3.31-2.89,6.65-4.33,10s-2.93,6.8-4.41,10.19l-4.28,9.87c-1.48,3.4-3,6.78-4.41,10.19s-2.88,6.74-4.37,10.08-2.9,6.64-4.31,10S131.58,209,130,212.39c-.59,1.31-1.13,2.63-1.69,3.93a1.37,1.37,0,0,0,1.06.23c9.37.35,18.73.67,28.09,1,.81,0,1.35-.13,1.59-1a6,6,0,0,1,.36-.72c1.18-2.76,2.33-5.53,3.53-8.29,1.69-3.89,3.42-7.77,5.11-11.66,1.08-2.47,2.11-5,3.17-7.42,1.7-4,3.39-8,5.13-11.92q2.12-4.81,4.18-9.66c1.65-3.87,3.4-7.7,5.08-11.55,1.15-2.65,2.24-5.32,3.39-8,1.76-4.07,3.56-8.13,5.34-12.2,1-2.4,2.1-4.78,3.07-7.21.74-1.88,1.75-3.65,2.31-5.62a20,20,0,0,0,.5-10.15,14.41,14.41,0,0,0-5.09-8,19.91,19.91,0,0,0-11.89-4.47c-7.22-.37-14.45-.57-21.68-.84-1.63-.06-3.26-.1-4.9-.18-.71,0-.73-.11-.44-.74s.65-1.5,1-2.26c1-2.4,2-4.81,3.08-7.19q2.19-4.92,4.27-9.87c1.39-3.3,2.86-6.58,4.28-9.87s2.89-6.82,4.4-10.2,2.86-6.65,4.31-10,3-6.88,4.46-10.3,2.89-6.65,4.32-10c.6-1.4,1.25-2.77,1.81-4.19a1.12,1.12,0,0,1,1.2-.81,122.61,122.61,0,0,1,14.09.63,145.3,145.3,0,0,1,17.83,2.69,149.71,149.71,0,0,1,27.57,8.72,144.93,144.93,0,0,1,17.6,9q6,3.6,11.62,7.73c3.6,2.63,7.05,5.45,10.38,8.42q3.46,3.09,6.72,6.43c2.26,2.3,4.41,4.68,6.51,7.11,1.63,1.88,3.14,3.85,4.67,5.81,2.61,3.37,5,6.9,7.28,10.52a123.22,123.22,0,0,1,6.55,11.79c1,2,1.93,4.07,2.82,6.14,1.64,3.83,3,7.74,4.37,11.67.45,1.32.72,2.71,1.16,4a85.48,85.48,0,0,1,2.39,9.84A109.55,109.55,0,0,1,333,148.8c.24,3.92.45,7.85.3,11.79-.05,1.48.11,3,0,4.44-.41,4.54-.67,9.09-1.38,13.6-.39,2.46-.73,4.93-1.29,7.36-.73,3.15-1.44,6.31-2.37,9.4-.6,2-1.19,4-1.9,6-1.43,4-3,7.88-4.71,11.71-1.28,2.8-2.68,5.54-4.15,8.25-2,3.62-4.12,7.16-6.43,10.59-1.92,2.84-3.94,5.62-6.08,8.3q-3.46,4.34-7.24,8.42-3.56,3.81-7.36,7.36c-2.89,2.67-5.88,5.23-9,7.65q-4.42,3.45-9.08,6.58c-3.5,2.35-7.1,4.51-10.79,6.53-3,1.67-6.13,3.24-9.29,4.67a156.61,156.61,0,0,1-15.1,5.94,154.2,154.2,0,0,1-15.18,4.16c-4.45,1-8.93,1.73-13.44,2.31s-8.88.92-13.34,1.1c-5,.2-10,0-14.93-.22A4.86,4.86,0,0,1,179.68,294.63Z"/><path class="cls-1" d="M220,201.71a9,9,0,0,1,1-2.69c.47-1,.88-2,1.31-3,1.68-3.9,3.32-7.81,5-11.7,1.5-3.38,2.94-6.79,4.42-10.18s2.83-6.5,4.24-9.75,2.91-6.72,4.37-10.08,3-7,4.55-10.51c1.43-3.36,2.88-6.73,4.36-10.07s2.91-6.63,4.33-10c.44-1,.95-2.05,1.37-3.1a.85.85,0,0,1,1-.64c.54,0,1.08,0,1.63.07l19,.68.59,0c1.1.06,1.14.13.63,1.13-.2.38-.39.77-.56,1.16-1.17,2.76-2.29,5.55-3.52,8.28-2.27,5.09-4.46,10.21-6.66,15.33q-2.16,5-4.33,10c-1.45,3.32-2.88,6.65-4.32,10s-2.88,6.65-4.33,10-3,6.93-4.51,10.39c-1.35,3.11-2.72,6.21-4.05,9.32-.8,1.86-1.67,3.69-2.38,5.59a1.08,1.08,0,0,1-1.24.78c-1.86-.1-3.72-.14-5.59-.21l-15-.55A2.27,2.27,0,0,1,220,201.71Z"/></g></svg>