<svg xmlns="http://www.w3.org/2000/svg" viewBox="0 0 378.89 318.43"><defs><style>.cls-1{fill:#5f636c;}</style></defs><title>Plan de travail 4</title><g id="Traits_de_coupe" data-name="Traits de coupe"><path class="cls-1" d="M22.62,104.54c5.23,0,10.46,0,15.69,0,1.34,0,1.73.28,1.72,1.59-.06,9.06,0,18.12,0,27.18v1.93A31.48,31.48,0,0,1,48.07,132a59.35,59.35,0,0,1,13.62-1.16q12.84-.08,25.67.07a37.73,37.73,0,0,1,19,4.85,31.59,31.59,0,0,1,15.34,20.71,46.33,46.33,0,0,1,1,10.89q0,22.47,0,45c0,1.3-.4,1.61-1.73,1.59-4.74-.07-9.48-.08-14.22,0-1.36,0-1.6-.41-1.59-1.57q.12-21.61.14-43.23a32.47,32.47,0,0,0-.54-7.68,17.1,17.1,0,0,0-8.44-11.38,18.74,18.74,0,0,0-9.29-2.2c-9.48-.29-19-.29-28.44-.06a23.72,23.72,0,0,0-4.7.48,17.66,17.66,0,0,0-13.65,14.3,40,40,0,0,0-.32,6.47q0,21.63.07,43.24c0,1.25-.26,1.66-1.67,1.64-5.23-.09-10.46,0-15.69,0Z"/><path class="cls-1" d="M320.87,213.89c-10.74,0-21.47.06-32.21,0a32.88,32.88,0,0,1-18-5.3A31.3,31.3,0,0,1,257,188.86c-2.42-10.11-2.2-20.32-.45-30.49a32.62,32.62,0,0,1,8-16.78c6.52-7.14,15-10.44,24.92-10.53,6.59-.06,13.18-.23,19.77-.12,15.15.26,30.3,0,45.44.13,1.32,0,1.62.36,1.6,1.54-.08,4.48-.1,9,0,13.43,0,1.55-.32,2.06-2.09,2.05Q325.09,148,296,148c-2,0-3.92.05-5.88.08-6.28.09-10.27,3.69-13.56,8.15-4.22,5.72-3.9,12.35-3.82,18.89a55.21,55.21,0,0,0,.46,6.92,16.36,16.36,0,0,0,8.1,12.38c4.11,2.53,8.59,2.68,13.11,2.73,10.08.13,20.17.17,30.25,0s19.93-.07,29.9-.26c1.32,0,1.75.25,1.72,1.58-.09,4.68-.08,9.37,0,14.05,0,1.2-.38,1.42-1.56,1.42C343.43,213.87,332.15,213.89,320.87,213.89Z"/><path class="cls-1" d="M190.31,132c16,0,32.05,0,48.08,0,1.46,0,1.8.36,1.77,1.7-.09,4.58-.08,9.16,0,13.74,0,1.23-.36,1.54-1.64,1.53-12.59,0-25.18,0-37.77,0-1.41,0-1.83.31-1.82,1.69,0,20.44,0,40.87.07,61.31,0,1.45-.44,1.77-1.89,1.75-4.63-.09-9.27-.1-13.9,0-1.41,0-1.67-.4-1.66-1.64q.06-30.42,0-60.84c0-2.24,0-2.24-2.46-2.24-12.26,0-24.52,0-36.79,0-1.56,0-1.89-.45-1.87-1.82q.14-6.72,0-13.44c0-1.33.3-1.73,1.78-1.72C158.27,132,174.29,132,190.31,132Z"/></g></svg>