<svg xmlns="http://www.w3.org/2000/svg" viewBox="0 0 378.89 318.43"><defs><style>.cls-1{fill:#5f636c;}</style></defs><title>Plan de travail 4</title><g id="Traits_de_coupe" data-name="Traits de coupe"><path class="cls-1" d="M145.6,251.48c-1.75,0-3.51.12-5.24,0s-2.07.46-2.06,2.29c.08,8.11.11,16.23,0,24.34-.12,6-2.65,8.56-7.94,8.62-7.58.08-9.82-2.44-9.82-11.05,0-7.38,0-14.76,0-22.14,0-1.67-.44-2.17-1.87-2.06a32.74,32.74,0,0,1-5,0c-1.32-.1-1.66.48-1.63,1.88.15,9-.22,18,.22,26.95.3,6.16,2.54,9.65,7.76,11.72,1.68.66,3.41,1.13,5.12,1.69h1.16a9.29,9.29,0,0,1,6.22,0h.77a50.93,50.93,0,0,0,5.18-1.45c4.72-1.81,8.12-5.14,8.25-11.12.21-9.5.12-19,.18-28.5C146.85,251.56,146.32,251.47,145.6,251.48Z"/><path class="cls-1" d="M126.25,293.69h6.22A17.57,17.57,0,0,0,126.25,293.69Z"/><path class="cls-1" d="M145,120.85a524.53,524.53,0,0,0,26.83,51.26c1.43,2.44,2.91,4.83,4.36,7.26.3.5.65,1.08,1.19.94s.85-.81.87-1.54c0-1,.07-1.9.16-2.84,1.56-16.56,2.21-33.17,2.56-49.81.13-6.42-.07-12.85-.2-19.27-.15-2.92-.31-5.83-.44-8.74a259.86,259.86,0,0,0-4-35.8c-1.67-8.87-3.8-17.57-7.55-25.68-.82-1.76-1.69-2.44-3.49-1.92-2.75.8-5.57,1.27-8.34,1.95a29.65,29.65,0,0,0-14.36,8.23c-10,10.19-12.54,23.08-10.26,37.52C134.48,96.07,139.52,108.58,145,120.85Z"/><path class="cls-1" d="M200.19,186.42c.73.92,1.56,0,2.26-.4q11-6.18,21.65-12.88c0-.15,0-.31,0-.44,0-1.32,0-2.64,0-4a.6.6,0,0,1,.08-.21,35.09,35.09,0,0,0,.15,4.47c5.84-3.66,11.63-7.43,17.32-11.38,10.37-7.19,20.52-14.73,29.4-24.23a39.25,39.25,0,0,0,11.1-25.46,40.74,40.74,0,0,0-.82-10.64c-2.7-12.3-9-22.16-16.51-31.23-1.06-1.28-1.51-1.11-2.41.19q-8.59,12.42-16.58,25.37a605.85,605.85,0,0,0-45.28,88.16C200.18,184.62,199.53,185.6,200.19,186.42Zm25.52-20.72c0,.3-.24.34-.44.39A.76.76,0,0,1,225.71,165.7Z"/><path class="cls-1" d="M106.54,146.22c18.79,15.91,39.41,28.36,60.28,40.33.43.25.88.7,1.4.14s.27-1.18,0-1.78c-1.89-4.48-3.7-9-5.66-13.44a611,611,0,0,0-31.16-61c-8-13.68-16.3-27-25.31-39.87-.39-.57-.81-1.12-1.3-1.78-.43.46-.82.82-1.15,1.22A84.39,84.39,0,0,0,89.89,92.12c-5.81,14.09-5.23,27.61,3.27,40.19C96.88,137.81,101.68,142.1,106.54,146.22Z"/><path class="cls-1" d="M113,196.7c12.67,0,25.35,0,38-.23,3.3,0,6.6,0,9.9,0,.7,0,1.56.28,1.86-.68.36-1.13-.61-1.47-1.22-1.91-4.56-3.33-9.09-6.7-13.71-9.93-24.45-17.09-49.59-32.83-74.83-48.38-1.68-1-1.64.27-1.87,1.29-3.77,16.68-.62,31.58,9.5,44.38C89.25,192.07,100.31,196.7,113,196.7Z"/><path class="cls-1" d="M297.24,137c-.41-1.75-.69-2.41-2.46-1.31-16.66,10.3-33.26,20.73-49.68,31.53-12.85,8.45-25.64,17-38,26.38-.7.52-1.94.84-1.5,2.17.34,1,1.38.47,2.09.47,8.8,0,17.6,0,26.4,0h14.95c4.27,0,8.59.43,12.8-.12C287.24,192.83,303.79,165,297.24,137Zm-73.09,49.26a1.24,1.24,0,0,1-.35-.69c-.17,0-.18-.16-.16-.32s.17.07.19.19.3.41.33.68Z"/><path class="cls-1" d="M246.6,251.45a20.08,20.08,0,0,1-4.65,0c-2.12-.33-2.88.7-3.43,2.88-2.42,9.44-5,18.83-7.52,28.25-.55-.23-.54-.7-.66-1.11-2.61-9.4-5.25-18.79-7.83-28.19-.36-1.29-.83-1.91-2.14-1.83a57,57,0,0,1-6.79,0c-1.27-.07-1.83.41-2.14,1.78-1.29,5.58-2.65,11.13-4,16.69-1,4.2-2.05,8.4-3.2,13.1-.36-1.17-.57-1.82-.77-2.48-2.62-9.09-5.28-18.16-7.84-27.27-.38-1.34-.85-1.9-2.13-1.82a43.47,43.47,0,0,1-5.82,0c-1.64-.12-1.61.58-1.16,2q6.16,19.14,12.23,38.31c.38,1.21.92,1.53,2,1.49,2.39-.07,4.79-.11,7.18,0,1.3.07,1.8-.49,2.11-1.84,1.3-5.72,2.69-11.42,4.05-17.13.91-3.78,1.84-7.57,2.86-11.77.3,1,.47,1.43.6,1.91,2.46,9,4.95,18,7.35,27,.36,1.35.83,1.9,2.12,1.83,2.39-.11,4.79-.12,7.18,0,1.28.07,1.75-.51,2.14-1.82q5.59-19.12,11.32-38.2C248,252,248.05,251.33,246.6,251.45Z"/><path class="cls-1" d="M278,205.12c-10.11-.44-19.72-.9-29.33-1.28q-19.68-.78-39.34-1.43c-.89,0-2.21-.66-2.62.62-.46,1.48,1.14,1.67,1.8,2.45a4.43,4.43,0,0,0,.79.64c9.28,7.31,18.62,14.53,28.81,20.2,4,2.22,8.12,3.87,12.67,3.14C263.91,227.37,271.32,217.15,278,205.12Z"/><path class="cls-1" d="M128.85,227c11.52-6.13,21.88-14.38,32.26-22.58.41-.33.89-.72.62-1.42a1.26,1.26,0,0,0-1.45-.83c-3.22.45-6.46.26-9.68.39q-19.17.81-38.33,1.62c-7.16.3-14.32.55-21.68.82,3,7.77,11.14,17.37,17.78,21.23S121.91,230.68,128.85,227Z"/><path class="cls-1" d="M103.92,251.47c-1.87.05-3.75.09-5.62,0-1.24-.07-1.53.5-1.51,1.78,0,4.31,0,8.62,0,12.93,0,1.58-.28,2.15-1.8,2.11-5-.12-10.09-.09-15.13,0-1.33,0-1.79-.37-1.76-1.94.09-4.38,0-8.76,0-13.14,0-1.36-.38-1.79-1.55-1.73a44.88,44.88,0,0,1-5.44,0c-1.35-.1-1.62.54-1.61,1.9.05,6.28,0,12.56,0,18.85s0,12.85,0,19.28c0,1.29.26,1.85,1.51,1.76a36.66,36.66,0,0,1,5.24,0c1.42.11,1.91-.35,1.87-2-.11-4.52,0-9.05-.07-13.58,0-1.58.44-1.95,1.77-1.93,5,.08,10.09.11,15.13,0,1.53,0,1.82.55,1.79,2.12-.09,4.53,0,9.06-.06,13.58,0,1.4.3,2,1.63,1.86,1.87-.13,3.75-.06,5.62,0,.87,0,1.3-.21,1.29-1.32q0-19.5,0-39C105.33,251.67,104.86,251.44,103.92,251.47Z"/><path class="cls-1" d="M266.46,259c3.8-.59,7.63-.2,11.44-.25,5-.06,5,0,4.77-5.66a.81.81,0,0,1,0-.22c.08-1-.31-1.42-1.24-1.41-5.57.07-11.15-.23-16.69.22-6.56.53-11.58,3.95-13.76,11.44a36.07,36.07,0,0,0-1.11,13c.8,9.89,5.62,15.52,14.33,16.79,4.57.67,9.18.21,13.77.27,4.76.07,4.7,0,4.73-5.37,0-1.67-.42-2.09-1.86-2.06-4.4.11-8.81.15-13.2,0-5.15-.18-7.79-2.87-8.19-7.91-.12-1.5.06-2.25,1.68-2.17,3.23.15,6.47.05,9.71.05h7.38c4.47,0,4.4,0,4.48-5,0-1.85-.31-2.53-2.11-2.49-6.54.14-13.08,0-19.62.09-1.4,0-1.63-.55-1.4-1.93C260.29,262.13,262.55,259.61,266.46,259Z"/><path class="cls-1" d="M174.8,252.69a1.66,1.66,0,0,0-1.8-1.23c-2.07.07-4.14.11-6.21,0-1.24-.07-1.79.48-2.29,1.73-4,9.9-8,19.77-12,29.66-1.37,3.36-2.71,6.73-4.16,10.37,2.92,0,5.55,0,8.18,0,.86,0,1-.62,1.29-1.32.85-2.37,1.78-4.7,2.55-7.1.39-1.21.93-1.65,2.11-1.63,4.72.08,9.44.09,14.17,0,1.19,0,1.7.46,2.1,1.64.8,2.39,1.75,4.71,2.6,7.08.28.81.57,1.36,1.49,1.34,2.71-.06,5.42,0,8.3,0a8,8,0,0,0-.21-.95Q182.87,272.48,174.8,252.69Zm-10,23c-1.06,0-1-.53-.67-1.36,1.7-4.61,3.39-9.24,5.26-14.38,2.06,5.46,3.95,10.45,5.94,15.73C171.66,275.72,168.25,275.7,164.85,275.73Z"/><path class="cls-1" d="M298.66,253.3c0-1.42-.36-1.93-1.66-1.85a53.62,53.62,0,0,1-5.81,0c-1.14-.05-1.46.45-1.41,1.65.07,1.68,0,3.36,0,5,0,11,0,22,0,33.05,0,1.66.4,2.17,1.85,2.05a36.32,36.32,0,0,1,5.42,0c1.33.1,1.64-.46,1.62-1.85,0-6.35,0-12.7,0-19.05S298.6,259.65,298.66,253.3Z"/><path class="cls-1" d="M188.67,97.57a1.18,1.18,0,0,1-.27.06l.33,0Z"/><path class="cls-1" d="M230.32,101.93l0,.08v-.07Z"/><path class="cls-1" d="M224.41,119.81a522.36,522.36,0,0,1-26.83,51.26c-1.43,2.44-2.91,4.83-4.36,7.26-.29.5-.65,1.08-1.19.94s-.85-.81-.87-1.54c0-.95-.07-1.9-.16-2.85-1.56-16.55-2.21-33.17-2.56-49.8-.13-6.42.07-12.85.2-19.27.15-2.92.31-5.83.45-8.74a258.31,258.31,0,0,1,4-35.8c1.68-8.87,3.8-17.57,7.55-25.68.82-1.76,1.69-2.44,3.49-1.92,2.75.8,5.57,1.27,8.34,1.95a29.61,29.61,0,0,1,14.36,8.23c10,10.19,12.54,23.08,10.27,37.52C234.92,95,229.88,107.54,224.41,119.81Z"/><path class="cls-1" d="M261.81,146.22c-18.79,15.91-39.41,28.36-60.28,40.33-.43.25-.88.7-1.41.14s-.26-1.18,0-1.78c1.89-4.48,3.7-9,5.66-13.44a611,611,0,0,1,31.16-61c7.95-13.68,16.3-27,25.3-39.87.4-.57.82-1.12,1.31-1.78.43.46.81.82,1.15,1.22a84.39,84.39,0,0,1,13.77,22.13c5.81,14.09,5.23,27.61-3.27,40.19C271.47,137.81,266.67,142.1,261.81,146.22Z"/><path class="cls-1" d="M255.34,196.55c-12.67,0-25.35,0-38-.23-3.3,0-6.6,0-9.9,0-.7,0-1.56.28-1.87-.68-.35-1.13.62-1.47,1.23-1.91,4.56-3.33,9.09-6.7,13.71-9.92,24.45-17.1,49.59-32.84,74.83-48.39,1.68-1,1.64.27,1.87,1.29,3.77,16.68.62,31.58-9.51,44.38C279.12,191.92,268.06,196.55,255.34,196.55Z"/></g></svg>