<svg xmlns="http://www.w3.org/2000/svg" viewBox="0 0 378.89 318.43"><defs><style>.cls-1{fill:#5f636c;}</style></defs><title>Plan de travail 4</title><g id="Traits_de_coupe" data-name="Traits de coupe"><path class="cls-1" d="M211.43,58.07c5.54,1.17,10.22,4.07,14.74,7.5A53.24,53.24,0,0,1,235,74.13a61.59,61.59,0,0,1,11.31,21.62c2.47,8.13,2.92,16.46,2.91,24.9q-.07,69,0,138c0,3.75-.2,4-3.83,4H211.51c-3.56,0-3.72-.16-3.72-3.81q0-63,0-125.91c0-8.74-2.33-16.69-7.79-23.42-5.61-6.91-12.84-9.86-21.54-9.8-26,.17-52,.06-78,.06-3.49,0-3.61.13-3.61,3.88V258.3c0,4.1-.19,4.3-4.18,4.3H58c-2.77,0-3.21-.44-3.21-3.28V59.57c0-3.4.37-3.77,3.65-3.77q69.48,0,138.94,0a42.74,42.74,0,0,1,12.67,1.44C210.41,57.72,211,57.76,211.43,58.07Z"/><path class="cls-1" d="M324.11,159.49v99.08c0,3.86-.21,4.07-4,4.07H285.47c-2.92,0-3.43-.53-3.43-3.58V59.81c0-3.51.44-4,3.69-4H320.4c3.39,0,3.7.32,3.7,3.92Q324.12,109.62,324.11,159.49Z"/><path class="cls-1" d="M172.7,199.76q0,29.66,0,59.31c0,3.19-.35,3.56-3.37,3.57H134c-2.83,0-3.35-.53-3.35-3.42V140.16c0-3.31.53-3.84,3.63-3.84H169c3.3,0,3.72.43,3.72,3.91Q172.71,170,172.7,199.76Z"/><path class="cls-1" d="M211.43,58.07c-.68.14-1.27.11-1.38-.82C210.64,57.29,211.41,57,211.43,58.07Z"/></g></svg>