<svg xmlns="http://www.w3.org/2000/svg" viewBox="0 0 378.89 318.43"><defs><style>.cls-1{fill:#5f636c;}</style></defs><title>Plan de travail 4</title><g id="Traits_de_coupe" data-name="Traits de coupe"><path class="cls-1" d="M273.35,144.33a25.2,25.2,0,0,0-8.46-6.18c-14.56-6.78-29.73-7.3-45.24-4.26-3,.58-1.83,2.92-1.67,4.42.19,1.75,1.64.49,2.47.31,11-2.37,21.79-2.21,31.83,3.49,9.66,5.48,9.63,14.37.09,20a30.56,30.56,0,0,1-5,2.34c-7.23,2.65-14.69,3-22.23,1.9a33.74,33.74,0,0,1-14.43-5.3,4.81,4.81,0,0,1-2.38-4.57c.17-7,.06-14.06.17-21.09,0-1.63-.38-2.25-2.09-2.2-3.32.11-6.64.07-10,0-1.56,0-2.25.3-2.25,2.06q0,24.9-.21,49.8c0,1.81.73,2.08,2.26,2.05,3.22-.07,6.45-.12,9.66.06,2,.11,2.43-.64,2.4-2.49-.09-5.76,0-11.51,0-17.63l2.63,1a72.17,72.17,0,0,0,50.15.45,28.9,28.9,0,0,0,12-7.56C277.92,155.68,278,149.65,273.35,144.33Z"/><path class="cls-1" d="M182.53,144.24a23,23,0,0,0-7.32-5.75c-15-7.53-30.7-8.13-46.8-4.92-2.74.55-1.59,2.91-1.48,4.34.14,1.8,1.62.5,2.44.32,10.28-2.26,20.38-2.09,30,2.49,4.62,2.19,8.9,5.22,9,10.93.06,5.89-4.37,8.87-9.07,11.14-8,3.87-16.53,4.34-25.18,3.17a33.49,33.49,0,0,1-14.44-5.28,5,5,0,0,1-2.5-4.81c.2-6.92,0-13.86.2-20.79,0-1.84-.47-2.36-2.27-2.29-3.22.12-6.45.13-9.66,0-2-.1-2.43.62-2.41,2.49.06,8.1,0,16.21-.06,24.31s0,16.21-.17,24.3c-.06,2.44.74,3,3,2.85a80.36,80.36,0,0,1,8.78,0c2,.12,2.71-.32,2.64-2.51-.16-5.16,0-10.34,0-15.51,0-1.92.43-2,2.13-1.37,14.83,5.93,30,6.34,45.38,2.48,6.68-1.67,13-4.35,17.72-9.67C186.79,155.17,186.8,149.31,182.53,144.24Z"/><path class="cls-1" d="M78.78,135.65c-13.86-5.11-28-5.51-42.35-2.21-6.14,1.42-12,3.66-16.87,7.75-7.57,6.31-7.56,14.23,0,20.62A32.75,32.75,0,0,0,28.28,167c8.33,3.46,17.06,4.77,26.33,4.85,9.06,0,18.18-1.35,26.8-5.2,4.42-2,8.47-4.49,11.21-8.64,3-4.52,2.53-9-.59-13.24C88.61,140.17,83.91,137.55,78.78,135.65Zm-4,22a20.88,20.88,0,0,1-9.26,5.9,45.49,45.49,0,0,1-33.39-1.26c-4.74-2-8.89-4.91-9-10.75s4-8.81,8.54-11.15c5.83-3,12.16-4,18.69-3.94,7,.05,13.76,1.26,19.92,4.84A17.81,17.81,0,0,1,74.75,145C78.21,149,78.21,153.73,74.75,157.7Z"/><path class="cls-1" d="M360.81,143.89a27.56,27.56,0,0,0-9.75-6.35,71.55,71.55,0,0,0-52.3-.39,27.76,27.76,0,0,0-10.53,6.72c-5.28,5.48-5.31,11.91-.1,17.42A27.57,27.57,0,0,0,296.2,167c9,4.39,18.54,5.85,28.39,6a61.89,61.89,0,0,0,10.8-.68,70.65,70.65,0,0,0,8.31-1.67c6.28-1.67,12.26-4,17-8.7C366.43,156.26,366.44,149.62,360.81,143.89ZM340,162.79c-13.36,6.5-26.89,6.14-39.93-.63-9-4.67-9.07-13.64-.54-19.19,6.44-4.18,13.7-5.38,21.24-5.35,6.83,0,13.41,1.2,19.41,4.61,4,2.3,7.58,5.27,7.53,10.35S344.15,160.77,340,162.79Z"/></g></svg>