<svg xmlns="http://www.w3.org/2000/svg" viewBox="0 0 378.89 318.43"><defs><style>.cls-1{fill:#5f636c;}</style></defs><title>devPlan de travail 4</title><g id="Traits_de_coupe" data-name="Traits de coupe"><path class="cls-1" d="M119.38,189c-4.68-.81-9.13-1.57-13.57-2.35q-22-3.83-43.93-7.67c-9.92-1.76-20-3.12-29.72-5.54-15.26-3.8-25.94-18.8-25.41-34.54,0-.51.1-1,.19-1.75l11.89,2c13,2.26,26,4.5,39,6.8,12,2.13,24,3.95,35.83,6.62,13.51,3,23.83,15.21,25.51,28.91.21,1.73.26,3.48.35,5.23C119.52,187.41,119.43,188.05,119.38,189Z"/><path class="cls-1" d="M119.18,190a32.83,32.83,0,0,1-6.2,16.68c-7.17,9.81-16.92,14.89-29,14.95-24,.1-48,0-72,0-1.24,0-2,0-2-1.7.08-9.46,0-18.92.05-28.39,0-.5.09-1,.14-1.58Z"/><path class="cls-1" d="M114.32,104.7v31.38H6.63c.94-3.32,1.47-6.61,2.78-9.57,6.29-14.28,17.43-21.73,33-21.88,23.52-.24,47-.07,70.56-.06C113.33,104.57,113.71,104.64,114.32,104.7Z"/><path class="cls-1" d="M365.38,104.35V222H130.76V104.35ZM134.75,217.91H361.4V108.3H134.75Z"/><path class="cls-1" d="M256.08,116.78H276.5v91.93H256.17V178c-2.61,1.82-4.83,3.45-7.14,4.92a5.9,5.9,0,0,1-2.84.9c-3.43.1-6.87,0-10.31,0-.63,0-1.26.06-2.08.09v24.71H213.34V183.88h-4.77l-.18-.42c1.16-.84,2.28-1.73,3.48-2.48a3,3,0,0,0,1.48-2.85q-.07-29.46,0-58.92v-2.59h2.83c5.12,0,10.24.09,15.36-.05,1.93,0,2.34.6,2.33,2.42-.07,18.15,0,36.3,0,54.45v2.4h22.28Z"/><path class="cls-1" d="M349.75,116.85c-.92,2.34-1.71,4.59-2.73,6.73-.22.45-1.28.67-2,.68-7.91,0-15.81,0-23.72,0-5.31,0-10.11,1.49-14,5.21-6.27,5.95-5.42,14.82,1.81,19.56,4.16,2.73,8.92,3.7,13.66,4.72,5.82,1.24,11.64,2.41,16.84,5.58,15.93,9.69,17.35,30,2.85,41.88a32.29,32.29,0,0,1-21.28,7.63q-14.4-.08-28.78,0a2.24,2.24,0,0,1-2.55-1.72c-.68-2-1.57-3.93-2.48-6.16.91,0,1.58-.11,2.26-.11h27a18.27,18.27,0,0,0,12.1-4.54C336,190.21,335,179.87,326.7,175c-4.54-2.67-9.63-3.69-14.65-4.9-6-1.44-11.85-3.19-17-6.8-15.17-10.63-13.33-29.27-.67-39.35A31.19,31.19,0,0,1,314,116.71c11.47-.06,22.95,0,34.42,0A10,10,0,0,1,349.75,116.85Z"/><path class="cls-1" d="M143.23,116.68h12c2.59,0,5.19.07,7.78,0,1.46-.06,2.09.33,2.47,1.89q7.65,31.33,15.46,62.64a16.7,16.7,0,0,0,.59,1.62c1.79-8.26,3.51-16.05,5.18-23.85q3.06-14.31,6.07-28.63a26.42,26.42,0,0,0-.49-13.57h12.14c-.76,3.62-1.47,7.08-2.22,10.53-5.28,24.5-10.63,49-15.75,73.52-.39,1.84.82,4,1.38,6a8.7,8.7,0,0,0,1.08,1.82,8.61,8.61,0,0,1-1.32.22c-6.74,0-13.48,0-20.22,0-1.23,0-1.68-.45-2-1.57q-11-44.68-22.06-89.35A11,11,0,0,1,143.23,116.68Z"/></g></svg>