<svg xmlns="http://www.w3.org/2000/svg" viewBox="0 0 1591.17 686.3"><defs><style>.cls-1{fill:#5f636c;}</style></defs><title>Plan de travail 5</title><g id="Traits_de_coupe" data-name="Traits de coupe"><path class="cls-1" d="M639.81,376.39l-.7,4.56c-.69.66-.35,1.77-1,2.45,0,4-1.93,7.64-2.41,11.57-.69.66-.35,1.78-1,2.45.05,4-1.92,7.63-2.41,11.55-.77.58-1.65.31-2.48.31-16.54,0-33.08,0-49.62.07-2.27,0-3.2-.78-3.63-2.92-.94-4.61-2.12-9.17-3.36-13.7-.35-1.39-.1-2.94-1.07-4.17-.55-2.38-.71-4.87-1.73-7.14A111.94,111.94,0,0,0,567.11,368a31.3,31.3,0,0,1-1-3.31c.09-2.54-1.31-4.71-1.7-7.13.17-2.53-1.37-4.63-1.71-7,.16-2.52-1.38-4.61-1.72-7,0-2.43-1-4.63-1.68-6.9a25.36,25.36,0,0,0-2-7,15,15,0,0,1-.93-2.87c-.27-1.16.47-2.54-.71-3.52l-.32-.63a101.8,101.8,0,0,0-3.61-15.44,12.16,12.16,0,0,1-.55-4c-1.17-1.8-.6-4.52-2.9-5.71h0c-1.25-.58-2.25.23-3.33.6l-.06-.07a3.61,3.61,0,0,0-.56,2.78c.13,3.34-.66,6.64-.09,10s-1.4,6.75-1.39,10.32c.08,25.16,0,50.31,0,75.47a63.09,63.09,0,0,0,.84,6.57c0,1.95,0,3.89,0,5.84a4.17,4.17,0,0,1-2.51.28c-15.21,0-30.42,0-45.64.07-2.34,0-3.06-.6-3-3,.38-14.55.72-29.11,1.34-43.64.35-8.06.13-16.1.43-24.15,0-1-.25-2.14.26-3.15.08-7.49-.43-15.05.37-22.46,1.76-16.35.61-32.75,1.52-49.1.09-1.66.65-2.31,2.17-2.27.57,0,1.14,0,1.71,0h80.51c4.11,0,4.1,0,4.66,4.33.12,1,.37,1.91.56,2.86a2.36,2.36,0,0,1,.46,1.45,2.74,2.74,0,0,0,.54,2.11l.69,4.63a2.21,2.21,0,0,1,.49,1.44,2.77,2.77,0,0,0,.53,2.12l.69,4.62a2.17,2.17,0,0,1,.49,1.44,2.81,2.81,0,0,0,.53,2.12l.69,4.62a2.18,2.18,0,0,1,.49,1.45,2.87,2.87,0,0,0,.53,2.12L593,302c.78.85.17,2.19,1,3a.85.85,0,0,0,.1.5c.71.9.47,1.95.47,3,1,2,.82,4.25,1.29,6.37.61.69.29,1.78,1,2.43a15.92,15.92,0,0,0,.67,4.61,2.15,2.15,0,0,1,.5,1.46,3.53,3.53,0,0,0,.46,2.18l.79,5.69a2.31,2.31,0,0,1,.46,1.46c0,.74-.07,1.52.55,2.1l.67,3.48a2.16,2.16,0,0,1,.49,1.45,3.63,3.63,0,0,0,.47,2.19c1.72.82,3.47,1.84,4.7-.71a3,3,0,0,1,.4-1.74c.65-3.66,2-7.17,2.21-10.94,1-1.26.7-2.85,1-4.3,1-2,.78-4.42,1.66-6.5.62-2.71,1.93-5.27,1.64-8.16.42-1.72.87-3.42,1.17-5.16v0c1.16-4.81,1.94-9.71,3.16-14.51a30.43,30.43,0,0,0,1.64-9l-.2-.37c1.5-1.48,1.33-3.6,1.71-5.4s.78-3.55,1.16-5.32c1.1-3,1.14-6.36,2.88-9.16,6.65,0,13.31-.11,20-.11,21.11,0,42.23.06,63.34-.09,2.94,0,3.53.85,3.55,3.71,0,11.37-.15,22.79.77,34.11,1.16,14.33.56,28.72,1.7,43,1.15,14.52,1.11,29,1.48,43.56.91,1.91.31,3.95.49,5.92.12,1.4-.34,2.88.49,4.19q.08,7,.13,14.06a5.3,5.3,0,0,1-2.53.23H668.71c-3.2,0-3.28,0-3.23-3.17.14-10.7-.18-21.41-.55-32.09-.26-7.37-.57-14.74-.61-22.12q0-25,0-50.07c0-4-.67-4.54-4.57-3.87-1.78,2-1.35,4.55-1.79,6.89-.62.71-.34,1.79-1,2.49-.53,3.91-2.36,7.53-2.48,11.53-.38.61-.49,1.36-.92,1.94l-.79,5.08c-.38.61-.49,1.35-.93,1.93l-.78,5.08c-.38.61-.5,1.35-.93,1.94l-.78,5.07c-.39.61-.5,1.36-.94,1.94l-.74,4.53c-.64.7-.36,1.77-1,2.48l-5.88,25.06C640.14,374.6,640.47,375.71,639.81,376.39Z"/><path class="cls-1" d="M1211.48,363.5c-.16-.41-.32-.83-.49-1.24a8.57,8.57,0,0,1-1.42-2.33c-1.2-2.34-2.77-4.46-4-6.79a6.88,6.88,0,0,0-1.64-2.62c-.37-.32-.57-.81-1-1l-.49-1.24A10.91,10.91,0,0,1,1201,346c-.28-1.43-1.74-2.16-2-3.58v0c-.46-.91-1.38-1.58-1.4-2.73-1.08-1.55-1.75-3.41-3.16-4.74a6.87,6.87,0,0,0-1.74-2.29c-.52-.32-.6-1-1.16-1.32-.16-.42-.33-.84-.49-1.25-.61-.4-.53-1.34-1.24-1.66-.16-.41-.33-.82-.49-1.24a10.57,10.57,0,0,1-1.41-2.26c-.41-1.41-1.59-2.31-2.27-3.55a2.58,2.58,0,0,1-.35-1.12,2.51,2.51,0,0,0-2.1-1.66c-1.41-.29-2.27,0-2.15,1.65.07,1.14-.24,2.31.2,3.43q.09,6.36.17,12.72c1,2.1.28,4.33.49,6.5.14,1.59-.38,3.25.48,4.77l.75,34.37c1,2.3.26,4.73.48,7.08.2,2.17-.46,4.4.47,6.51.07,3.9.09,7.79.24,11.68.06,1.58-.3,2.24-2,2.23q-23.84-.09-47.67,0c-1.78,0-2.44-.53-2.44-2.51q.09-48.18,0-96.37c0-15.57.16-31.14.13-46.71,0-2.52.71-3.41,3.22-3.4,19.42.08,38.83.05,58.24,0a4,4,0,0,1,4,2.27c5.29,9.24,10.92,18.28,16.36,27.43,4.26,7.18,8.25,14.54,12.68,21.61,4.11,6.58,8.05,13.28,12,20,3.11,5.34,6.33,10.61,9.51,15.91a20.34,20.34,0,0,1,1.47,2.38c.49,1.15,1.28,1.26,2.32,1.08,1.4-.25,1.11-1.36,1.13-2.27.14-6.87-1.34-13.62-1.22-20.52.17-8.94.26-18-.76-26.82-.92-8-.07-16-.91-24a106.61,106.61,0,0,1,0-15.06c.07-1.13.23-1.71,1.55-1.71,16.49.06,33,0,49.49.07.17,0,.34.15.51.24.31,12.77.29,25.54,0,38.31a6.92,6.92,0,0,1,.2,2.6q0,52.2,0,104.41a5.68,5.68,0,0,1-.23,2.59v0a6.08,6.08,0,0,1-2.81.23q-27.51,0-55,0c-1.61,0-3.28.22-4.42-1.36a15.77,15.77,0,0,1-1.34-1.37c-.09-1.39-1.4-2.06-1.83-3.26-.09-1.41-1.84-1.95-1.76-3.47-.64-1-1.31-2-1.9-3-2.36-3.83-4.36-7.91-7.54-11.16l0,0a42.08,42.08,0,0,0-4.09-7.07c-.39-.33-.6-.85-1.06-1.1-.17-.42-.33-.83-.49-1.25-.61-.4-.53-1.34-1.24-1.66l-.49-1.24a10.35,10.35,0,0,1-1.4-2.27c-.35-1.44-1.71-2.23-2.22-3.57a7.07,7.07,0,0,0-1.7-3C1212.15,364.24,1211.94,363.74,1211.48,363.5Z"/><path class="cls-1" d="M1082,378.65c-1.5,10.08-7.17,17.11-15.51,22.17a35.62,35.62,0,0,0-3.35,1.9c-5.09,3.26-10.73,5-16.51,6.38a141.89,141.89,0,0,1-19.43,3.6,158.6,158.6,0,0,1-28.16.39c-10.72-.68-21.28-2.3-31.49-5.88a53.42,53.42,0,0,1-22.66-15,15.54,15.54,0,0,1-3.47-4.86A20.36,20.36,0,0,1,938,375.77c0-18.2.15-36.4.18-54.59,0-18.89.08-37.77-.07-56.66,0-3,.81-3.67,3.64-3.64,16.46.14,32.92.06,49.38.07.95,0,1.89.1,2.84.15.7,1.4.25,2.88.25,4.32q0,53.13,0,106.27a7.19,7.19,0,0,0,1.36,4.58c4.58,7.79,13.88,10.75,23.33,7.43.44-.15.89-.27,1.34-.4a11.13,11.13,0,0,0,3.39-2.38h0a11.3,11.3,0,0,0,3.19-8.7c0-.29,0-.58,0-.87-.36-36.27,1-72.54.58-108.81a8.93,8.93,0,0,1,.05-1.16c.36-.66.93-.49,1.48-.39,6.46.37,12.93.11,19.4.15,9.23.05,18.46,0,27.69,0,4.66,0,5,.39,5.06,5.13v106.3c0,1.54-.25,3.15,1,4.4A1.75,1.75,0,0,1,1082,378.65Z"/><path class="cls-1" d="M1363.62,400.78l-.64-.66c-5.36-4-10-8.78-12-15.44a35.77,35.77,0,0,1-2-10.75c.12-20.33,0-40.67.08-61,0-3.48-.23-7,.43-10.45a12.25,12.25,0,0,0-.22-5.2c-.63-2.49-.11-5,.29-7.5,0-.49,0-1,0-1.49a33,33,0,0,0,2-6,37.28,37.28,0,0,1,8.21-11.53,2.54,2.54,0,0,1,1.43-.8,7.43,7.43,0,0,1,1.79-1.66c3.64-3.16,8-4.9,12.37-6.63,10.46-4.18,21.47-5.71,32.58-6.22,15.89-.72,31.69.06,47.13,4.49,7.84,2.25,15.29,5.35,21.31,11.18,2.89,2.79,5.4,5.93,6.58,9.95.69.65.35,1.77,1,2.42l.71,5.76c1,4.9.33,9.84.37,14.76,0,1.12-.88,1.33-1.82,1.32h-50.08c-1.26-.32-.79-1.38-.8-2.15-.06-3,0-6,0-9,0-6.44-3.81-10.61-10.11-11.06a3.06,3.06,0,0,1-1.66-.25,26.69,26.69,0,0,0-11.93,2.25c-3.32,1.46-5.42,4-5.41,7.94q.08,40,.18,80a9.82,9.82,0,0,0,4.75,8.53c6.41,4.22,16.2,3.53,21.45-1.44a9.53,9.53,0,0,0,3-7.2c0-7.11,0-14.22.05-21.32,0-2.2-.77-2.92-2.84-2.85-3,.12-6.09-.06-9.13.05-1.69.06-2.37-.44-2.34-2.29.1-5.64.09-11.29,0-16.94,0-1.71.38-2.4,2.2-2.4q31.85.09,63.68,0c1.52,0,2,.51,1.94,2-.27,17.23.49,34.47-.5,51.69-.7.77-.46,1.74-.52,2.64a2.23,2.23,0,0,1-.5,1.52c-1.91,10.48-9.28,15.79-18,19.79-8.4,3.86-17.36,5.56-26.38,6.87a152.42,152.42,0,0,1-52.47-1.71,73,73,0,0,1-14.64-4.47C1370.16,403.63,1366.76,402.49,1363.62,400.78Z"/><path class="cls-1" d="M106.8,387.38c-3.17-7.93-1.2-16.24-1.69-24.37-.11-1.89,1.44-1.48,2.46-1.48,7,0,14.05,0,21.08,0,10,0,19.93.05,29.9,0,1.94,0,2.62.44,2.55,2.54-.15,4.07,0,8.15,0,12.23.47.54.5,1.34,1,1.85,1.1,3.35,3.86,4.71,6.78,5.83,7.83,3,16.44,1.24,21.21-4.19a10.36,10.36,0,0,0,1.23-2.22,4,4,0,0,0,.77-1.4,11.57,11.57,0,0,0-.85-9c-3.77-6.36-10-9.22-16.34-11.8-.88-.36-1.79-.66-2.7-.93-2.07-.56-3.94-1.76-6.1-2h0a20.31,20.31,0,0,0-5.73-2.35l-22.29-8.72c-1.61-.62-3-1.74-4.61-2.31-.71.13-1-.51-1.53-.8-.95-.59-1.79-1.42-3-1.5a27.58,27.58,0,0,0-3.24-2l-.63-.64c-.89-.64-1.88-1.11-2.79-1.7l-.77-1a23.07,23.07,0,0,0-2.82-2.4l0,0c-.31-.85-1.08-1.23-1.71-1.76h0a32.13,32.13,0,0,1-6.19-11.92c-1.87-9.06-.47-18.23-.9-27.34a1.75,1.75,0,0,1,.28-1.09c1-5.65,2.72-10.92,7.37-14.65,1-.72,2.25-1.13,2.9-2.31,8.48-6.25,18.34-8.82,28.34-10.81a158.16,158.16,0,0,1,62.52.35c9.65,1.94,18.9,5.22,26.18,12.47,2.42,2.41,4.88,4.94,5.83,8.48.51.52.55,1.32,1,1.85.54,7.18.1,14.37.35,21.55.08,2.28-1.2,2.17-2.71,2.17q-15.66,0-31.32,0c-5.22,0-10.45-.07-15.66,0-1.91,0-2.5-.64-2.41-2.52.12-2.61-.12-5.25.07-7.86a9.16,9.16,0,0,0-2-6.42c-1.34-1.74-3.27-2.57-5.16-3.46a24.22,24.22,0,0,0-16.51-.6,18.89,18.89,0,0,0-2.88,1.17,22.75,22.75,0,0,0-3.87,4.15c-.79.33-.74,1.23-1.2,1.79-2.18,7.38,4.43,14,11.11,16.94,11.51,5.11,23.38,9.18,35.19,13.45,9.88,3.58,19.89,7,28.21,14,8.67,7.3,13.28,16.42,12.8,28.06a88.17,88.17,0,0,0,0,9.34c.79,11.86-4.69,20.27-13.89,26.57a55.62,55.62,0,0,1-16.87,7.85,155.47,155.47,0,0,1-18.85,4c-4.66.61-9.29,1.49-14,1.52-5.88,0-11.74.31-17.62,0a136,136,0,0,1-28.64-4,59.87,59.87,0,0,1-20.81-9.62,31.42,31.42,0,0,1-7.26-7.25c-.9-1.37-2.18-2.51-2.56-4.22C107.41,388.52,107.29,387.8,106.8,387.38Z"/><path class="cls-1" d="M810.06,293.91c-1.43,5,3.86,11.43,8.77,14,10.36,5.39,21.39,9.05,32.35,12.88,10.33,3.61,20.74,7.1,30,13.18,7.66,5,13.15,11.87,15.12,21.23.79.86.18,2.2,1,3l0,22.65c-.63.71-.33,1.79-1,2.48-1.59,8-6.79,13.31-13.15,17.56-8.51,5.68-18.06,8.58-27.94,10.51a168.21,168.21,0,0,1-32.44,2.81c-13.78-.19-27.45-1.3-40.65-5.85-1.43-.5-2.8-1.18-4.23-1.67-6.38-2.76-12.32-6.2-17.08-11.49a11.55,11.55,0,0,1-1.8-3,26,26,0,0,1-4.74-16.63c.25-4.64-.34-9.31.3-13.95,3.89-.07,7.78-.18,11.68-.19,13.71,0,27.41,0,41.12-.06,2,0,2.9.39,2.72,2.69-.21,2.8,0,5.64-.06,8.47-.17,5.21,2.17,9,6.76,10.78,7.23,2.88,14.36,3.15,20.83-2.34,1.19-1,1.67-2.45,2.7-3.51a6.93,6.93,0,0,1,.72-.9,8.23,8.23,0,0,0,.18-7.09c-.61-3.38-3-5.41-5.34-7.52-.79-.71-1.78-1.12-2.55-1.85a14.3,14.3,0,0,1-2.08-1.36c-3.3-2.37-7.21-3.31-10.9-4.77-10.66-4.21-21.39-8.24-32-12.5-4.05-1-7.35-3.56-10.91-5.58l0,0a20.43,20.43,0,0,1-3.54-2.11c-.94-.63-1.87-1.28-2.75-2h0c-.57-1.28-2-1.44-2.87-2.33L766,327.22a12,12,0,0,1-2-2.35c-.22-.93-1-1.58-1.16-2.55-1-1.82-2.24-3.49-2.73-5.56-1.52-3.39-1.74-7-1.76-10.65,0-5.69-.11-11.38.25-17.06.27-3.64,1.91-6.92,2.75-10.41,1-1.34,1.31-3.19,3-4a3.7,3.7,0,0,1,1.7-1.5c1.62-2.68,4.38-3.93,6.77-5.64,3.25-3,7.33-4.28,11.34-5.6,11.19-3.67,22.78-5.08,34.47-5.41,14.82-.43,29.64-.17,44.14,3.59,8.59,2.22,16.91,5.07,23.58,11.53a22.7,22.7,0,0,1,6.57,10.59c.8.84.18,2.19,1,3l0,20.35c-1,.86-2.16.6-3.28.6q-22.06,0-44.12,0c-.19,0-.38,0-.57,0-4.27-.07-4.27-.07-4.27-4.26,0-2.23-.07-4.47,0-6.7a7.2,7.2,0,0,0-1.47-5.12c-2.26-4.11-6.46-4.66-10.3-5.79-3.22-.95-6.47-.38-9.69.25-3.35,1.26-6.93,2.17-8.71,5.86a10.87,10.87,0,0,0-.5,1.62C810.61,292.58,810.53,293.36,810.06,293.91Z"/><path class="cls-1" d="M356.5,339.52c-.23,2.29-.47,4.59-.7,6.88-1,1-.1,2.58-1,3.6l-.73,5.74c-.77.88-.17,2.21-1,3.07l-.71,6.3c-.8.87-.21,2.19-1,3.07-.26,2.45-.51,4.9-.77,7.35-.72.91-.18,2.23-1,3.11q-.92,5.49-1.82,11c-1.05,1.21,0,3-1.06,4.19l-.66,5.16c-.93,1-.12,2.58-1,3.63-.23,1.92-.45,3.85-.68,5.77-.88,1-2,.92-3.17.92q-25.07,0-50.13,0c-1.32,0-3.1.45-2.67-2a12.45,12.45,0,0,0,.69-4.49c.56-.74.31-1.83,1-2.52.58-4.08,2.54-7.86,2.4-12.09.75-.89.15-2.27,1.07-3.1.2-1.14.41-2.29.62-3.44.67-.66.33-1.78,1-2.43.21-1.73.43-3.45.64-5.18.88-.8.21-2.18,1.08-3,.22-1.33.45-2.67.67-4,.67-.66.33-1.78,1-2.43l.64-5.18c.51-.5.54-1.23.82-1.85a33.72,33.72,0,0,0,1.79-7.08c1.14-4.39,2.57-8.71,3.07-13.26.28-2.63,1.56-5,1.79-7.66a64.58,64.58,0,0,0,2.5-9.8c.3-1.63,1-3.16,1.14-4.83a38.9,38.9,0,0,0,1.65-7.39c1.16-.84.82-2.17,1-3.32,1.13-2.35,1.15-5,1.92-7.45.89-4.9,2.65-9.59,3.18-14.57,1.12-3.13,1.58-6.44,2.53-9.61,1.08-3.61.9-7.59,3.07-10.87,1.13-.07,2.27-.19,3.4-.19,26.84,0,53.69,0,80.53-.08,2.93,0,4.7.5,4.7,3.81.83.82.19,2.19,1.06,3-.08,4.05,1.71,7.71,2.37,11.61.83.82.19,2.19,1.06,3a15.49,15.49,0,0,0,.66,4.59c.64.72.43,1.78,1,2.54l1.89,8.56A2.17,2.17,0,0,1,421,300c0,.75-.07,1.53.55,2.11.24,1.71.47,3.42.71,5.13.42.58.48,1.36,1,1.89.23,1.35.45,2.69.68,4a2.17,2.17,0,0,1,.49,1.44c0,.75-.07,1.53.55,2.11.23,3.81,1.89,7.31,2.39,11.06a2.23,2.23,0,0,1,.49,1.44c0,.75-.07,1.53.55,2.11.22,1.35.45,2.69.67,4,.66.68.35,1.78,1,2.46l.68,4.56c.67.69.39,1.78,1,2.48l.72,5.1c.66.68.34,1.78,1,2.45l.69,4.57c.65.7.39,1.78,1,2.5l.72,5.64c.66.67.33,1.79,1,2.44.23,1.35.46,2.69.68,4a2.1,2.1,0,0,1,.5,1.44c0,.74-.07,1.52.55,2.11l.68,4c.65.68.34,1.78,1,2.46l.69,4.57c.66.7.4,1.78,1,2.51.24,1.87.48,3.75.73,5.62.66.68.33,1.79,1,2.44.23,1.35.46,2.69.68,4,.67.7.41,1.78,1,2.51.24,1.51.48,3,.71,4.52a.69.69,0,0,1-.34.92A7.48,7.48,0,0,1,443,409c-16.16,0-32.31,0-48.46.05-2.27,0-3.7-.39-4.23-3-.32-1.58-1-3.11-1-4.77-.05-3.62-1.4-7-1.84-10.53.06-3.51-1.83-6.66-1.85-10.16,0-1.73.18-3.51-.84-5.08-.59-3.85-1.42-7.67-2-11.52-.35-2.18-1.65-4.11-1.61-6.39.32-3.46-1.47-6.54-1.7-9.9-.44-2,.5-4.19-.91-6a47.92,47.92,0,0,0-1.76-9.89c-.3-4.63-1.61-9.09-2.29-13.63-.46-3.05-1.4-5.93-1.92-8.93-.85-4.91-1.31-9.91-3-14.65-4.68-.85-4.89-.71-5.15,3.34-1,1-.11,2.57-1,3.59l-.68,6.29c-.94,1-.1,2.59-1,3.63-.24,1.9-.49,3.8-.73,5.7-.74.9-.19,2.21-.94,3.1q-.36,3.16-.7,6.33c-1,1-.12,2.57-1,3.59-.23,1.92-.45,3.84-.68,5.77C356.54,336.93,357.4,338.48,356.5,339.52Z"/><path class="cls-1" d="M995.53,376.27c-1.81-.64-2.22-1.95-2.22-3.85q.08-53.52.06-107a33.23,33.23,0,0,1,.56-4.28c.67-.18,1.13,0,1.16.78s0,1.56,0,2.34q0,52.25.11,104.49C995.24,371.23,995.43,373.75,995.53,376.27Z"/><path class="cls-1" d="M543.77,403.16c-.75-2.82-1.77-5.52-1.75-8.58.1-21.4.06-42.79,0-64.18,0-3,.76-6,.06-9.15-.65-2.83.63-5.45,1.34-8.14.48-1.8,1.07-3.83-.88-5.33-.51-.39-.73-1.26-.32-1.54,2.49-1.65,1.23-4.16,1.5-6.31.12-.87,0-1.81,1.17-1.95,0,4.57.26,9.17-.08,13.72-1.08,14.91-.81,29.84-.88,44.77s0,30.17-.07,45.25A14,14,0,0,1,543.77,403.16Z"/><path class="cls-1" d="M1082,378.65c0-.4-.11-.81-.17-1.21-.9-1.5-.76-3.17-.76-4.82V265.81c0-4.26-.11-4.37-4.39-4.37q-22.39,0-44.78,0a6.93,6.93,0,0,1-3.1-.24l-1.09.07a.34.34,0,0,1-.56,0c.62-1.11,1.69-.7,2.57-.7,16.75,0,33.51,0,50.26-.06,2.25,0,3.16.49,3.15,3-.07,37.2,0,74.4-.07,111.6C1083,376.32,1083.83,378,1082,378.65Z"/><path class="cls-1" d="M1027.12,261.24l.56,0q0,55.2-.08,110.41c0,3.6-.58,7.13-4,9.26,3.16-4,2.52-8.73,2.53-13.33,0-15-.76-30,.19-45C1027.62,302.15,1026.45,281.69,1027.12,261.24Z"/><path class="cls-1" d="M664.84,351.74c-.2,14.7,2,29.33,1.2,44.05-.18,3.5.1,7-.07,10.5-.11,2.23.66,2.78,2.76,2.77,16.06-.07,32.13,0,48.19,0-.68,1-1.74.55-2.6.55-15.49,0-31,0-46.47.08-2.52,0-3.31-.75-3.16-3.31a66.65,66.65,0,0,0,0-10.19c-1.34-13.74-.62-27.51-.95-41.26,0-1.06.08-2.12.13-3.19A.62.62,0,0,1,664.84,351.74Z"/><path class="cls-1" d="M110.26,392.58A69.81,69.81,0,0,0,120.82,402c6.76,4.59,14.37,6.77,22.1,8.7,14.62,3.64,29.54,3.47,44.38,2.85a110.73,110.73,0,0,0,27.33-4.75,6.59,6.59,0,0,1,3.08-.26c-6.3,2.56-13,3.53-19.6,4.5a161.88,161.88,0,0,1-50.53-.55c-11.35-1.91-22.3-5.14-31.51-12.74a24.91,24.91,0,0,1-5.93-6.31A.56.56,0,0,1,110.26,392.58Z"/><path class="cls-1" d="M494.65,335.37c0,9.72.42,19.47-.14,29.16-.42,7.19-.22,14.36-.41,21.53-.18,6.53-1.7,13-1.25,19.56.17,2.52.54,3.48,3.28,3.46,15.88-.15,31.75-.08,47.63-.08-.63,1.15-1.71.59-2.55.59-15.32,0-30.63,0-46,.08-2.35,0-3.08-.62-3-3.08.37-14.59.11-29.22,1.05-43.76.55-8.62.47-17.23.9-25.83A2.26,2.26,0,0,1,494.65,335.37Z"/><path class="cls-1" d="M1349.17,379.23c-1.37-.29-1.07-1.42-1.07-2.33q0-35.68,0-71.36c0-.9-.35-2.05,1-2.33.6.66.36,1.48.36,2.23q0,35.78,0,71.54C1349.5,377.73,1349.73,378.55,1349.17,379.23Z"/><path class="cls-1" d="M944.78,391.49c10.39,11.7,23.86,16.87,38.68,19.34a177.44,177.44,0,0,0,26.84,2.31,143.3,143.3,0,0,0,33.78-3.82,6,6,0,0,1,2.52-.22c-6.26,2.45-12.88,3.22-19.45,3.92a156.22,156.22,0,0,1-48.8-2.29c-12-2.52-23.07-7.13-32.06-16.05a4.69,4.69,0,0,1-1.51-2A.85.85,0,0,1,944.78,391.49Z"/><path class="cls-1" d="M1349.17,379.23l0-76,.08-5.23a9.93,9.93,0,0,1,0-7l.06-1.67c.08-.26.23-.33.46-.17,0,5.65.06,11.29.06,16.94,0,23.36-.18,46.73.11,70.09a26.62,26.62,0,0,0,9.58,20.31,13.82,13.82,0,0,1,3.49,3.66c-4.51-1.92-7.31-5.73-10-9.63A23.49,23.49,0,0,1,1349.17,379.23Z"/><path class="cls-1" d="M840.31,289.15a6,6,0,0,1,1.6,4.49c0,3.2.06,6.41,0,9.62,0,1.66.31,2.44,2.17,2.42,16.62-.09,33.25-.1,49.88-.14-.16,1.56-1.36,1.08-2.2,1.09q-23.1,0-46.2,0c-4.2,0-4.22-.14-4.22-4.47,0-1.07,0-2.14,0-3.21.14-3.46.23-6.9-2.12-9.8A.82.82,0,0,1,840.31,289.15Z"/><path class="cls-1" d="M777.42,406.11a111.27,111.27,0,0,0,30.87,7.07c9,.85,18,.49,27,.38,5.44-.06,10.87-1.17,16.29-1.92a11.82,11.82,0,0,1,3.65-.21c-5.66,1.75-11.54,2.26-17.37,2.65-17.41,1.18-34.75.77-51.73-4-3-.84-6-1.59-8.72-3.33-.19-.15-.25-.29-.18-.43S777.35,406.11,777.42,406.11Z"/><path class="cls-1" d="M664.84,351.74h-1q-.06-24.89-.13-49.78c0-4-.12-4.06-4-4,3.4-1.35,5.17-.4,5.17,3Q664.93,326.34,664.84,351.74Z"/><path class="cls-1" d="M1301.86,409.07l0-109.6c.6.88.35,1.89.35,2.84q0,52,0,104C1302.24,407.21,1302.6,408.23,1301.86,409.07Z"/><path class="cls-1" d="M1432.65,305a7.42,7.42,0,0,0,1.38.25c16.15,0,32.31,0,48.46.05,1.83,0,2.24-.65,2.21-2.36-.08-4.57,0-9.13,0-13.7,1.37.3,1,1.44,1,2.35,0,3.88-.06,7.76,0,11.64.06,1.94-.71,2.5-2.51,2.5-16.4,0-32.81,0-49.22,0-.73,0-1.56.18-2-.75C1432.31,304.69,1432.49,304.72,1432.65,305Z"/><path class="cls-1" d="M387.9,390.23A116.56,116.56,0,0,1,390,402c.17,2,1.11,3.63,1.35,5.52.16,1.24,1.31.9,2.1.9q26.26,0,52.54-.05c-.24,1.81-1.61.87-2.39.88-11.39.07-22.78,0-34.18,0-5.5,0-11,0-16.52,0-.91,0-1.9.32-2.75-.35l-.68-4.58c-.87-1.06-.07-2.59-1-3.64l-.74-6.84a4.16,4.16,0,0,1-.37-2.86A1.39,1.39,0,0,1,387.9,390.23Z"/><path class="cls-1" d="M573.56,392c1.28,5,2.76,9.86,3.74,14.87.4,2,1.23,2.21,2.82,2.21q26.05-.07,52.13-.07c-.6,1.15-1.67.64-2.52.64q-25,.06-50.08,0c-1,0-2.39.55-2.83-1.13-.44-.58-.53-1.33-.94-1.92-.26-1.69-.53-3.39-.79-5.08-.41-.59-.52-1.33-.92-1.93-.27-1.69-.53-3.39-.8-5.08a2.42,2.42,0,0,1-.34-1.78A1.26,1.26,0,0,1,573.56,392Z"/><path class="cls-1" d="M788.25,341.29c5,1.17,9.52,3.77,14.4,5.38,5.56,1.85,11.06,4,16.43,6.38,4.22,1.89,8.93,2.67,12.68,5.67a.86.86,0,0,1-1.24,0c-13.66-6-27.78-10.79-41.57-16.44a6.37,6.37,0,0,1-.73-.39c-.19-.16-.24-.3-.17-.44S788.19,341.29,788.25,341.29Z"/><path class="cls-1" d="M1301.88,261.16h-47.53c-3.83,0-3.86,0-3.91,4.23s0,8.16-.07,12.23c-.76-5.21-.21-10.45-.34-15.68-.06-2,1.53-1.33,2.5-1.34,10.46,0,20.92,0,31.38,0,5.13,0,10.26,0,15.4,0C1300.16,260.62,1301.22,260.05,1301.88,261.16Z"/><path class="cls-1" d="M1239.47,406.71c1,2,2.65,2.33,4.71,2.33,19.23-.05,38.46,0,57.69,0-.76.91-1.78.46-2.66.46q-28.24,0-56.47,0c-1.11,0-2.57.62-3.2-1.07A1.32,1.32,0,0,1,1239.47,406.71Z"/><path class="cls-1" d="M759.11,288.6c-.13,8.32-.64,16.64.33,24.95.17,1.43.95,2.47,1.33,3.74a2,2,0,0,1,.08,2.31c-.63,0-1.12-.3-1.17-1-.23-3.24-2.29-6.1-1.8-9.48q-.39-8.52,0-17.05c0-1.74.09-3.47.13-5.2a.92.92,0,0,1,1.25-.05A1.73,1.73,0,0,1,759.11,288.6Z"/><path class="cls-1" d="M288.43,407.25c.18,2.29,1.88,1.74,3.2,1.74q24.45,0,48.89,0a8.19,8.19,0,0,0,3.88-.63c-.07,1.51-1.21,1.25-2.1,1.25q-26.43,0-52.88,0c-.79,0-1.81.24-2.05-1A1.05,1.05,0,0,1,288.43,407.25Z"/><path class="cls-1" d="M390.14,408.93c1,.09,2.08.25,3.11.25q25,0,50.07,0c.88,0,2.13.7,2.66-.78a1.91,1.91,0,0,1,.16-.53c1.37.52,1.49,1.18.06,1.7a7.06,7.06,0,0,1-2.26.09q-25.32,0-50.65,0C392.23,409.61,391,410.14,390.14,408.93Z"/><path class="cls-1" d="M754.58,361.7c0,4.35.12,8.7,0,13.05a26.63,26.63,0,0,0,4.72,16.56,4.4,4.4,0,0,1,.39,1.36.82.82,0,0,1-1.16,0,22.94,22.94,0,0,1-4.56-15c.14-4.46,0-8.93.06-13.39C754,363.45,753.48,362.36,754.58,361.7Z"/><path class="cls-1" d="M758.52,392.67h1.16c3.64,5.46,8.88,8.88,14.5,11.8,1.07.56,2.16,1.1,3.24,1.64l0,.63C769.81,403.86,763.06,399.82,758.52,392.67Z"/><path class="cls-1" d="M1432.65,305a1.4,1.4,0,0,1-.54-.05c0-3.1-.22-6.21.06-9.29.7-7.56-4.87-11.4-10-12.28a12,12,0,0,1-1.57-.51c7.91-.44,12.12,3.52,12.1,11.42C1432.68,297.81,1432.66,301.38,1432.65,305Z"/><path class="cls-1" d="M172.47,354.13c6.61,2,12.87,4.7,17.53,10.26a5.57,5.57,0,0,1,1.39,2.45.58.58,0,0,1-.13.83c-3.95-6.06-9.78-9.4-16.25-11.85-.87-.32-1.72-.68-2.58-1-.18-.16-.23-.31-.16-.45S172.4,354.13,172.47,354.13Z"/><path class="cls-1" d="M373,309.1a47.9,47.9,0,0,1,2.11,9.58c.6,4.4,2.12,8.66,1.89,13.19-.15.28-.3.27-.44,0-1.41-4.51-1.24-9.34-2.83-13.85-.65-1.85-.55-4-.79-6A2.45,2.45,0,0,1,373,309.1Z"/><path class="cls-1" d="M373,309.1,372.9,312c-2-1.2-.94-3.27-1.2-4.91-.66-4.2-2.16-8.24-2.18-12.55,1.83.88,1.43,2.66,1.67,4.2C371.74,302.23,372.37,305.66,373,309.1Z"/><path class="cls-1" d="M323.82,261.7q-2.56,10.24-5.12,20.5a.61.61,0,0,1-1,0c1.27-4.38,2.42-8.79,3.27-13.29.4-2.14,1-4.24,1.58-6.35A1,1,0,0,1,323.82,261.7Z"/><path class="cls-1" d="M551.73,302.67a130.25,130.25,0,0,0,3.21,13.49c.52,2,1.61,4.2.43,6.42l-.23-.62c-.64-.71-.39-1.78-1-2.51-.23-1.5-.47-3-.71-4.51-.68-.69-.41-1.78-1-2.5a15.44,15.44,0,0,0-.74-4.52c-.65-.69-.37-1.78-1-2.48l-.06-2.79A.68.68,0,0,1,551.73,302.67Z"/><path class="cls-1" d="M381.71,357.45c1.12,6.06,3.38,11.89,3.31,18.18a1.43,1.43,0,0,1-.11,2c-.2-.81-.4-1.62-.59-2.44-.88-1-.06-2.59-1-3.62l-1.83-10.42a3.88,3.88,0,0,1-.38-3A1,1,0,0,1,381.71,357.45Z"/><path class="cls-1" d="M1225.24,385.66c1.71-.44,2,1.24,2.59,2.08a40.37,40.37,0,0,1,5.43,9,.85.85,0,0,1-1.19,0C1229.86,393,1227,389.69,1225.24,385.66Z"/><path class="cls-1" d="M618,289.79c-.28,4.68-2.3,9-2.5,13.73,0,.62-.41.8-.88.92-.27-.49-.67-.93-.51-1.59q1.92-7.71,3.82-15.42A1.6,1.6,0,0,1,618,289.79Z"/><path class="cls-1" d="M840.31,289.15h-1.12c-4.05-4-9.13-4.87-14.45-4.92-1.49,0-3,.2-4.48.3C826.63,282.07,837,284.45,840.31,289.15Z"/><path class="cls-1" d="M566.7,364.53c1.49,5.62,3.46,11.14,3.94,17-.17.29-.33.27-.49,0q-1.8-7.27-3.61-14.55a2.21,2.21,0,0,1-.37-1.73A1.3,1.3,0,0,1,566.7,364.53Z"/><path class="cls-1" d="M1184,395.64c-.81-.16-1-.75-1-1.49q0-6,0-12.1c.8.2.94.81.94,1.54Q1184,389.62,1184,395.64Z"/><path class="cls-1" d="M622.57,269.88a46.93,46.93,0,0,0-1.84,9.31c-.12,1.08-.74,1.2-1.47,1.4.55-4.09,2.09-8,2.28-12.14,0-.56.5-.77,1-.9A1.92,1.92,0,0,1,622.57,269.88Z"/><path class="cls-1" d="M317.71,282.2h1a47.29,47.29,0,0,1-2.48,10.59c-.47,1.38.13,2.93-.87,4.14a.71.71,0,0,1-.16-.93C315,291.2,317.5,286.92,317.71,282.2Z"/><path class="cls-1" d="M305.5,337.05c.09,3.67-1.61,7-2.26,10.49a7.38,7.38,0,0,1-1,3.24.68.68,0,0,1-.19-.95c-.08-3.33,1.23-6.34,2-9.48a23.7,23.7,0,0,0,.37-3.16A.66.66,0,0,1,305.5,337.05Z"/><path class="cls-1" d="M833.45,359.84c3.76,2.28,7,5,8.51,9.43a.63.63,0,0,1-.61.24,2,2,0,0,1-1.05-.91C839,365,836,363,833.41,360.48a.39.39,0,0,1-.12-.43C833.35,359.91,833.4,359.84,833.45,359.84Z"/><path class="cls-1" d="M1182.34,347.68c-1-.17-1.09-.93-1.08-1.74,0-3.18.07-6.35.11-9.53.93.31.86,1.11.87,1.87C1182.27,341.41,1182.31,344.54,1182.34,347.68Z"/><path class="cls-1" d="M788.25,341.29l0,.64a27,27,0,0,1-10.8-6c2.69-.08,4.07,2.62,6.52,3.2A20.75,20.75,0,0,1,788.25,341.29Z"/><path class="cls-1" d="M716.79,395c-1-.17-1.09-.91-1.08-1.73,0-2.79.07-5.59.1-8.38,1.4.66.82,2,.87,3C716.81,390.26,716.77,392.63,716.79,395Z"/><path class="cls-1" d="M376.52,331.87H377c2.1,2.24.81,5.28,1.72,7.81a7.64,7.64,0,0,1,.13,2,1.13,1.13,0,0,1-.12,1.32C377.76,339.33,376.68,335.69,376.52,331.87Z"/><path class="cls-1" d="M387.9,390.23l-.17.81a.65.65,0,0,1-1-.2l-.76-5.76c-.7-.9-.16-2.2-.93-3.08l0-1.65a.67.67,0,0,1,1.05,0Z"/><path class="cls-1" d="M305.5,337.05l-1,.14c1.33-3,.68-6.65,2.73-9.45a1.33,1.33,0,0,1,.09,1.79C306.69,332,306.1,334.54,305.5,337.05Z"/><path class="cls-1" d="M609.54,328.39c.07,4.09-1.59,7.83-2.3,11.77a1.13,1.13,0,0,1-.17-1.39c-.09-3.6,1.36-6.91,1.85-10.4A.39.39,0,0,1,609.54,328.39Z"/><path class="cls-1" d="M757.88,292.08v17.05A66.19,66.19,0,0,1,757.88,292.08Z"/><path class="cls-1" d="M380,347.52c.42,3.34,1.85,6.49,1.73,9.93l-.33.3a.63.63,0,0,1-.93-.23c-.23-2.11-.47-4.22-.7-6.33a4.09,4.09,0,0,1-.36-3A1.13,1.13,0,0,1,380,347.52Z"/><path class="cls-1" d="M1363.62,400.78a23.76,23.76,0,0,1,9.58,4.77C1369.79,404.41,1366.43,403.19,1363.62,400.78Z"/><path class="cls-1" d="M307.29,329.53l-.09-1.79a30.64,30.64,0,0,1,1.89-8.13c.13-.28.28-.28.44,0A31.1,31.1,0,0,1,307.29,329.53Z"/><path class="cls-1" d="M557.45,329.58c2.23,1.76,2.31,4.3,2.4,6.84l-.21.32c-.37.13-.71.14-.94-.27a1.4,1.4,0,0,0-.11-.5c-.83-.84-.23-2.19-1-3.05l-.14-1.06A2.83,2.83,0,0,1,557.45,329.58Z"/><path class="cls-1" d="M315.19,296c.05.31.11.62.16.93,0,2.65-1.41,4.93-1.81,7.47a.62.62,0,0,1-1,0,18.5,18.5,0,0,0,1.54-6.29C314.19,297.23,314.18,296.36,315.19,296Z"/><path class="cls-1" d="M759.11,288.6l-.08-1.74a1.53,1.53,0,0,1,0-1.77c.4-2.29.8-4.58,2.31-6.45C761.33,282.13,759.63,285.23,759.11,288.6Z"/><path class="cls-1" d="M1221.26,378.06a16.1,16.1,0,0,1,4,7.63,19.27,19.27,0,0,1-4-6.47A.83.83,0,0,1,1221.26,378.06Z"/><path class="cls-1" d="M622.57,269.88c0-.78,0-1.55-.05-2.33.84-2.27-.38-5.34,2.49-6.84C624.2,263.77,623.38,266.82,622.57,269.88Z"/><path class="cls-1" d="M772.78,267.47c-2,2.35-5,3.47-6.77,6a.53.53,0,0,1-.1-.79A10.9,10.9,0,0,1,772.78,267.47Z"/><path class="cls-1" d="M612.3,317.82q-.81,3.27-1.64,6.56a1.16,1.16,0,0,1-.17-1.4c.32-2.57-.12-5.32,1.75-7.51A2,2,0,0,1,612.3,317.82Z"/><path class="cls-1" d="M1349.22,291a35.8,35.8,0,0,1,0,7C1347.61,296.39,1347.61,292.55,1349.22,291Z"/><path class="cls-1" d="M1181.2,323.69c-.69-.71-.49-1.62-.47-2.45,0-1.18-.5-2.95,1.09-3.14s3.43,0,4,2.17a.89.89,0,0,1-1.15,0,2,2,0,0,0-2.82-1.14c-1.06.39-.43,1.5-.52,2.28S1181.23,322.92,1181.2,323.69Z"/><path class="cls-1" d="M618,289.79c0-.79,0-1.57-.07-2.36.06-.52.11-1,.17-1.55.57-.75.35-1.81,1-2.53.11-.8.23-1.59.35-2.39C620.05,284.08,620,287.1,618,289.79Z"/><path class="cls-1" d="M302.09,349.83c.06.31.12.63.19.94.08,2.65-1.11,5-1.84,7.4a1.45,1.45,0,0,1-.14-1.82C301.11,354.24,300.17,351.62,302.09,349.83Z"/><path class="cls-1" d="M312.51,307.51c.2,2.7-1.26,5-1.73,7.53a.71.71,0,0,1-.17-.92c.42-2.55-.08-5.33,1.74-7.55A.7.7,0,0,1,312.51,307.51Z"/><path class="cls-1" d="M1205.89,352.8c1.28,2.4,3.19,4.44,3.93,7.14q-.28.39-.51,0c-1.75-1.87-2.73-4.26-4.07-6.4A.84.84,0,0,1,1205.89,352.8Z"/><path class="cls-1" d="M566.7,364.53l-.18.75a.61.61,0,0,1-1-.15c-.24-1.73-.47-3.46-.71-5.18a2.17,2.17,0,0,1-.33-2,1,1,0,0,1,.59-.53C565.45,359.83,566.71,362,566.7,364.53Z"/><path class="cls-1" d="M191.26,367.67c0-.28.09-.56.13-.83,1.61.7,1.68,2.26,1.62,3.62-.08,2.14.65,4.38-.49,6.44a1.54,1.54,0,0,1-.58-1.21,2.55,2.55,0,0,1,.46-1.76v-2.3c-.64-.7-.37-1.78-1-2.49Z"/><path class="cls-1" d="M612.3,317.82l-.06-2.35c.23-1.91.47-3.83.71-5.74a.65.65,0,0,1,1.06-.09C614.41,312.57,612.88,315.09,612.3,317.82Z"/><path class="cls-1" d="M378.69,343l.12-1.32c2.18,1.57.42,4,1.17,5.85l-.31.29a.63.63,0,0,1-.93-.22C378.72,346.06,378.7,344.53,378.69,343Z"/><path class="cls-1" d="M841.44,369.27H842a10,10,0,0,1-.65,8.11,1.4,1.4,0,0,1,0-1.73c0-1.54.4-3.07,0-4.61A1.29,1.29,0,0,1,841.44,369.27Z"/><path class="cls-1" d="M570.15,381.53h.49c1.76,2,1.53,4.58,1.68,7-.16.28-.31.26-.47,0l-.21-1.08a18.64,18.64,0,0,0-.92-1.91Z"/><path class="cls-1" d="M610.49,323l.17,1.4c-.46,1.31.52,3-1.12,4l-.62,0C609.84,326.69,608.58,324.35,610.49,323Z"/><path class="cls-1" d="M1194.45,334.76c1.84,1,2.65,2.82,3.32,4.72a.39.39,0,0,1-.66.06c-1.55-.87-1.78-2.72-2.81-4A.6.6,0,0,1,1194.45,334.76Z"/><path class="cls-1" d="M561.67,343.4c.22,2.43,1.79,4.51,1.7,7a.58.58,0,0,1-.42.48.68.68,0,0,1-.82-.43l-.72-4.55a2.13,2.13,0,0,1-.33-2A1,1,0,0,1,561.67,343.4Z"/><path class="cls-1" d="M559.85,336.42c.41,2.38,1.85,4.48,1.82,7l-.31.28c-.38.22-.71.22-1-.21l-.75-5.11a1.35,1.35,0,0,1,0-1.6A2.39,2.39,0,0,0,559.85,336.42Z"/><path class="cls-1" d="M563.37,350.42c.26,2.42,1.77,4.51,1.73,7l-.31.29c-.38.22-.72.22-.95-.22l-.72-4.55a1.85,1.85,0,0,1,0-2.24A3.83,3.83,0,0,1,563.37,350.42Z"/><path class="cls-1" d="M944.78,391.49v1.18c-1.78-1.33-3.21-2.9-3.39-5.29Z"/><path class="cls-1" d="M172.47,354.13l0,.66a21.21,21.21,0,0,1-6.27-2.43C168.55,351.87,170.42,353.35,172.47,354.13Z"/><path class="cls-1" d="M310.61,314.12c.06.31.12.62.17.92a6.75,6.75,0,0,1-1.25,4.55l-.44,0C309.64,317.8,308.77,315.57,310.61,314.12Z"/><path class="cls-1" d="M1351.55,282.23c-.32,2,.2,4.32-1.68,5.88a1.65,1.65,0,0,1-.16-1.83C1349.94,284.74,1350.94,283.58,1351.55,282.23Z"/><path class="cls-1" d="M160.44,350c2.2.05,4.29.36,5.73,2.35A15.73,15.73,0,0,1,160.44,350Z"/><path class="cls-1" d="M551.73,302.67l-1.08,0c-.2-.58-.41-1.16-.61-1.75-.72-.65-.4-1.77-1-2.46l-.68-1c1.33-.31,2.35.2,2.27,1.6S551.47,301.43,551.73,302.67Z"/><path class="cls-1" d="M386.13,380.37l-1.05,0c-.06-.92-.11-1.84-.17-2.76,0-.65.07-1.31.11-2C387.15,376.78,385.71,378.8,386.13,380.37Z"/><path class="cls-1" d="M557.45,329.58l0,2.28c-.3-1.85-1.9-3.3-1.58-5.35a.84.84,0,0,1,1.12.07C557.12,327.58,557.29,328.58,557.45,329.58Z"/><path class="cls-1" d="M760.85,319.6c0-.77-.05-1.54-.08-2.31.91,1.69,2,3.27,2.35,5.24q-.29.41-.57,0A4.89,4.89,0,0,1,760.85,319.6Z"/><path class="cls-1" d="M185.6,285.75c2.16.46,4.25,1,5.16,3.46A26.6,26.6,0,0,1,185.6,285.75Z"/><path class="cls-1" d="M614,309.64l-1.07.09c-.18-2,1-3.57,1.72-5.31C614.44,306.16,614.23,307.9,614,309.64Z"/><path class="cls-1" d="M346.74,393.82c.18-1.44-.65-3.15,1.06-4.19C347.64,391.08,348.72,392.86,346.74,393.82Z"/><path class="cls-1" d="M571.85,388.56h.47c1.23.82,1.15,2.14,1.24,3.4l-.15.81a.63.63,0,0,1-1-.19C572.24,391.24,572.05,389.9,571.85,388.56Z"/><path class="cls-1" d="M133.54,339c2-.12,3.28,1.12,4.61,2.31C136.14,341.53,134.9,340.14,133.54,339Z"/><path class="cls-1" d="M1232.07,396.77l1.19,0a5.38,5.38,0,0,1,1.64,2.92.38.38,0,0,1-.66.06C1232.68,399.38,1233,397.59,1232.07,396.77Z"/><path class="cls-1" d="M380.45,357.52l.93.23c0,1.12.07,2.24.11,3.36C379.55,360.39,380.68,358.75,380.45,357.52Z"/><path class="cls-1" d="M1212.71,364c1,.92,2,1.86,1.82,3.44q-.32.48-.72.09c-.78-.59-.85-1.52-1.11-2.36A.82.82,0,0,1,1212.71,364Z"/><path class="cls-1" d="M354.76,350c.14-1.26-.63-2.8,1-3.6C355.66,347.66,356.68,349.28,354.76,350Z"/><path class="cls-1" d="M363.33,301.51c.09-1.28-.73-2.83,1-3.59C364.21,299.17,365.18,300.77,363.33,301.51Z"/><path class="cls-1" d="M378.74,347.59l.93.22c0,1.13.05,2.26.08,3.38C377.89,350.44,378.94,348.83,378.74,347.59Z"/><path class="cls-1" d="M358.2,330.15c.08-1.28-.74-2.83,1-3.59C359.07,327.81,360,329.41,358.2,330.15Z"/><path class="cls-1" d="M345.08,402.61c.09-1.28-.68-2.8,1-3.63C345.94,400.25,347,401.85,345.08,402.61Z"/><path class="cls-1" d="M388.47,400.71c1.72.82.82,2.39,1,3.64C387.54,403.59,388.69,402,388.47,400.71Z"/><path class="cls-1" d="M1205.89,352.8l-.65.71a3.9,3.9,0,0,1-1.11-2.35.84.84,0,0,1,0-1.18C1204.87,350.82,1206,351.42,1205.89,352.8Z"/><path class="cls-1" d="M356.5,339.52c0-1.29-.79-2.84,1-3.6C357.36,337.17,358.26,338.74,356.5,339.52Z"/><path class="cls-1" d="M361.61,311.43c.23-1.25-.7-2.84,1-3.63C362.43,309,363.61,310.71,361.61,311.43Z"/><path class="cls-1" d="M383.32,371.53c1.74.81.85,2.36,1,3.62C382.46,374.38,383.5,372.78,383.32,371.53Z"/><path class="cls-1" d="M774.15,333.56c1.12.76,2.43,1.25,3.25,2.44-1.92.06-3-1.49-4.43-2.4A1,1,0,0,1,774.15,333.56Z"/><path class="cls-1" d="M557,326.58l-1.12-.07-.15-3.3C558,323.59,556.5,325.47,557,326.58Z"/><path class="cls-1" d="M1213.81,367.54l.72-.09c.83,1.12,2.14,1.95,2.15,3.59-.19.26-.37.26-.53,0C1214.88,370.2,1214.63,368.67,1213.81,367.54Z"/><path class="cls-1" d="M1234.24,399.73l.66-.06c.44,1.26,1.82,2,1.84,3.49-.18.29-.36.29-.54,0A4.67,4.67,0,0,1,1234.24,399.73Z"/><path class="cls-1" d="M1199,342.41c1.12.92,2.2,1.87,2.29,3.51-.19.26-.36.25-.52,0A4.28,4.28,0,0,1,1199,342.41Z"/><path class="cls-1" d="M1023.59,380.92a3.27,3.27,0,0,1-3.39,2.38A8.41,8.41,0,0,1,1023.59,380.92Z"/><path class="cls-1" d="M1186,321.25c.79,1.16,2.12,2,2.13,3.62-.18.27-.36.26-.52,0a4.2,4.2,0,0,1-1.75-2.9A.45.45,0,0,1,1186,321.25Z"/><path class="cls-1" d="M312.51,307.51c-.05-.31-.11-.63-.16-.94.06-.72.13-1.44.19-2.16h1C313.49,305.54,314,306.87,312.51,307.51Z"/><path class="cls-1" d="M762.55,322.53h.57c.56.65,1.32,1.17,1.27,2.18a.55.55,0,0,1-.13.77C762.77,325.06,762.88,323.66,762.55,322.53Z"/><path class="cls-1" d="M897.32,358.23c-1.58-.58-1.06-1.89-1-3C897.9,355.77,897.31,357.1,897.32,358.23Z"/><path class="cls-1" d="M594.58,308.51c-.91-.86-.44-1.95-.47-3C595.74,306.3,595.47,307.35,594.58,308.51Z"/><path class="cls-1" d="M297,371c.17,1.2.35,2.4-1.08,3C296,372.9,295.19,371.47,297,371Z"/><path class="cls-1" d="M1236.2,403.17h.54c.8.83,1.65,1.64,1.63,2.95-.18.25-.35.26-.51,0A3.88,3.88,0,0,1,1236.2,403.17Z"/><path class="cls-1" d="M768.25,329.56c1.42.17,2.75.46,2.87,2.33C770.16,331.12,768.65,331.05,768.25,329.56Z"/><path class="cls-1" d="M349.62,378.64c.13-1.1-.63-2.49,1-3.11C350.63,376.69,351.36,378.07,349.62,378.64Z"/><path class="cls-1" d="M557.56,332.92c1.63.57,1,1.94,1,3.05C556.81,335.46,557.69,334,557.56,332.92Z"/><path class="cls-1" d="M413.51,268.24c-1.52-.57-1-1.88-1.06-3C414.18,265.73,413.42,267.14,413.51,268.24Z"/><path class="cls-1" d="M893.91,285.19c-1.51-.59-1-1.89-1-3C894.58,282.69,893.86,284.08,893.91,285.19Z"/><path class="cls-1" d="M416.94,282.85c-1.53-.57-1-1.88-1.06-3C417.61,280.34,416.84,281.75,416.94,282.85Z"/><path class="cls-1" d="M385.06,382c1.54.63.84,2,.93,3.08C384.32,384.49,385.14,383.1,385.06,382Z"/><path class="cls-1" d="M353.05,358.81c0-1.12-.72-2.5,1-3.07C354.05,356.88,354.64,358.21,353.05,358.81Z"/><path class="cls-1" d="M293.6,385.05c0,1.17.56,2.53-1.07,3.1C292.57,387,291.73,385.54,293.6,385.05Z"/><path class="cls-1" d="M359.94,320.23c0-1.12-.8-2.51.94-3.1C360.87,318.26,361.58,319.62,359.94,320.23Z"/><path class="cls-1" d="M300.3,356.35l.14,1.82a1.37,1.37,0,0,1-1.11,1.22C299.36,358.28,298.7,356.94,300.3,356.35Z"/><path class="cls-1" d="M351.37,368.18c0-1.14-.69-2.49,1-3.07C352.32,366.23,353,367.58,351.37,368.18Z"/><path class="cls-1" d="M594,305.05c-1.57-.58-1.07-1.88-1-3C594.61,302.59,594,303.93,594,305.05Z"/><path class="cls-1" d="M386.75,390.84l1,.2v2.83C386.09,393.3,386.83,391.93,386.75,390.84Z"/><path class="cls-1" d="M1063.11,402.72a3.75,3.75,0,0,1,3.35-1.9A4.61,4.61,0,0,1,1063.11,402.72Z"/><path class="cls-1" d="M1194.45,334.76l-.15.8c-.4-.91-1.54-1.31-1.63-2.44a.52.52,0,0,1,.1-.78C1194,332.64,1194.18,333.75,1194.45,334.76Z"/><path class="cls-1" d="M1197.11,339.54l.67-.06c.17,1.07,1.68,1.58,1.18,2.95C1197.28,342.18,1197.57,340.6,1197.11,339.54Z"/><path class="cls-1" d="M1187.6,324.85l.52,0c.57.68,1.55,1.15,1.16,2.33C1187.72,327.16,1187.94,325.8,1187.6,324.85Z"/><path class="cls-1" d="M1216.15,371l.53,0c.57.68,1.55,1.15,1.16,2.33C1216.28,373.34,1216.5,372,1216.15,371Z"/><path class="cls-1" d="M549,298.44c1.44.33,1.1,1.46,1,2.46C548.49,300.62,549,299.41,549,298.44Z"/><path class="cls-1" d="M841.44,369.27l-.1,1.77c-1.5-.3-1-1.48-1-2.44Z"/><path class="cls-1" d="M657,307.35c0-1-.43-2.11,1-2.49C658,305.87,658.42,307,657,307.35Z"/><path class="cls-1" d="M1209.31,359.91l.51,0c.55.69,1.56,1.13,1.17,2.32C1209.49,362.18,1209.6,360.9,1209.31,359.91Z"/><path class="cls-1" d="M295.26,379.18c.17,1,.24,2-1,2.43C294.14,380.61,293.7,379.45,295.26,379.18Z"/><path class="cls-1" d="M1484,283.43c-1.27-.39-1.15-1.41-1-2.42C1484.34,281.34,1484.09,282.42,1484,283.43Z"/><path class="cls-1" d="M619.11,283.35c.08,1,.4,2.11-1,2.53C618.13,284.9,617.58,283.71,619.11,283.35Z"/><path class="cls-1" d="M433.48,352.4c-1.31-.4-1.12-1.44-1-2.45C433.88,350.3,433.58,351.39,433.48,352.4Z"/><path class="cls-1" d="M563.84,357.49l.95.22c0,.74,0,1.49.05,2.24C563.37,359.61,563.85,358.44,563.84,357.49Z"/><path class="cls-1" d="M298.69,364.57c.16,1,.25,2-1,2.43C297.57,366,297.12,364.83,298.69,364.57Z"/><path class="cls-1" d="M554.16,319.45c1.39.4,1.05,1.51,1,2.51C553.64,321.6,554.14,320.43,554.16,319.45Z"/><path class="cls-1" d="M430.05,337.81c-1.34-.39-1.1-1.46-1-2.46C430.46,335.7,430.13,336.81,430.05,337.81Z"/><path class="cls-1" d="M435.16,359.47c-1.42-.38-1-1.52-1-2.5C435.62,357.35,435.28,358.46,435.16,359.47Z"/><path class="cls-1" d="M436.91,367.55c-1.39-.35-1.19-1.4-1-2.44C437.12,365.53,437,366.55,436.91,367.55Z"/><path class="cls-1" d="M639.81,376.39c-.06-1-.49-2.15,1-2.46C640.88,374.92,641,376,639.81,376.39Z"/><path class="cls-1" d="M563.08,350.7c0,.74,0,1.49,0,2.24-1.46-.34-1-1.51-1-2.46Z"/><path class="cls-1" d="M550.71,305.44c1.36.39,1,1.5,1,2.48C550.19,307.6,550.72,306.4,550.71,305.44Z"/><path class="cls-1" d="M440.33,381.63c-1.32-.4-1.11-1.45-1-2.46C440.74,379.52,440.42,380.62,440.33,381.63Z"/><path class="cls-1" d="M646.71,348.87c-.09-1-.44-2.1,1-2.48C647.75,347.38,648.16,348.5,646.71,348.87Z"/><path class="cls-1" d="M638.09,383.4c-.05-1-.48-2.14,1-2.45C639.17,381.94,639.31,383,638.09,383.4Z"/><path class="cls-1" d="M896.31,383.36c-.08-1-.52-2.13,1-2.48C897.35,381.87,897.72,383,896.31,383.36Z"/><path class="cls-1" d="M1200.73,345.89l.52,0c.56.68,1.56,1.13,1.17,2.32C1200.92,348.16,1201,346.87,1200.73,345.89Z"/><path class="cls-1" d="M1484.7,383.35c-.09-1-.38-2.07,1-2.44,0,.78,0,1.55,0,2.32A.59.59,0,0,1,1484.7,383.35Z"/><path class="cls-1" d="M443.76,396.77c-1.38-.35-1.19-1.4-1-2.44C444,394.75,443.85,395.77,443.76,396.77Z"/><path class="cls-1" d="M560.41,343.47l1,.21c0,.75,0,1.5,0,2.24C559.94,345.59,560.42,344.42,560.41,343.47Z"/><path class="cls-1" d="M833.45,359.84c0,.22,0,.43,0,.64-1.25-.06-1.92-1.16-2.89-1.72l1.24,0Z"/><path class="cls-1" d="M442,388.71c-1.45-.38-1-1.55-1-2.51C442.48,386.57,442.13,387.69,442,388.71Z"/><path class="cls-1" d="M431.74,344.85c-1.33-.4-1.05-1.49-1-2.48C432.17,342.73,431.85,343.84,431.74,344.85Z"/><path class="cls-1" d="M774.15,333.56l-1.18,0c-.58-.61-1.76-.54-1.86-1.7C772.47,331.79,773.12,333,774.15,333.56Z"/><path class="cls-1" d="M418.57,290c-1.52-.37-.92-1.58-1-2.54C419.12,287.81,418.65,289,418.57,290Z"/><path class="cls-1" d="M607.07,338.77l.17,1.39c.09.53,0,.92-.61,1.06C605.69,340.2,605.78,339.38,607.07,338.77Z"/><path class="cls-1" d="M596.87,317.31c-1.23-.42-1.2-1.39-1-2.43C597.29,315.22,596.92,316.34,596.87,317.31Z"/><path class="cls-1" d="M191.41,369.14c1.41.38,1.08,1.48,1,2.49C190.92,371.28,191.38,370.12,191.41,369.14Z"/><path class="cls-1" d="M634.66,397.42c0-1-.48-2.14,1-2.45C635.75,396,635.86,397,634.66,397.42Z"/><path class="cls-1" d="M290.13,400.24c.14,1,.43,2.14-1,2.52C289,401.75,288.54,400.55,290.13,400.24Z"/><path class="cls-1" d="M445.43,403.32c-1.45-.38-1-1.55-1-2.51C445.91,401.18,445.55,402.3,445.43,403.32Z"/><path class="cls-1" d="M1237.86,406.08l.52,0a1.15,1.15,0,0,0,1.09.6c0,.58,0,1.15.07,1.73C1238.07,408.33,1238.15,407.07,1237.86,406.08Z"/><path class="cls-1" d="M552.45,312.44c1.39.39,1,1.51,1,2.5C551.93,314.61,552.42,313.43,552.45,312.44Z"/><path class="cls-1" d="M764.26,325.48c0-.25.09-.51.13-.77.36,1,1.65,1.29,1.59,2.51C764.71,327.36,764.54,326.37,764.26,325.48Z"/><path class="cls-1" d="M545,298.05c1-1,2-1.62,3.33-.6Z"/><path class="cls-1" d="M192.4,373.93l0,1.74a.69.69,0,0,1-1,.15C191.31,375,191.23,374.1,192.4,373.93Z"/><path class="cls-1" d="M1218.33,374.61c1.2-.06,1.38.67,1.24,1.66C1218.42,376.3,1218.31,375.5,1218.33,374.61Z"/><path class="cls-1" d="M191.42,375.82l1-.15c0,.41.05.82.08,1.23a1.19,1.19,0,0,1-1.14.6Z"/><path class="cls-1" d="M428.36,331.31c-1-.2-1.25-.89-1.05-1.83.38-.28.72-.3,1,.17Z"/><path class="cls-1" d="M1204.14,350c0,.4,0,.79,0,1.18-1-.09-1.29-.75-1.22-1.68A1.16,1.16,0,0,1,1204.14,350Z"/><path class="cls-1" d="M841.34,375.65l0,1.73-1,.16C840.15,376.62,840.26,375.87,841.34,375.65Z"/><path class="cls-1" d="M1363,268.24c-.06,1.16-1,1.35-1.79,1.66A1.74,1.74,0,0,1,1363,268.24Z"/><path class="cls-1" d="M1221.26,378.06v1.16c-1-.13-1.3-.76-1.2-1.7A1.1,1.1,0,0,1,1221.26,378.06Z"/><path class="cls-1" d="M597.56,323.66c0-.58,0-1.16,0-1.74,1.16.15,1.11,1,1,1.85A.63.63,0,0,1,597.56,323.66Z"/><path class="cls-1" d="M586.11,270.46c0-.58,0-1.15,0-1.73,1.14.19,1.09,1,1,1.89A.65.65,0,0,1,586.11,270.46Z"/><path class="cls-1" d="M586.11,270.46l1,.16c0,.56,0,1.11,0,1.67C586.1,272.1,585.93,271.39,586.11,270.46Z"/><path class="cls-1" d="M765.91,272.66c0,.26.06.53.1.79l-1.7,1.16A1.88,1.88,0,0,1,765.91,272.66Z"/><path class="cls-1" d="M587.83,278.64c0-.57,0-1.15,0-1.72,1.16.17,1.11,1,1,1.88A.63.63,0,0,1,587.83,278.64Z"/><path class="cls-1" d="M587.83,278.64l1,.16c0,.56,0,1.12.05,1.68C587.81,280.28,587.64,279.57,587.83,278.64Z"/><path class="cls-1" d="M244.39,282.26c-1.08-.18-1.21-.93-1-1.85C244.41,280.62,244.58,281.34,244.39,282.26Z"/><path class="cls-1" d="M166.21,286.32a2.66,2.66,0,0,1,2.88-1.17A4.2,4.2,0,0,1,166.21,286.32Z"/><path class="cls-1" d="M599.24,333c0-.58,0-1.16,0-1.74,1.18.18,1.08,1,.94,1.89A.64.64,0,0,1,599.24,333Z"/><path class="cls-1" d="M162.16,378.08a1.29,1.29,0,0,1-1-1.85C162.14,376.45,162.31,377.17,162.16,378.08Z"/><path class="cls-1" d="M1484.7,383.35l1-.12c.14.89.11,1.68-1,1.84Z"/><path class="cls-1" d="M589.54,286.83c0-.58,0-1.15,0-1.73,1.15.18,1.12,1,1,1.88A.63.63,0,0,1,589.54,286.83Z"/><path class="cls-1" d="M653.56,320.82c-.15-.87-.31-1.76.92-1.94C654.68,319.78,654.72,320.6,653.56,320.82Z"/><path class="cls-1" d="M570.72,385.57c1.13.22,1.06,1.05.92,1.91C570.58,387.23,570.57,386.44,570.72,385.57Z"/><path class="cls-1" d="M759,285.09c0,.59,0,1.18,0,1.77l-1,0C758,286.06,758,285.24,759,285.09Z"/><path class="cls-1" d="M589.54,286.83l1,.15c0,.56,0,1.12.05,1.68C589.52,288.47,589.36,287.75,589.54,286.83Z"/><path class="cls-1" d="M161.14,292.26c-.19-1,0-1.79,1.2-1.79C162.25,291.29,162.29,292.18,161.14,292.26Z"/><path class="cls-1" d="M1192.77,332.34l-.09.78a1.44,1.44,0,0,1-1.18-1.77A1,1,0,0,1,1192.77,332.34Z"/><path class="cls-1" d="M810.06,293.91c-.12-.88-.23-1.75,1-1.9C811.2,292.91,811.22,293.73,810.06,293.91Z"/><path class="cls-1" d="M648.41,341.86c-.15-.88-.3-1.76.94-1.94C649.53,340.82,649.57,341.64,648.41,341.86Z"/><path class="cls-1" d="M591.25,295v-1.73c1.16.18,1.12,1,1,1.89A.65.65,0,0,1,591.25,295Z"/><path class="cls-1" d="M591.25,295l1,.16c0,.56,0,1.12,0,1.68C591.22,296.65,591.07,295.93,591.25,295Z"/><path class="cls-1" d="M420.45,300.26v-1.72c1.15.18,1.13,1,1,1.88A.64.64,0,0,1,420.45,300.26Z"/><path class="cls-1" d="M572.43,392.58l1,.19c0,.57,0,1.13,0,1.7C572.28,394.25,572.29,393.44,572.43,392.58Z"/><path class="cls-1" d="M424.93,316.7c-1-.19-1.24-.9-1.05-1.83.39-.29.73-.3,1,.17C424.89,315.59,424.91,316.15,424.93,316.7Z"/><path class="cls-1" d="M420.45,300.26l1,.16.06,1.67C420.46,301.9,420.27,301.19,420.45,300.26Z"/><path class="cls-1" d="M1212.71,364v1.17c-1-.1-1.3-.75-1.22-1.68A1.15,1.15,0,0,1,1212.71,364Z"/><path class="cls-1" d="M601,340c0-.58,0-1.16,0-1.73,1.16.14,1.1,1,1,1.84A.64.64,0,0,1,601,340Z"/><path class="cls-1" d="M565.55,365.13l1,.15c0,.57,0,1.14,0,1.7C565.44,366.79,565.44,366,565.55,365.13Z"/><path class="cls-1" d="M574.17,399.55c1.14.23,1.06,1.07.92,1.93C574,401.24,574,400.44,574.17,399.55Z"/><path class="cls-1" d="M559.64,336.76c0,.54,0,1.07,0,1.6-1.09-.22-1.08-1-1-1.89Z"/><path class="cls-1" d="M597.56,323.66l1,.11c0,.6,0,1.19,0,1.79C597.28,325.4,597.44,324.51,597.56,323.66Z"/><path class="cls-1" d="M601,340l1,.11c0,.6,0,1.2-.05,1.8C600.69,341.77,600.87,340.88,601,340Z"/><path class="cls-1" d="M651.84,327.83c-.15-.87-.3-1.75.93-1.93C653,326.8,653,327.61,651.84,327.83Z"/><path class="cls-1" d="M424.88,315l-1-.17v-1.72C425,313.33,425,314.15,424.88,315Z"/><path class="cls-1" d="M599.24,333l1,.15c0,.56,0,1.11.07,1.67C599.24,334.63,599.09,333.9,599.24,333Z"/><path class="cls-1" d="M428.3,329.65l-1-.17v-1.72C428.47,327.94,428.45,328.76,428.3,329.65Z"/><path class="cls-1" d="M575.88,406.56c1.14.22,1,1.06.94,1.92C575.7,408.26,575.71,407.45,575.88,406.56Z"/><path class="cls-1" d="M1189.77,328.44c1.2-.06,1.37.68,1.24,1.66C1189.87,330.12,1189.74,329.34,1189.77,328.44Z"/><path class="cls-1" d="M650.13,334.85c-.15-.88-.31-1.76.93-1.94C651.25,333.81,651.29,334.63,650.13,334.85Z"/><path class="cls-1" d="M423.21,309.11c-1.06-.23-1.26-.93-1-1.89C423.37,307.39,423.3,308.24,423.21,309.11Z"/><path class="cls-1" d="M437.59,373.3v-1.71c1.12.19,1.16,1,1,1.87A.63.63,0,0,1,437.59,373.3Z"/><path class="cls-1" d="M437.59,373.3l1,.16.06,1.68C437.58,375,437.41,374.23,437.59,373.3Z"/><path class="cls-1" d="M1186,321.25l-.14.7c-1-.15-1.3-.78-1.2-1.71l1.15,0C1185.86,320.59,1185.92,320.92,1186,321.25Z"/><path class="cls-1" d="M1349.71,286.28l.16,1.83c0,.34-.09.68-.13,1a3.61,3.61,0,0,0-.46.17C1349.23,288.26,1349,287.19,1349.71,286.28Z"/><path class="cls-1" d="M1028.77,261.19q25.11-.06,50.2-.13c2.18,0,3,.55,3,3.15-.14,18,0,36,0,54q0,28.32,0,56.62c0,.88-.1,1.75-.15,2.62-1.8-.59-1.64-2.09-1.63-3.58q0-25.39,0-50.8,0-28.76,0-57.52c0-3.78,0-3.79-3.61-3.8q-22.26,0-44.52,0C1030.94,261.72,1029.74,262.15,1028.77,261.19Z"/></g></svg>