<svg xmlns="http://www.w3.org/2000/svg" viewBox="0 0 378.89 318.43"><defs><style>.cls-1{fill:#5f636c;}</style></defs><title>Plan de travail 4</title><g id="Traits_de_coupe" data-name="Traits de coupe"><path class="cls-1" d="M75.75,160.88a16.33,16.33,0,0,0-4.09-3.26,32.13,32.13,0,0,0-8.12-3.1,79.81,79.81,0,0,0-11.7-2c-2-.26-4.07-.45-6.1-.68s-4-.43-6.07-.57c-.15,0-.29,0-.32-.13l-1.22-.09c-1.43-.12-2.85-.23-4.27-.36-1.81-.17-3.62-.35-5.42-.54a46.84,46.84,0,0,1-5.83-.9c-3.59-.86-4.38-3.76-2.3-5.88a9.88,9.88,0,0,1,3.88-2.19,37.06,37.06,0,0,1,9.2-1.64,68.74,68.74,0,0,1,7.73-.18,71.16,71.16,0,0,1,7.3.63A44.41,44.41,0,0,1,57,142,23.54,23.54,0,0,1,63.22,145a11.1,11.1,0,0,1,4.12,5.57c.12.33.22.48.71.48,1.91,0,3.83,0,5.74,0,1,0,1,0,1-.83q0-7.56,0-15.11c0-.33-.1-.41-.51-.41q-3.63,0-7.27,0c-.31,0-.43.05-.41.32,0,.51,0,1,0,1.55s-.52,1-1.27,1a2.23,2.23,0,0,1-.94-.19,54.88,54.88,0,0,0-7.55-2.54,71.88,71.88,0,0,0-14.68-2.4c-2.21-.15-4.43-.21-6.65-.14a75.72,75.72,0,0,0-8.13.66,54.31,54.31,0,0,0-9.26,2,37.64,37.64,0,0,0-7.91,3.28,14.06,14.06,0,0,0-5.54,5.46A10.15,10.15,0,0,0,4,151a12.27,12.27,0,0,0,4.91,7A24.63,24.63,0,0,0,17,161.63a95.18,95.18,0,0,0,12.44,2c2.16.29,4.34.41,6.49.79,1.11.2,2.27.24,3.42.34,2,.18,4.08.33,6.13.52s4.23.42,6.35.63a53.54,53.54,0,0,1,6.46,1,7.62,7.62,0,0,1,3.9,2,4.09,4.09,0,0,1-.3,5.66,6.73,6.73,0,0,1-2.61,1.58,43.14,43.14,0,0,1-5.59,1.57,41.33,41.33,0,0,1-6.59.79,51.27,51.27,0,0,1-7.54-.07,48.64,48.64,0,0,1-7-.95c-.84-.19-1.72-.3-2.57-.48a32.42,32.42,0,0,1-9.38-3A20.36,20.36,0,0,1,16,170.68a8,8,0,0,1-2.33-5.24c0-.27-.11-.32-.42-.32-2.49,0-5,0-7.47,0-.33,0-.4.08-.4.33q0,9,0,18.08c0,.24.06.31.37.31,2.79,0,5.57,0,8.36,0,.28,0,.37-.06.36-.28a17.69,17.69,0,0,1,0-2.06c.09-.95.8-1.56,2-1.06.37.15.72.34,1.1.47a97.17,97.17,0,0,0,13.12,3.28,61.69,61.69,0,0,0,9.9,1.19q3.48.12,7,0c1.92-.07,3.84-.19,5.74-.41a51.6,51.6,0,0,0,5.38-.9c3.89-.87,7.79-1.69,11.25-3.47a20.82,20.82,0,0,0,5-3.17,13,13,0,0,0,2.47-3,11.13,11.13,0,0,0,1.27-7.31A12.92,12.92,0,0,0,75.75,160.88Z"/><path class="cls-1" d="M278.77,136l-33.23-.1c-.38,0-.47.09-.46.38,0,1.69,0,3.38,0,5.08,0,.37.13.45.57.45,2.66,0,5.31,0,8,.05a3,3,0,0,1,2.85,1.85,12.91,12.91,0,0,1,.23,2.47c.07,1.55,0,3.09.08,4.64.08,1.8.07,3.61.1,5.42,0,.91,0,1.82,0,2.73,0,2.15.07,4.3.11,6.5-.43-.16-.61-.48-.9-.69-1.41-1-2.87-2-4.23-3.14s-3.11-2.22-4.59-3.41-3-2.12-4.36-3.25-3-2.14-4.4-3.28-3-2.18-4.47-3.33-3-2.13-4.37-3.25-3.25-2.34-4.8-3.58c-1.31-1.05-2.76-2-4.07-3-1.08-.87-2.27-1.65-3.4-2.48a1,1,0,0,0-.65-.21L189,135.69c-.32,0-.45,0-.45.33,0,1.76,0,3.52,0,5.28,0,.26.09.32.41.32,2.12,0,4.25,0,6.38,0a6.53,6.53,0,0,1,2.76.62,2.65,2.65,0,0,1,1.42,1.37,4.26,4.26,0,0,1,.3,1.86q0,14.35-.08,28.71a7.16,7.16,0,0,1-.09,1.22c-.24,1.39-1.11,2-2.84,2-2.44,0-4.88,0-7.32,0-.33,0-.46,0-.45.33,0,1.79,0,3.57,0,5.35,0,.27.09.33.41.33l32.74.09c.3,0,.41,0,.41-.32,0-1.78,0-3.56,0-5.35,0-.29-.13-.34-.45-.34h-3.71c-1.62,0-3.23,0-4.85-.05a2.26,2.26,0,0,1-2.49-1.83,10,10,0,0,1-.16-2q0-11.74.06-23.5c0-.1-.07-.22.11-.31.93.71,1.92,1.37,2.84,2.1,1.57,1.23,3.29,2.34,4.85,3.58,1.34,1.05,2.8,2,4.14,3,1.6,1.26,3.33,2.39,4.93,3.64,1.29,1,2.7,1.92,4,2.94,1.46,1.15,3.07,2.18,4.53,3.34s3,2.11,4.38,3.24,3.07,2.18,4.53,3.34,3,2.14,4.46,3.28,3.1,2.19,4.56,3.37c.75.61,1.59,1.14,2.38,1.72a.84.84,0,0,0,.56.18c3.66,0,7.32,0,11,0,.37,0,.43-.09.42-.36,0-.94-.06-1.89-.08-2.84,0-1.82,0-3.65-.07-5.47-.07-2.15,0-4.3-.09-6.45-.07-2,0-3.91-.08-5.87-.07-2.36-.06-4.72-.09-7.09,0-1.62,0-3.24,0-4.87a56.41,56.41,0,0,1,.06-6.88c.09-.91.59-1.62,2.1-1.91a7.25,7.25,0,0,1,1.23-.07l7.12,0c.36,0,.51,0,.51-.38,0-1.72,0-3.43,0-5.15C279.26,136,279.13,136,278.77,136Z"/><path class="cls-1" d="M177.85,151.22a22.54,22.54,0,0,0-4.26-6.38,29.37,29.37,0,0,0-4-3.45,40.49,40.49,0,0,0-5.09-3.08,43.76,43.76,0,0,0-8.32-3.27,62.71,62.71,0,0,0-14.38-2.35,80.84,80.84,0,0,0-8.09-.14c-2.23.08-4.46.21-6.67.5a64.74,64.74,0,0,0-10.68,2.14,54.93,54.93,0,0,0-9,3.34,31.39,31.39,0,0,0-5.59,3.33,25.43,25.43,0,0,0-3.56,3.2,29.71,29.71,0,0,0-2.52,3.27,20.11,20.11,0,0,0-1.23,19.77,23.19,23.19,0,0,0,4.86,6.57,33.07,33.07,0,0,0,4.25,3.28,41,41,0,0,0,6.12,3.25,57.46,57.46,0,0,0,10.26,3.31,52.26,52.26,0,0,0,7.44,1.24,68.1,68.1,0,0,0,8.19.44c1.82,0,3.22,0,4.62-.07,2.18-.1,4.35-.27,6.5-.57a54.55,54.55,0,0,0,6.49-1.21,53.42,53.42,0,0,0,9.94-3.3,37.58,37.58,0,0,0,5.94-3.31A33.66,33.66,0,0,0,173,174.5a23.91,23.91,0,0,0,4.69-6.73,20.53,20.53,0,0,0,1.71-5.75,19.6,19.6,0,0,0,.05-4.9A20.89,20.89,0,0,0,177.85,151.22Zm-18.77,16.62a20.68,20.68,0,0,1-2.17,3.08,21.51,21.51,0,0,1-3.93,3.46,26.27,26.27,0,0,1-7.13,3.36,29.07,29.07,0,0,1-6.76,1.29,35.4,35.4,0,0,1-6.59-.06,28.57,28.57,0,0,1-5.49-1,27.65,27.65,0,0,1-7.6-3.32,19.73,19.73,0,0,1-3.86-3.25,18.46,18.46,0,0,1-4.12-7.61,18,18,0,0,1-.45-6.64,17.33,17.33,0,0,1,1.52-5.39,18.44,18.44,0,0,1,5.32-6.71,25.84,25.84,0,0,1,5.35-3.09,27.79,27.79,0,0,1,8-2.16,34.85,34.85,0,0,1,7.91-.18,31.23,31.23,0,0,1,8.34,1.79,24.17,24.17,0,0,1,6.35,3.35,19.29,19.29,0,0,1,3.45,3.29,18.06,18.06,0,0,1,3.4,6.76,16,16,0,0,1,.54,4.13A18,18,0,0,1,159.08,167.84Z"/><path class="cls-1" d="M375.23,136.6c0-.3-.09-.37-.46-.37q-16,0-31.95-.1c-.4,0-.44.11-.44.38,0,1.72,0,3.44,0,5.16,0,.29.08.38.46.37,1.51,0,3,0,4.55,0a1.4,1.4,0,0,1,1.31.74.91.91,0,0,1-.21,1.21c-.68.64-1.35,1.29-2,1.94-1.09,1.1-2.3,2.12-3.39,3.23s-2.24,2.09-3.32,3.17c-1.63,1.6-3.32,3.16-5,4.74a.5.5,0,0,1-.83,0c-.58-.6-1.21-1.17-1.78-1.78-1.09-1.17-2.34-2.24-3.44-3.41s-2.24-2.14-3.29-3.25-2.32-2.18-3.38-3.34c-.45-.49-1-.94-1.44-1.41s-.62-.77-.33-1.26a1.43,1.43,0,0,1,1.43-.63c1.36,0,2.73,0,4.1,0,.43,0,.51-.1.51-.42,0-1.68,0-3.36,0-5,0-.38-.14-.45-.58-.46-6.48,0-13,0-19.44,0L286.79,136c-.42,0-.52.08-.52.41,0,1.69,0,3.38,0,5.08,0,.37.14.42.55.42,2.08,0,4.15.05,6.23,0a8.55,8.55,0,0,1,4.14,1,13.51,13.51,0,0,1,3.53,2.72c1.26,1.25,2.66,2.4,3.91,3.66,1,1,2.14,1.92,3.14,2.94,1.16,1.16,2.47,2.22,3.62,3.39s2.32,2.11,3.42,3.21,2.56,2.33,3.77,3.55c.87.86,1.81,1.68,2.7,2.52a1.57,1.57,0,0,1,.65,1.11c-.07,3.43.1,6.87-.12,10.3a1.93,1.93,0,0,1-1.66,1.42c-.83.06-1.67.1-2.51.1-2,0-4.09,0-6.13,0-.37,0-.47.08-.47.38,0,1.75,0,3.51,0,5.27,0,.31.11.36.47.36q19.45,0,38.92.12c.36,0,.47-.06.46-.36,0-1.78,0-3.55,0-5.32,0-.3-.1-.36-.46-.36l-7.67,0a6.08,6.08,0,0,1-1.6-.15,1.74,1.74,0,0,1-1.45-1.92c0-3.22,0-6.43,0-9.64a1.69,1.69,0,0,1,.44-1.26c1.09-1,2.27-2,3.33-3.11s2.38-2.14,3.5-3.26,2.4-2.16,3.53-3.29,2.37-2.14,3.5-3.26,2.42-2.21,3.59-3.34c1.65-1.6,3.37-3.13,5.08-4.67a6.75,6.75,0,0,1,3.55-1.75,9.14,9.14,0,0,1,1.28-.06c2.43,0,4.85,0,7.27,0,.34,0,.45,0,.44-.34C375.2,140.06,375.21,138.33,375.23,136.6Z"/><path class="cls-1" d="M39.35,151.18a2.69,2.69,0,0,0,.32.13C39.66,151.13,39.49,151.17,39.35,151.18Z"/></g></svg>