<svg xmlns="http://www.w3.org/2000/svg" viewBox="0 0 378.89 318.43"><defs><style>.cls-1{fill:#5f636c;}</style></defs><title>devPlan de travail 4</title><g id="Traits_de_coupe" data-name="Traits de coupe"><path class="cls-1" d="M4.6,98.68H374.3V219.76H4.6ZM241.55,215V102.85H8.75V215Zm89-42.85c0,1.44,0,2.77,0,4.1a11.7,11.7,0,0,1-11.92,12q-8.26.06-16.55,0a11,11,0,0,1-11.21-11.09q-.09-18,0-35.94c0-6.4,4.67-10.91,11.08-10.95,5.62,0,11.24,0,16.86,0,6.86.05,11.67,4.9,11.73,11.77,0,1.42,0,2.84,0,4.26h22.8c0-6.56,0-13,0-19.46a10.4,10.4,0,0,0-.3-2.21,17.85,17.85,0,0,0-17.81-14.4q-24.84,0-49.67,0a14.1,14.1,0,0,0-2.52.15A17.9,17.9,0,0,0,268,128.07q-.17,31.08,0,62.18a17.67,17.67,0,0,0,17.47,17.39q25,.08,50,0a17.93,17.93,0,0,0,18.08-18.21q0-7.9,0-15.81c0-.48-.05-1-.08-1.51Z"/><path class="cls-1" d="M154.07,206.26H133.18V177.11a103.28,103.28,0,0,1-10.6,2.22,102.61,102.61,0,0,1-10.83.08v26.15H90.1v-2.69c0-6.07-.06-12.13,0-18.2a5.48,5.48,0,0,0-1.54-4.43,11.6,11.6,0,0,1-1.09-1.36c0-.15,0-.27.06-.32,2.31-2.07,2.6-4.68,2.59-7.65-.11-19.39-.06-38.78-.06-58.17v-1.86h21.61v61h21.46v-61h20.9Z"/><path class="cls-1" d="M167.53,199.56h2.11c9.64,0,19.29,0,28.93,0,4.24,0,8.08-.95,11-4.25,4.61-5.18,4.36-13.7-.48-19.42-3.15-3.71-7.34-5.41-11.87-6.64a105.52,105.52,0,0,1-22-8.19C160,153,160,134,168.66,123.72a36.46,36.46,0,0,1,23.12-12.6,35.42,35.42,0,0,1,5.35-.32q16.55,0,33.11,0c.39,0,.78,0,1.33.07-.63,2.07-1.16,4.07-1.89,6-.13.36-1,.66-1.52.66q-12.22.06-24.45,0A22.89,22.89,0,0,0,193,119.75a19.43,19.43,0,0,0-7.47,6.46c-5.21,7.67-3.08,16.68,5.26,20.73,3.79,1.84,8,2.82,12.05,4.13,5.51,1.78,11.23,3.05,16.5,5.36,9.73,4.28,13.36,12.94,12.84,22.64C231.45,193.33,220.92,203,207.6,205a129.43,129.43,0,0,1-15.15.91c-6.7.22-13.42.26-20.12.44a1.81,1.81,0,0,1-2.05-1.21C169.49,203.33,168.55,201.6,167.53,199.56Z"/><path class="cls-1" d="M18.05,110.83h21.6q8,34.44,16,69h.33c.64-2.72,1.29-5.44,1.91-8.16q5.88-25.86,11.72-51.74a6.92,6.92,0,0,0-.15-2.89c-.43-2-1-4-1.53-6.16H81.37c-1,4.37-2,8.69-3.06,13Q69.88,159.45,61.5,195a8.19,8.19,0,0,0,.09,3.19c.46,2.63,1,5.24,1.59,8a13.19,13.19,0,0,1-1.32.12c-6.31,0-12.62,0-18.93,0a1.45,1.45,0,0,1-1.7-1.32q-11-45-22.12-89.89C18.76,113.79,18.43,112.4,18.05,110.83Z"/></g></svg>