<svg xmlns="http://www.w3.org/2000/svg" viewBox="0 0 378.89 318.43"><defs><style>.cls-1{fill:#5f636c;}</style></defs><title>devPlan de travail 4</title><g id="Traits_de_coupe" data-name="Traits de coupe"><path class="cls-1" d="M301.25,152.77c-1.05-.53-1.93-.94-2.79-1.4-6.41-3.44-9.66-8.84-9.78-16.08-.17-10.29,4.84-17.4,13.78-22a42,42,0,0,1,18.09-4.25c7.35-.23,14.56.53,21.4,3.45,5.54,2.36,10.17,5.85,12.94,11.32a21.39,21.39,0,0,1,.31,19.32c-1.75,3.88-4.92,6.44-8.67,8.33l-1,.49c-.05,0-.07.09-.15.2.33.16.66.29,1,.45,1.85,1,3.77,1.87,5.54,3,5.91,3.73,8.73,9.25,9.33,16.13,1.07,12.47-6,25.8-21.91,30.77a57.73,57.73,0,0,1-20.71,2.13,49.22,49.22,0,0,1-15.08-3c-6.9-2.67-12.4-7-15.75-13.71-2.37-4.79-2.85-9.89-2.57-15.14.49-9.12,5.46-15,13.4-18.83C299.46,153.55,300.29,153.2,301.25,152.77ZM323,190.15a19.18,19.18,0,0,0,9.86-2.28c5.1-2.94,8-7.33,7.82-13.3s-3.32-10.22-8.73-12.54a22.54,22.54,0,0,0-18.39,0,13,13,0,0,0-8.4,12.13c-.25,6,2.19,10.57,7.46,13.53A20.79,20.79,0,0,0,323,190.15Zm.84-67.06-.05-.26c-2.44.45-4.94.71-7.33,1.38a11.5,11.5,0,0,0-7.89,6.4,11.13,11.13,0,0,0,5.07,14.5,19.3,19.3,0,0,0,18.61.57,11.51,11.51,0,0,0,1.07-20.1A16.23,16.23,0,0,0,323.83,123.09Z"/><path class="cls-1" d="M134.31,153.75V127.92h14.32v73.55h-14v-6.65l-.3-.19a1.6,1.6,0,0,1-.14.42,16,16,0,0,1-11.73,7.59c-6.28,1-12.16,0-17.24-4.13a23.62,23.62,0,0,1-7.75-12.15c-2.56-8.71-2.74-17.45.38-26.05,2.53-7,7.22-12,14.56-14,6-1.62,11.85-1.21,17,2.62A49.21,49.21,0,0,1,134.31,153.75ZM135,175.4c-.06-4.58-.63-7.89-1.81-10.63a10.66,10.66,0,0,0-5.48-5.87A11.43,11.43,0,0,0,112,165.35a24.74,24.74,0,0,0-1.53,9.41A22.24,22.24,0,0,0,113,185.57a10.15,10.15,0,0,0,6.3,5.22,11.68,11.68,0,0,0,13.87-6.4A20.89,20.89,0,0,0,135,175.4Z"/><path class="cls-1" d="M6.35,127.85H8.13c4.45,0,8.9,0,13.35,0,1.58,0,1.28-.25,1.73,1.34Q30.8,156,38.38,182.74c.08.29.18.58.35,1.12.19-.53.3-.83.39-1.13q7.73-26.92,15.43-53.85c.21-.76.51-1.06,1.35-1,4.63,0,9.26,0,13.9,0h1c-.12.43-.2.74-.3,1q-12.21,35.9-24.4,71.81a1.06,1.06,0,0,1-1.22.87q-6.45,0-12.89,0a1,1,0,0,1-1.16-.83q-12.1-36-24.25-72C6.52,128.53,6.46,128.26,6.35,127.85Z"/><path class="cls-1" d="M206,185.53c-1.87,6.27-5.32,11.13-11,14.27a25.64,25.64,0,0,1-11.18,3.11,36,36,0,0,1-11.86-1.22c-7.06-2-12.1-6.41-14.64-13.3a39.34,39.34,0,0,1-.68-26.54c3.2-9.74,10.83-15.49,21.07-16.22a31.65,31.65,0,0,1,12.9,1.43c7.27,2.57,11.75,7.79,14.11,15a47.14,47.14,0,0,1,1.87,15.71,1.31,1.31,0,0,1-.11.35H169.13c.07.7.09,1.29.2,1.87a32,32,0,0,0,.79,3.65c1.46,4.63,4.71,7.1,9.46,7.71a12.32,12.32,0,0,0,7.73-1.2,7.91,7.91,0,0,0,3.68-4c.1-.24.43-.56.65-.56C196.37,185.52,201.09,185.53,206,185.53Zm-36.35-16.81h22.08c-.24-5.74-3.8-11.28-10.84-11.41C174.85,157.2,170.28,160.77,169.61,168.72Z"/><path class="cls-1" d="M212.17,174.25a37.27,37.27,0,0,1,2.59-13.06,24.09,24.09,0,0,1,15.16-14,31.54,31.54,0,0,1,21.69.36,23.81,23.81,0,0,1,15,16,35,35,0,0,1-.49,22.81,23.88,23.88,0,0,1-16,15.12,31.46,31.46,0,0,1-20.57-.3c-9.12-3.27-14.47-9.92-16.42-19.32C212.61,179.36,212.48,176.79,212.17,174.25Zm41.42.3c-.24-2.15-.35-4-.67-5.83-1.24-7.15-5.6-11-12.46-11.09-6.09-.09-10.34,2.79-12.12,8.45a26.73,26.73,0,0,0,0,16.29,11.25,11.25,0,0,0,10,8.4c7.31.89,12.53-2.58,14.29-9.73C253.16,178.84,253.3,176.54,253.59,174.55Z"/><path class="cls-1" d="M75,147H89.22V201.5H75Z"/><path class="cls-1" d="M75,141.27V128.05H89.23v13.22Z"/></g></svg>