<svg xmlns="http://www.w3.org/2000/svg" viewBox="0 0 378.89 318.43"><defs><style>.cls-1{fill:#5f636c;}</style></defs><title>Plan de travail 4</title><g id="Traits_de_coupe" data-name="Traits de coupe"><path class="cls-1" d="M223.13,111.46a17.75,17.75,0,0,0-1.06-12.27,11.41,11.41,0,0,0-7.57-6.54c-4.91-1.25-9.79-.51-14.63.55a17.45,17.45,0,0,0-12.3,9.3,39.63,39.63,0,0,0-3.49,11.2c-.74,4-1,8.06-1.53,12.09h0l0,.89c.05.43.08.85-.5.94-.63,4.42-.73,8.89-1.71,13.28-.8,3.55-1.07,7.21-1.57,10.82,0,.51.17,1.05-.52,1.25h0q-.63,4.89-1.24,9.78c.08.45.05.84-.5,1h0c-.2,2.69-.82,5.32-1.23,8,.09.46,0,.84-.53.95a45.64,45.64,0,0,1-2.11,7.51,31,31,0,0,1-4.5,8.22,11.14,11.14,0,0,1-6.73,4.25c-5.22.87-9.81-.81-14-3.68a36.53,36.53,0,0,1-9.27-9.61A89.69,89.69,0,0,1,130.66,166c-1.47-3.1-2.75-6.3-3.93-9.52-1.34-3.69-2.61-7.41-3.94-11.1s-2.48-7.34-4-10.93a43.14,43.14,0,0,0-4.62-8.86,20.06,20.06,0,0,0-4.66-4.67c-3.64-2.58-7.75-2.89-12-2.58a19.1,19.1,0,0,0-13.13,6.11c-2.93,3.17-4.43,7.15-5.68,11.18a41.14,41.14,0,0,0-1.4,8c.06.51.23,1.06-.49,1.27l-1.2,16.33c0,.5.23,1.07-.5,1.27a78.8,78.8,0,0,1-1.71,10.19,78.49,78.49,0,0,1-2.66,9.36c-1.36,3.27-2.73,6.51-5.59,8.84A8.6,8.6,0,0,1,57,192.83c-3.28-1-5.22-3.48-6.92-6.14a56.66,56.66,0,0,1-5.47-12c-1.46-4.12-2.75-8.32-3.83-12.55-.92-3.58-1.6-7.22-2.51-10.8a44.63,44.63,0,0,0-3.52-9.95A11,11,0,0,0,24.16,135c-6.42.08-12.54,1.6-17.77,5.46A9.73,9.73,0,0,0,2,148.63c0,3.07,1.46,5.61,2.9,8.2q3.13,5.67,6,11.5c1.92,4,3.83,7.94,5.78,11.9q2.75,5.53,5.68,11c2.34,4.32,4.85,8.52,7.6,12.6a82.23,82.23,0,0,0,9.7,12,38,38,0,0,0,12.12,8.59,24,24,0,0,0,17.62.7c6.75-2.3,11-7.36,14.59-13.15a76.12,76.12,0,0,0,5.36-11.1c1.45-3.48,2.8-7,4-10.6A48.87,48.87,0,0,1,97.81,180c2.23-3.68,5.14-5.18,9.53-2a36.38,36.38,0,0,1,7,7.34c2.71,3.42,5.21,7,7.75,10.55,2.4,3.35,4.87,6.65,7.44,9.88a77.53,77.53,0,0,0,12.1,12.46,39.6,39.6,0,0,0,10.47,6.1c5.18,2,10.55,2,15.92,1.58a21.27,21.27,0,0,0,13.56-6.35,40.7,40.7,0,0,0,7.11-9.67,91.27,91.27,0,0,0,6.13-14.48c1.2-3.53,2.32-7.08,3.27-10.68,1.25-4.71,2.54-9.41,4-14.05.69-2.15,1.13-4.36,1.81-6.53,1.31-4.16,2.5-8.36,3.77-12.54,1.15-3.8,2.36-7.58,3.6-11.35s2.6-7.5,4-11.2c.94-2.44,2-4.8,3-7.2a24.14,24.14,0,0,1,2-4.1A19.65,19.65,0,0,0,223.13,111.46Z"/><path class="cls-1" d="M309.29,218c-3.4-3.94-6.87-7.82-10.23-11.78-2.54-3-5-6-7.62-9a9.31,9.31,0,0,1-2.08-3c-1-2.81.42-5,2-6.89a129.8,129.8,0,0,1,10.05-10.13c1.38-1.32,2.66-2.76,3.91-4.21a3.08,3.08,0,0,0-.38-3.65c-2-2-4.32-1.45-6.59-1-2.73.52-4.68,2.46-6.73,4.15q-5.4,4.47-10.39,9.4c-1.85,1.84-3.7,3.75-6.19,4.72-4.44,1.72-7.79,1.14-9.46-4.22a30.92,30.92,0,0,1-1.45-9.45c0-6.4-.15-12.81,0-19.21.09-6.13-5.68-7.34-9.57-6a4.79,4.79,0,0,0-2.58,2.51,8.9,8.9,0,0,0-.85,4.42q.15,31,.3,62c0,1.14.1,2.28.15,3.42.56.1.61.49.54.94h0a4.61,4.61,0,0,0,1.35,2.77,6.78,6.78,0,0,0,6.94,1.49c2.44-.86,3.65-2.81,4-5.37.3-1.93.13-3.86.28-5.79l0-1.19c0-.49-.21-1.05.51-1.25a19.21,19.21,0,0,1,1-5.09,6.67,6.67,0,0,1,2.41-3.3,9.23,9.23,0,0,1,11,.3c3.65,2.72,6.35,6.3,9.16,9.76,3,3.63,5.86,7.3,9.95,9.77a15.71,15.71,0,0,0,10.1,2.45,2.84,2.84,0,0,0,2.52-3.6A12.46,12.46,0,0,0,309.29,218Z"/><path class="cls-1" d="M371.68,184.85a26.47,26.47,0,0,0-11.33-8.29,36.22,36.22,0,0,0-11.91-2.51c-9.51-.47-18.41,1.08-25.89,7.49a21.07,21.07,0,0,0-7.46,12.34c.08.46,0,.84-.53,1-.42,4-.66,8,.59,12a26.7,26.7,0,0,0,3.82,7.89,22.62,22.62,0,0,0,11.21,8.19c10.88,3.69,21.78,3.73,32.48-.78A21.9,21.9,0,0,0,376.15,206C377.82,198.37,376.62,191.21,371.68,184.85Zm-10.35,22.53a15.29,15.29,0,0,1-11.65,9.06c-5.8,1.15-11.24.17-15.85-3.65a14.21,14.21,0,0,1-5.12-8.74,20.43,20.43,0,0,1,.26-9.14,16.66,16.66,0,0,1,8.4-10.2,16.34,16.34,0,0,1,15.59-.4,17.53,17.53,0,0,1,7.12,6.25,16.48,16.48,0,0,1,2.35,6.46c1,.52.47,1.41.53,2.15A25,25,0,0,1,361.33,207.38Z"/><path class="cls-1" d="M234.55,179.91c-1-.87-.38-2-.53-3h0c-.16-1.38-.25-2.85-1.37-3.82-1.84-1.59-7-1.74-9.1-.48s-2.18,3.25-2.48,5.24l.21,41.14c.12,1,.2,2.07.4,3.09.27,1.38.71,2.7,2.25,3.22a10.92,10.92,0,0,0,7.16.09,3.79,3.79,0,0,0,2.4-2.28,16.26,16.26,0,0,0,1.26-5.55Q234.63,198.71,234.55,179.91Z"/><path class="cls-1" d="M227.09,163.28c2.07,0,3.77,0,5.28-1a4.87,4.87,0,0,0,2.43-4.71,4.3,4.3,0,0,0-2.69-3.9,11.92,11.92,0,0,0-8.17-.48,5,5,0,0,0,.11,9.75A18.17,18.17,0,0,0,227.09,163.28Z"/><path class="cls-1" d="M220.84,179.56a3.1,3.1,0,0,1,.23-1.75c-.71.16-.54.74-.54,1.2q.08,19.38.19,38.75c0,.46-.16,1,.56,1.19a2.91,2.91,0,0,1-.26-1.74Q220.91,198.39,220.84,179.56Z"/><path class="cls-1" d="M234,176.87c.62.94-.08,2.1.53,3C234.42,178.89,235.14,177.72,234,176.87Z"/><path class="cls-1" d="M75.14,162.55c.32-.36.17-.91.5-1.27C74.9,161.48,75.09,162.05,75.14,162.55Z"/><path class="cls-1" d="M76.84,145c.34-.35.19-.9.49-1.27C76.59,143.88,76.81,144.45,76.84,145Z"/><path class="cls-1" d="M265,213a1.64,1.64,0,0,1-.24,1c.75-.17.5-.76.51-1.23l-.27,0Z"/><path class="cls-1" d="M178.27,153h0c.35-.34.18-.9.52-1.25C178.05,151.9,178.23,152.47,178.27,153Z"/><path class="cls-1" d="M265,212.71a.35.35,0,0,1,.27.11c0-.4,0-.81,0-1.21A1.5,1.5,0,0,0,265,212.71Z"/><path class="cls-1" d="M265,212.71a.34.34,0,0,0-.26.15l.26,0Z"/><path class="cls-1" d="M176.53,163.72h0c.23-.29.27-.67.5-1C176.42,162.85,176.46,163.28,176.53,163.72Z"/><path class="cls-1" d="M182.3,126.71l-.25,0h0l0,.88A1.29,1.29,0,0,0,182.3,126.71Z"/><path class="cls-1" d="M182.31,126.58v0a1.12,1.12,0,0,1,.24-.74c-.59.1-.57.51-.51.95h0A.32.32,0,0,1,182.31,126.58Z"/><path class="cls-1" d="M182.3,126.71l.27,0a.43.43,0,0,0-.26-.1S182.3,126.67,182.3,126.71Z"/><path class="cls-1" d="M252.11,221c-.26-.27-.28-.67-.54-.94C251.48,220.47,251.55,220.85,252.11,221Z"/><path class="cls-1" d="M314.56,194.83c.26-.27.28-.67.53-1C314.53,194,314.48,194.37,314.56,194.83Z"/><path class="cls-1" d="M174.77,172.64c.26-.27.28-.68.53-.95C174.75,171.8,174.69,172.17,174.77,172.64Z"/><path class="cls-1" d="M363,199.17c-.52-.63,0-1.52-.53-2.15C362.54,197.76,362.05,198.63,363,199.17Z"/></g></svg>